<svg width="791" height="617" viewBox="0 0 791 617" fill="none" xmlns="http://www.w3.org/2000/svg">
<g clip-path="url(#clip0)">
<path d="M50.8526 615.524C-27.8564 459.171 125.873 423.975 86.0393 352.993C37.8697 267.327 34.4026 27.3747 197.279 58.0697C392.245 94.8152 423.448 -53.495 597.537 21.4718C721.023 74.6716 603.955 224.089 727.883 357.642C839.418 477.839 732.457 615.819 732.457 615.819L50.8526 615.524Z" fill="#EBF3FA"/>
<g opacity="0.3">
<path opacity="0.3" d="M265.041 186.277C249.698 180.226 224.544 179.415 229.191 165.617C233.838 151.819 246.379 153.737 246.379 153.737C311.072 164.584 327.964 246.781 327.964 246.781C315.94 217.119 280.459 192.327 265.041 186.277Z" fill="#AEC3FF"/>
</g>
<g opacity="0.3">
<path opacity="0.3" d="M297.664 168.616C287.484 159.909 268.453 152.678 275.608 143.307C282.763 133.937 291.91 138.733 291.91 138.733C338.605 164.115 329.9 231.556 329.9 231.556C328.499 205.657 307.844 177.323 297.664 168.616Z" fill="#AEC3FF"/>
</g>
<path d="M462.831 331.933C462.462 333.04 462.093 333.925 461.872 334.516V334.589C461.577 335.622 461.282 336.655 461.061 337.688L457.151 337.984C458.11 334.663 459.438 331.417 461.061 328.318C469.765 308.912 468.069 292.605 468.069 292.605C468.069 292.605 430.669 275.118 445.422 246.562C445.422 246.562 457.594 228.78 471.683 223.394C471.683 223.394 467.036 264.714 474.781 265.083C482.527 265.452 476.699 218.671 476.699 218.671C476.699 218.671 513.214 197.642 528.188 198.011C528.188 198.011 507.607 239.553 515.205 238.003C522.803 236.454 546.04 194.396 546.04 194.396C546.04 194.396 584.325 184.361 592.218 206.865L462.831 331.933ZM592.292 206.939C600.185 229.518 591.038 241.693 585.357 243.611C579.677 245.529 542.794 247.743 544.122 252.465C545.45 257.188 570.899 263.017 584.472 257.704C584.472 257.704 571.932 296.737 551.646 296.294C531.36 295.852 524.205 283.824 511.665 283.824C499.124 283.824 490.272 287.809 496.764 290.687C503.255 293.564 524.131 289.801 534.827 297.622C545.524 305.444 554.08 310.092 535.639 315.331C517.197 320.57 483.486 320.644 475.74 306.698C475.371 306.108 475.076 305.518 474.781 304.927C475.003 305.518 475.371 306.108 475.74 306.698C472.421 308.986 467.995 318.947 464.897 326.547C464.454 327.801 463.79 329.646 462.757 332.081L592.292 206.939Z" fill="#CDE0FB"/>
<path d="M613.243 583.23C607.268 579.688 577.098 548.698 573.926 553.494C570.754 558.29 585.064 585.222 600.113 593.191C600.113 593.191 556.074 611.859 541.026 593.633C525.977 575.408 531.067 559.913 521.551 548.771C512.035 537.63 501.708 532.907 504.069 540.802C506.429 548.698 525.756 564.34 527.01 579.762C528.264 595.183 530.625 606.325 511.962 594.002C493.299 581.68 467.48 551.944 473.824 534.457C474.119 533.719 474.341 532.981 474.636 532.243C474.267 532.907 474.046 533.645 473.824 534.457C469.325 533.276 457.079 536.966 448.006 540.065C446.531 540.655 444.465 541.467 441.515 542.426C440.26 542.869 439.228 543.311 438.49 543.606H438.416C437.31 544.123 436.13 544.639 435.023 545.23L431.777 541.983C435.466 540.286 439.302 539.032 443.285 538.072C467.112 530.915 480.168 517.043 480.168 517.043C480.168 517.043 467.038 470.632 503.552 461.851C503.552 461.851 528.559 459.047 544.05 467.385C544.05 467.385 503.995 494.76 509.527 501.917C515.06 509.074 551.943 468.197 551.943 468.197C551.943 468.197 598.342 484.43 609.481 497.933C609.481 497.933 557.107 511.436 564.262 516.97C571.418 522.504 626.595 510.993 626.595 510.993C626.595 510.993 664.732 537.187 650.791 561.389C636.849 585.591 619.218 586.771 613.243 583.23Z" fill="#AFCDFB"/>
<g opacity="0.5">
<path opacity="0.5" d="M135.381 274.469C141.651 274.986 180.157 268.419 179.936 273.584C179.715 278.749 154.929 290.923 139.659 288.71C139.659 288.71 162.011 325.75 182.739 320.438C203.467 315.125 207.893 301.032 220.803 297.933C233.712 294.834 243.744 296.826 237.769 301.401C231.794 305.976 209.369 307.083 200.295 317.708C191.222 328.333 183.55 335.195 203.763 336.08C223.975 336.966 258.645 328.923 263.218 312.764C263.44 312.026 263.587 311.362 263.809 310.772C263.735 311.436 263.514 312.174 263.218 312.764C267.128 314.314 274.136 323.463 279.152 330.547C279.89 331.801 280.996 333.424 282.693 335.712C283.357 336.745 283.947 337.556 284.316 338.147C284.316 338.147 284.316 338.147 284.316 338.22C284.906 339.18 285.422 340.213 285.939 341.246L290.07 340.581C288.225 337.409 286.086 334.383 283.726 331.58C270.079 313.723 267.866 296.605 267.866 296.605C267.866 296.605 302.093 269.599 280.037 243.774C280.037 243.774 263.218 228.426 247.432 226.36C247.432 226.36 262.186 267.681 254.366 269.968C246.547 272.255 241.236 222.745 241.236 222.745C241.236 222.745 198.599 209.98 183.329 213.891C183.329 213.891 214.459 251.595 206.344 251.89C198.23 252.186 163.855 214.407 163.855 214.407C163.855 214.407 122.103 213.374 119.373 238.461C116.718 263.549 129.111 273.953 135.381 274.469Z" fill="#AFCDFB"/>
</g>
<g opacity="0.2">
<path opacity="0.2" d="M152.561 552.821C158.094 545.811 180.15 494.972 186.125 499.252C192.1 503.532 187.232 542.417 172.773 558.797C172.773 558.797 234.073 561.085 243.884 532.382C253.695 503.679 240.417 487.372 246.761 469.737C253.105 452.103 263.359 441.625 264.096 452.25C264.834 462.875 248.753 490.398 254.286 509.434C259.818 528.471 262.031 542.933 278.776 519.691C295.521 496.448 312.93 449.004 297.365 430.926C296.701 430.114 296.037 429.376 295.447 428.639C296.185 429.303 296.849 430.04 297.365 430.926C302.234 427.458 318.536 426.277 330.855 425.908C332.921 425.982 335.724 425.908 339.707 425.761C341.404 425.761 342.879 425.761 343.838 425.761H343.912C345.461 425.835 347.084 425.982 348.707 426.204L351.141 420.817C345.904 420.522 340.74 420.67 335.576 421.334C303.783 423.621 281.727 412.922 281.727 412.922C281.727 412.922 276.489 351.015 228.688 357.214C228.688 357.214 197.411 365.256 182.658 382.301C182.658 382.301 243.221 396.91 239.827 407.978C236.434 419.046 173.511 386.876 173.511 386.876C173.511 386.876 125.194 427.532 118.039 448.782C118.039 448.782 187.01 441.108 180.961 451.07C174.913 461.031 103.506 472.32 103.506 472.32C103.506 472.32 69.7213 521.093 97.3838 543.819C125.12 566.471 147.103 559.757 152.561 552.821Z" fill="#AFCDFB"/>
</g>
<path d="M523.327 365.273C525.171 364.167 529.302 372.283 532.769 373.833C533.212 374.054 533.728 373.833 533.95 373.464C534.466 372.726 532.622 368.594 533.876 368.372C534.392 368.299 535.204 371.25 536.015 372.504C536.826 373.906 536.974 375.53 536.458 377.005C536.163 377.817 536.31 378.629 536.753 379.367C537.048 380.104 537.195 380.768 537.343 381.211C537.49 381.654 537.564 381.949 537.564 381.949L534.982 383.499L532.769 384.753C531.737 383.499 530.409 382.539 528.933 381.949C526.573 380.916 524.286 376.858 522.958 373.316C522.368 371.767 522.663 365.716 523.327 365.273Z" fill="#FFB27D"/>
<path d="M534.952 377.253L523.961 361.611C523.74 361.315 523.297 361.242 523.002 361.463L518.723 364.488C518.428 364.71 518.355 365.152 518.576 365.447L529.567 381.09C529.788 381.385 530.231 381.459 530.526 381.238L534.805 378.212C535.1 377.991 535.173 377.548 534.952 377.253Z" fill="#2B478B"/>
<path d="M530.984 380.27L519.845 364.333C519.697 364.111 519.329 364.037 519.107 364.185L516.599 365.956C516.378 366.103 516.304 366.472 516.452 366.694L527.664 382.631C527.812 382.853 528.181 382.927 528.402 382.779L530.91 381.008C531.131 380.787 531.205 380.492 530.984 380.27Z" fill="#233862"/>
<path d="M608.367 379.118C608.367 379.118 583.951 423.758 566.615 422.283C549.206 420.733 531.576 384.799 531.576 384.799C532.756 382.217 534.969 380.225 537.625 379.265L566.689 400.959C574.582 393.875 596.417 355.728 596.417 355.728L608.367 379.118Z" fill="#94B0ED"/>
<path d="M648.45 611.887C652.36 611.001 653.909 606.279 653.614 601.778C653.54 599.86 653.54 597.867 653.614 595.949C653.762 593.44 653.983 591.374 653.983 591.374L662.392 589.456L663.277 590.563L664.089 591.669C664.089 591.669 669.179 596.318 668.146 599.712C667.113 603.106 662.614 605.246 661.95 609.304C661.507 612.256 660.105 614.248 658.483 615.06H645.869C645.647 614.248 645.5 612.477 648.45 611.887Z" fill="#233862"/>
<path d="M576.948 612.13C581.374 611.392 589.046 608.883 590.742 603.201C590.816 603.054 590.816 602.833 590.89 602.611C592.218 596.561 602.102 604.456 602.102 604.456C602.102 604.456 602.102 604.677 602.176 605.12C602.397 607.186 602.914 613.384 601.512 615.081H572.596C573.038 614.048 574.071 612.572 576.948 612.13Z" fill="#233862"/>
<path d="M619.986 451.246C619.986 451.246 616.519 515.145 614.306 545.471C614.306 545.988 614.232 546.43 614.232 546.947C611.872 576.756 603.463 604.869 603.463 604.869C594.094 606.861 589.447 602.139 589.447 602.139C589.447 602.139 587.455 582.438 587.013 570.116C586.718 563.032 583.841 525.549 581.48 495.001C579.71 472.57 578.234 453.829 578.234 453.829L619.986 451.246Z" fill="#EF7A65"/>
<path d="M619.988 451.246C619.988 451.246 616.521 515.145 614.308 545.471C614.308 545.988 614.234 546.43 614.234 546.947L581.408 495.001C579.637 472.57 578.162 453.829 578.162 453.829L619.988 451.246Z" fill="#A75547"/>
<path d="M628.009 443.85C628.009 443.85 630.075 461.411 630.444 470.265C630.813 479.12 638.706 504.502 645.418 512.988C657.295 527.966 664.081 589.356 664.081 589.356C663.122 592.16 653.016 596.218 653.016 596.218C653.016 596.218 647.484 587.364 629.706 555.562C611.928 523.76 584.93 456.025 584.93 456.025L628.009 443.85Z" fill="#EF7A65"/>
<path d="M595.788 352.935C596.968 351.459 598.369 348.729 598.148 347.548C597.779 345.114 597.632 342.752 597.484 340.317L603.017 335.816L611.279 329.25C610.762 344.449 620.5 351.754 620.5 351.754C620.5 351.754 602.279 360.756 591.73 357.436C591.657 357.362 592.616 356.993 595.788 352.935Z" fill="#FFB27D"/>
<path d="M603.124 335.81C605.853 335.441 608.656 335.736 611.312 336.548C611.312 336.548 604.378 346.509 598.181 347.542C597.813 345.107 597.665 342.746 597.518 340.311L603.124 335.81Z" fill="#ED975D"/>
<path d="M592.012 316.962C593.487 313.42 596.29 309.583 607.355 311.944C618.42 314.306 615.027 321.241 613.404 332.088C611.781 342.935 594.372 340.057 594.372 340.057C589.873 339.024 590.61 320.43 592.012 316.962Z" fill="#FFB27D"/>
<path d="M576.652 428.179C576.652 427.589 576.652 426.998 576.726 426.408V426.187C576.8 420.284 577.021 414.16 577.242 408.035C577.832 394.532 578.865 381.472 580.709 374.241C582.849 365.756 587.643 360.148 592.143 356.016L595.758 352.77C599.594 353.581 603.577 353.138 607.118 351.368C611.323 349.302 615.822 347.088 616.56 347.604C625.191 354.098 629.543 373.208 629.469 394.975C629.469 397.927 629.395 400.878 629.174 403.83C628.51 416.521 628.731 429.212 629.764 441.903C629.912 444.264 630.059 446.109 630.059 447.363C630.133 448.544 627.699 449.798 626.666 450.241C618.847 453.783 611.544 456.218 603.282 456.956C593.545 457.989 581.963 455.775 577.98 455.849C577.537 455.849 577.169 455.701 576.874 455.406C576.726 455.185 576.505 443.231 576.652 428.179Z" fill="#AEC3FF"/>
<path d="M613.784 379.848H622.857C622.857 379.848 625.808 386.194 629.422 394.974C629.422 397.926 629.348 400.877 629.127 403.829C628.463 416.52 628.685 429.211 629.717 441.902C607.145 425.374 613.784 379.848 613.784 379.848Z" fill="#94B0ED"/>
<path d="M684.265 483.019L681.905 466.196C681.167 461.105 676.52 457.637 671.43 458.301L632.629 463.835C627.539 464.572 624.072 469.221 624.736 474.312L627.096 491.135C627.834 496.227 632.481 499.695 637.571 499.031L676.372 493.497C681.388 492.759 684.929 488.11 684.265 483.019Z" fill="#233862"/>
<path d="M629.845 473.619L632.279 490.59C632.722 493.763 634.787 496.493 637.738 497.821C638.697 498.264 639.73 498.485 640.762 498.559C641.426 498.633 642.09 498.559 642.754 498.485L681.482 492.951C686.572 492.214 690.112 487.491 689.375 482.4L686.94 465.355C686.203 460.264 681.482 456.722 676.392 457.46L663.04 459.379L662.524 455.763C662.302 454.066 660.753 452.886 659.057 453.181L657.581 453.402L649.467 454.583L647.475 454.878C645.779 455.099 644.598 456.649 644.893 458.346L645.41 461.961L637.664 463.068C637.369 463.142 637.074 463.142 636.779 463.216C633.828 463.953 631.468 466.019 630.361 468.823C629.771 470.373 629.55 471.996 629.845 473.619ZM661.196 459.748L647.328 461.74L646.811 458.124C646.738 457.534 647.18 456.944 647.77 456.796L651.237 456.28L657.655 455.394L659.352 455.173C659.499 455.173 659.573 455.173 659.72 455.173C660.237 455.247 660.606 455.616 660.679 456.132L661.196 459.748Z" fill="#2B478B"/>
<path d="M651.966 440.772L653.958 444.092C656.983 446.527 657.056 446.601 656.54 451.25C656.024 455.308 658.679 455.308 658.605 458.186C658.532 461.063 654.843 459.661 654.843 459.661C646.139 455.603 649.532 454.57 648.942 447.191C648.868 446.085 646.803 443.428 646.803 443.428L651.966 440.772Z" fill="#FFB27D"/>
<path d="M656.571 443.58C656.571 443.58 654.801 417.607 649.784 406.023C646.76 399.013 616.885 349.06 616.885 349.06L605.377 377.836C605.377 377.836 633.039 410.302 634.293 413.032C635.547 415.762 645.285 445.793 645.285 445.793C647.571 445.941 649.858 445.793 652.145 445.424C653.62 445.203 655.169 444.539 656.571 443.58Z" fill="#AEC3FF"/>
<path d="M616.464 309.774C614.251 305.273 609.825 304.904 603.038 304.462C599.94 304.24 594.481 301.436 589.097 305.79C583.712 310.143 588.359 316.415 588.359 316.415C587.547 315.972 586.81 315.308 586.367 314.423C586.367 314.423 586.515 318.629 589.318 319.809C592.121 320.99 594.482 318.924 600.457 319.219C606.432 319.514 606.432 323.425 607.243 324.384C608.055 325.343 608.128 323.72 610.194 323.13C612.259 322.539 612.186 325.786 611.89 328.221C611.595 330.656 613.366 330.951 613.366 330.951C617.792 326.671 618.751 314.201 616.464 309.774Z" fill="#2B478B"/>
<path d="M649.955 450.571C649.365 452.416 648.111 454.408 647.152 453.817C646.709 453.522 647.594 452.342 648.037 449.612C648.185 448.726 650.103 446.734 650.103 446.734C650.324 447.915 650.324 449.243 649.955 450.571Z" fill="#FFB27D"/>
<path d="M266.814 590.447V228.23C266.814 216.351 276.478 206.685 288.354 206.685H477.64C489.516 206.685 499.179 216.351 499.179 228.23V590.447C499.179 602.326 489.516 611.992 477.64 611.992H288.354C276.478 611.992 266.814 602.326 266.814 590.447Z" fill="white"/>
<path d="M264.111 590.399V228.256C264.111 214.827 274.955 203.98 288.381 203.98H477.666C491.018 203.98 501.861 214.827 501.935 228.256V590.472C501.935 603.828 491.091 614.674 477.666 614.748H288.307C274.955 614.674 264.111 603.828 264.111 590.399ZM288.381 209.367C277.979 209.367 269.57 217.778 269.57 228.182V590.399C269.57 600.803 277.979 609.214 288.381 609.214H477.666C488.067 609.214 496.476 600.803 496.476 590.399V228.256C496.476 217.852 488.067 209.441 477.666 209.441H288.381V209.367Z" fill="#2B478B"/>
<path d="M290.563 490.002C301.702 499.668 301.111 533.093 268.138 529.698C264.892 529.33 249.032 515.236 243.721 512.506C232.213 506.677 235.312 496.716 239.074 491.108C245.196 481.737 236.197 471.481 248.442 458.052C253.532 452.592 261.204 450.378 268.433 452.371C289.235 458.421 274.998 476.351 290.563 490.002Z" fill="#233862"/>
<path d="M255.435 517.769C252.41 519.687 220.912 528.837 211.691 527.951C202.323 527.066 175.545 511.644 175.545 511.644L174.66 505.668C174.66 505.668 209.847 518.064 215.453 518.285C221.059 518.507 251.156 504.044 251.156 504.044C260.008 505.963 258.459 515.85 255.435 517.769Z" fill="#ED985F"/>
<path d="M254.47 503.613C254.47 503.613 255.06 503.466 256.092 503.245C256.683 502.58 256.609 499.703 256.387 496.751C256.092 492.914 255.502 488.93 255.502 488.93L268.19 485.462L268.928 485.241C269.518 494.021 272.247 499.703 274.018 501.105C275.05 501.179 276.231 501.252 277.411 501.4C279.329 501.547 281.173 502.138 282.87 503.097C280.583 512.394 274.387 526.044 258.305 522.281C254.543 521.47 251.002 519.994 247.904 517.854C249.601 512.837 251.814 508.114 254.47 503.613Z" fill="#FFB27D"/>
<path d="M268.123 485.442C266.796 489.205 263.476 495.994 256.321 496.732C256.026 492.895 255.436 488.91 255.436 488.91L268.123 485.442Z" fill="#ED985F"/>
<path d="M246.34 471.403C246.93 467.787 248.774 463.582 259.692 463.434C270.609 463.286 268.913 470.517 269.65 481.143C270.388 491.768 253.348 492.653 253.348 492.653C248.922 492.653 245.676 475.018 246.34 471.403Z" fill="#FFB27D"/>
<path d="M246.841 478.072C246.768 475.194 247.358 472.316 248.759 469.734C249.718 467.52 250.972 466.93 251.931 465.897C252.374 467.151 255.546 475.12 264.767 477.186C271.996 478.81 275.02 476.375 275.02 476.375C271.258 473.497 268.603 469.439 267.57 464.864C267.57 464.864 261.005 457.707 252.079 463.536C250.899 462.65 248.833 462.134 246.473 465.454C242.784 470.546 246.841 478.072 246.841 478.072Z" fill="#233862"/>
<path d="M297.144 594.911C296.923 612.251 254.581 578.162 254.581 578.162C254.581 578.162 262.769 563.7 255.539 547.688C246.983 528.725 245.655 525.11 246.54 516.919C241.155 514.632 237.762 509.393 237.762 509.393C237.762 509.393 245.138 504.818 247.868 504.376C250.597 503.859 253.326 503.49 256.056 503.269C254.581 504.376 255.244 505.63 257.015 506.073C257.089 506.073 257.162 506.147 257.236 506.147C260.998 506.884 270.219 500.982 272.653 499.432C280.399 499.137 287.48 499.432 289.251 503.048C294.267 513.156 289.251 544.589 287.702 552.484C285.71 562.519 297.291 581.925 297.144 594.911Z" fill="#EF7A65"/>
<path d="M276.175 587.442C275.658 581.17 244.529 521.403 226.013 522.067C207.498 522.731 213.842 543.982 213.842 543.982C216.424 550.549 225.94 551.582 228.521 557.411C239.365 581.244 241.209 603.601 246.078 610.906C246.299 611.275 246.521 611.57 246.742 611.865C247.996 613.784 250.135 615.038 252.422 615.333C288.42 619.318 276.691 593.566 276.175 587.442Z" fill="#94B0ED"/>
<path d="M188.679 609.21C190.228 608.103 195.096 602.421 196.203 601.093C197.383 601.831 198.711 602.348 200.113 602.495C201.662 602.569 203.137 602.274 204.539 601.61C203.432 603.75 202.842 605.225 204.317 607.882C206.088 610.833 205.055 615.113 205.055 615.113H178.646C179.237 610.021 186.908 610.464 188.679 609.21Z" fill="#0D2644"/>
<path d="M229.8 522.044C236.218 526.323 236.071 543.294 236.071 552.149C236.071 570.374 217.998 593.026 209.146 601.069C207.892 602.249 205.089 604.906 203.392 605.348C203.318 605.348 190.925 602.028 194.466 596.125C205.384 577.752 211.654 540.121 213.203 528.242C213.867 523.52 225.817 519.388 229.8 522.044Z" fill="#94B0ED"/>
<path d="M280.53 512.502L245.564 524.75C245.564 524.75 231.254 544.082 256.261 536.409C281.268 528.735 286.653 517.814 286.653 517.814L280.53 512.502Z" fill="#A75547"/>
<path d="M295.539 587.49C293.548 581.513 258.287 520.123 239.698 520.713C221.109 521.304 231.215 544.104 231.215 544.104C233.797 550.671 241.1 549.859 243.681 555.688C245.157 558.935 246.558 562.181 247.886 565.428C252.165 575.832 255.558 585.867 258.361 594.057C261.09 601.804 261.607 605.42 263.008 610.437C263.525 612.208 264.262 613.905 265.221 615.455C305.719 621.579 297.752 593.983 295.539 587.49Z" fill="#AEC3FF"/>
<path d="M208.03 609.21C209.579 608.103 214.448 602.421 215.555 601.093C216.735 601.831 218.063 602.348 219.464 602.495C221.013 602.569 222.489 602.274 223.89 601.61C222.784 603.75 222.194 605.225 223.669 607.882C225.439 610.833 224.407 615.113 224.407 615.113H197.998C198.588 610.021 206.334 610.464 208.03 609.21Z" fill="#163560"/>
<g opacity="0.5">
<path opacity="0.5" d="M255.503 547.764C251.446 550.567 249.085 557.43 247.979 565.325C252.257 575.728 255.65 585.763 258.453 593.954C265.24 578.016 255.503 547.764 255.503 547.764Z" fill="#94B0ED"/>
</g>
<path d="M229.674 524.658C231.666 521.633 235.649 520.821 238.674 522.813C245.091 527.093 255.492 543.326 255.492 552.254C255.492 570.479 237.42 593.132 228.568 601.174C227.314 602.355 224.51 605.011 222.814 605.454C222.74 605.454 210.347 602.134 213.888 596.231C224.806 577.858 227.092 539.415 228.641 527.462C228.789 526.429 229.084 525.47 229.674 524.658Z" fill="#AEC3FF"/>
<path d="M171.009 490.503C170.124 490.872 169.682 491.905 170.05 492.791L179.935 516.402C180.23 517.066 180.894 517.509 181.632 517.435L208.483 516.328C208.704 516.328 208.852 516.255 208.999 516.181C209.884 515.812 210.327 514.853 210.032 513.967L200.368 488.511C200.073 487.773 199.336 487.33 198.524 487.404L171.526 490.282C171.304 490.356 171.157 490.429 171.009 490.503Z" fill="#A75547"/>
<path d="M168.634 490.752C167.749 491.121 167.307 492.154 167.675 493.04L177.56 516.651C177.855 517.315 178.519 517.758 179.257 517.758L206.108 516.651C206.329 516.651 206.477 516.578 206.624 516.504C207.509 516.135 207.952 515.176 207.657 514.29L197.993 488.834C197.698 488.096 196.961 487.653 196.149 487.727L169.151 490.605C169.003 490.605 168.856 490.679 168.634 490.752Z" fill="#EF7A65"/>
<path d="M186.392 504.155C186.613 504.155 186.835 504.155 186.982 504.008C187.499 503.712 187.72 503.048 187.425 502.532C187.056 501.573 186.171 500.982 185.212 500.909C184.99 500.909 184.769 500.909 184.622 501.056C184.105 501.351 183.884 502.015 184.179 502.532C184.474 503.417 185.359 504.081 186.392 504.155Z" fill="#EBF3FA"/>
<path d="M171.088 493.825C171.162 493.825 171.31 493.825 171.384 493.751C171.679 493.604 171.752 493.309 171.605 493.014C171.457 492.571 171.015 492.202 170.498 492.202C170.425 492.202 170.277 492.202 170.203 492.276C169.908 492.423 169.834 492.792 169.982 493.014C170.13 493.456 170.572 493.751 171.088 493.825Z" fill="#EBF3FA"/>
<path d="M286.658 517.78C283.634 519.699 256.635 529.512 240.702 529.734C232.587 529.808 203.154 510.918 203.154 510.918L205.884 505.753C205.884 505.753 236.128 516.379 239.743 516.6C245.349 516.895 282.822 503.097 282.822 503.097C291.674 504.942 289.683 515.862 286.658 517.78Z" fill="#FFB27D"/>
<path d="M203.17 510.859C203.17 510.859 199.703 509.31 197.048 509.753C194.392 510.195 188.048 509.753 186.72 507.539C185.392 505.325 189.892 503.85 191.515 503.555C193.138 503.259 197.785 501.267 200.515 501.415C203.244 501.562 205.9 505.694 205.9 505.694L203.17 510.859Z" fill="#FFB27D"/>
<path d="M197.599 503.054C197.599 502.685 195.386 501.579 195.017 500.398C194.648 499.217 194.427 498.848 195.607 499.217C196.787 499.586 201.14 501.579 201.14 501.579C201.14 501.579 197.599 503.349 197.599 503.054Z" fill="#FFB27D"/>
<path d="M174.111 509.766C174.701 509.987 175.586 510.135 176.029 505.634C176.25 503.273 177.43 501.428 175.512 499.583C173.595 497.813 171.898 503.494 171.898 503.494C171.308 505.781 173.521 509.618 174.111 509.766Z" fill="#FFB27D"/>
<path d="M174.184 508.355L175.512 511.675C172.857 510.274 171.381 507.322 171.824 504.371L174.184 508.355Z" fill="#FFB27D"/>
<path d="M252.692 488.277C256.011 488.13 256.306 486.359 256.306 486.359C251.806 485.99 250.184 486.654 250.184 486.654C250.552 487.613 251.585 488.277 252.692 488.277Z" fill="white"/>
<path d="M287.968 504.069C297.41 517.055 278.452 522.884 278.452 522.884C266.945 520.449 263.625 509.824 263.625 509.824C278.6 497.059 287.968 504.069 287.968 504.069Z" fill="#EF7A65"/>
<path d="M172.264 503.568C172.338 502.83 172.043 502.092 171.452 501.576C171.01 501.281 171.01 501.502 171.01 501.945C171.01 502.387 171.821 505.044 171.821 505.044C171.969 504.527 172.116 504.084 172.264 503.568Z" fill="#FFB27D"/>
<path d="M405.579 569.15C405.432 567.305 405.211 565.534 404.768 563.763C404.252 561.697 403.44 559.705 402.334 557.934C396.875 548.932 385.884 545.022 375.999 548.637C374.007 549.375 372.163 550.334 370.466 551.589C368.696 552.843 367.147 554.466 365.819 556.237C360.139 563.911 360.139 574.388 365.819 582.062C366.483 582.948 367.221 583.833 367.958 584.571C368.77 585.309 369.581 586.047 370.466 586.711C372.163 587.965 374.007 588.998 375.999 589.662C385.884 593.278 396.875 589.367 402.334 580.365C403.44 578.52 404.252 576.602 404.768 574.536C405.211 572.765 405.432 570.994 405.579 569.15C405.579 569.297 405.579 569.371 405.579 569.519C405.579 569.814 405.579 570.109 405.579 570.552C405.579 571.142 405.506 571.732 405.432 572.249C405.358 573.06 405.211 573.798 404.989 574.536C404.473 576.602 403.661 578.668 402.555 580.513C399.383 586.12 393.85 589.957 387.58 591.212C383.671 591.95 379.613 591.654 375.778 590.252C373.712 589.515 371.794 588.482 370.098 587.227C368.253 585.899 366.631 584.276 365.377 582.505C359.549 574.61 359.549 563.837 365.377 555.942C366.704 554.097 368.327 552.474 370.098 551.22C371.794 549.891 373.712 548.932 375.778 548.194C379.54 546.866 383.597 546.497 387.58 547.235C393.85 548.416 399.383 552.326 402.629 557.86C403.735 559.705 404.547 561.697 405.063 563.837C405.284 564.575 405.432 565.387 405.506 566.124C405.579 566.715 405.653 567.231 405.653 567.822C405.653 568.264 405.653 568.633 405.653 568.855C405.579 568.928 405.579 569.076 405.579 569.15Z" fill="#FF7E66"/>
<path d="M382.597 578.346L371.9 569.196L375.072 565.507L382.228 571.631L393.514 559.973L397.055 563.367L382.597 578.346Z" fill="#FF7E66"/>
<path d="M442.011 527.406H324.87C314.395 527.406 305.838 518.92 305.838 508.369C305.838 497.891 314.395 489.406 324.87 489.406H442.011C452.486 489.406 461.043 497.891 461.043 508.443C460.969 518.92 452.486 527.406 442.011 527.406Z" fill="#FF7E66"/>
<path d="M353.215 503.207H355.059V512.135H353.215V503.207Z" fill="white"/>
<path d="M364.279 512.135V506.749L361.919 511.176H361.107L358.747 506.896V512.135H356.977V503.207H358.526L361.55 508.741L364.501 503.207H366.05V512.135H364.279Z" fill="white"/>
<path d="M375.123 512.135V506.749L372.763 511.176H371.951L369.591 506.896V512.135H367.82V503.207H369.369L372.394 508.741L375.345 503.207H376.894V512.135H375.123Z" fill="white"/>
<path d="M378.738 508.224V503.207H380.582V508.15C380.582 509.848 381.246 510.512 382.353 510.512C383.459 510.512 384.123 509.774 384.123 508.15V503.207H385.967V508.224C385.967 510.881 384.64 512.282 382.353 512.282C380.066 512.282 378.738 510.807 378.738 508.224Z" fill="white"/>
<path d="M395.115 503.207V512.135H393.566L389.582 506.749V512.135H387.738V503.207H389.287L393.271 508.593V503.207H395.115Z" fill="white"/>
<path d="M396.959 503.207H398.803V512.135H396.959V503.207Z" fill="white"/>
<path d="M402.418 504.904H399.836V503.207H406.77V504.904H404.188V512.135H402.344L402.418 504.904Z" fill="white"/>
<path d="M411.491 508.962V512.135H409.647V508.962L406.549 503.207H408.541L410.68 507.191L412.745 503.207H414.589L411.491 508.962Z" fill="white"/>
<path d="M320.824 406.782V413.497H327.537V400.068H320.824V406.782Z" fill="#1E2E34"/>
<path d="M327.537 366.564H320.824V373.278H327.537V366.564Z" fill="#1E2E34"/>
<path d="M368.931 440.34H362.219V447.054H368.931V440.34Z" fill="#1E2E34"/>
<path d="M327.537 379.979V386.693H320.824V393.408H327.537V400.123H340.963V406.837H347.675V400.123H354.388V386.693H347.675V393.408H334.25V373.264H327.537V379.979Z" fill="#1E2E34"/>
<path d="M340.935 366.564H334.223V373.278H347.648V366.564H340.935Z" fill="#1E2E34"/>
<path d="M371.081 420.445H374.696V413.73H367.467V420.445H371.081Z" fill="#1E2E34"/>
<path d="M354.334 373.264H347.621V379.979H354.334V373.264Z" fill="#1E2E34"/>
<path d="M401.224 400.068H394.512V406.782H401.224V400.068Z" fill="#1E2E34"/>
<path d="M407.924 326.361H401.211V333.076H407.924V326.361Z" fill="#1E2E34"/>
<path d="M367.746 379.932V373.218H374.459V366.577H367.746V359.862H361.033V366.577H354.32V373.292H361.033V400.076H367.746V386.647H374.459V379.932H367.746Z" fill="#1E2E34"/>
<path d="M401.224 446.988H407.937V440.274H394.512V446.988H401.224Z" fill="#1E2E34"/>
<path d="M394.525 326.361H387.812V333.076H394.525V326.361Z" fill="#1E2E34"/>
<path d="M392.88 379.993V373.278H386.168V366.564H379.455V379.993H372.742V386.707H386.168V379.993H392.88Z" fill="#1E2E34"/>
<path d="M430.662 366.564H423.949V373.278H430.662V366.564Z" fill="#1E2E34"/>
<path d="M361.223 400.068H354.51V406.782H361.223V400.068Z" fill="#1E2E34"/>
<path d="M387.843 359.847V353.132H394.556V346.418H407.982V339.777H401.269V333.063H394.556V339.777H387.843V346.492H381.131V353.206H374.418V359.921H387.843V359.847Z" fill="#1E2E34"/>
<path d="M387.844 406.796V400.082H394.556V393.367H381.131V400.082H374.418V406.796H387.844Z" fill="#1E2E34"/>
<path d="M407.922 433.596V426.882H394.57V420.167H387.857V426.882H381.144V433.596H367.719V440.311H387.783V433.596H394.496V440.311H401.209V433.596H407.922Z" fill="#1E2E34"/>
<path d="M381.158 333.076V326.361H367.732V333.076H361.02V339.791H374.445V333.076H381.158Z" fill="#1E2E34"/>
<path d="M381.131 339.76H374.418V346.474H381.131V339.76Z" fill="#1E2E34"/>
<path d="M397.877 366.59H391.164V386.66H404.59V379.946H397.877V373.231H404.59V366.517H411.302V359.876H404.59V353.161H397.877V366.59Z" fill="#1E2E34"/>
<path d="M374.432 346.461H367.719V353.175H374.432V346.461Z" fill="#1E2E34"/>
<path d="M394.512 413.484V420.198H407.937V413.484H421.363V406.769H401.224V413.484H394.512Z" fill="#1E2E34"/>
<path d="M430.662 386.666H423.949V393.381H430.662V386.666Z" fill="#1E2E34"/>
<path d="M407.924 393.367H401.211V400.082H407.924V393.367Z" fill="#1E2E34"/>
<path d="M424.687 373.264H411.262V379.979H417.974V386.693H424.687V373.264Z" fill="#1E2E34"/>
<path d="M421.322 393.367H414.609V400.082H421.322V393.367Z" fill="#1E2E34"/>
<path d="M347.649 433.694H367.787V406.762H340.862V413.476H334.297V420.191H340.862V426.905H334.297V433.62H340.862V433.767H341.01V440.334H334.297V453.763H341.01V447.049H347.722L347.649 433.694ZM362.623 411.927V428.676H345.878V411.927H362.623Z" fill="#1E2E34"/>
<path d="M434.735 406.782H441.447V400.068H421.383V406.782H434.735Z" fill="#1E2E34"/>
<path d="M434.707 379.993H441.42V366.564H434.707V379.993Z" fill="#1E2E34"/>
<path d="M381.379 413.73H374.666V427.159H381.379V413.73Z" fill="#1E2E34"/>
<path d="M448.119 406.769H441.406V413.484H448.119V406.769Z" fill="#1E2E34"/>
<path d="M448.119 393.381V386.666H441.406V400.095H448.119V393.381Z" fill="#1E2E34"/>
<path d="M327.537 440.274H320.824V453.703H327.537V440.274Z" fill="#1E2E34"/>
<path d="M448.174 359.857V326.358H414.684V359.857H448.174ZM419.7 354.839V331.375H443.084V354.839H419.7Z" fill="#1E2E34"/>
<path d="M438.086 336.411H424.66V349.84H438.086V336.411Z" fill="#1E2E34"/>
<path d="M448.174 420.171H414.684V453.67H448.174V420.171ZM419.7 448.652V425.188H443.084V448.652H419.7Z" fill="#1E2E34"/>
<path d="M438.086 430.22H424.66V443.65H438.086V430.22Z" fill="#1E2E34"/>
<path d="M320.74 326.361V359.86H354.304V326.361H320.74ZM349.214 331.379V354.843H325.756V331.379H349.214Z" fill="#1E2E34"/>
<path d="M344.217 336.411H330.791V349.84H344.217V336.411Z" fill="#1E2E34"/>
<path d="M311.209 349.746V325.913C311.209 323.699 311.578 321.559 313.127 319.862C314.75 318.018 317.184 317.058 319.619 317.132H344.626C345.068 317.132 345.363 316.763 345.363 316.394C345.363 316.025 345.068 315.656 344.626 315.656H319.914C317.848 315.583 315.709 316.099 313.939 317.132C311.357 318.903 309.734 321.855 309.734 324.954C309.66 328.864 309.734 332.775 309.734 336.686V349.672C309.734 350.115 310.103 350.41 310.472 350.41C310.914 350.41 311.209 350.115 311.209 349.746Z" fill="#FF7E66"/>
<path d="M342.443 464.996H318.69C316.477 464.996 314.338 464.627 312.641 463.078C310.797 461.454 309.838 459.019 309.912 456.584V431.571C309.912 431.128 309.543 430.833 309.1 430.833C308.731 430.833 308.436 431.128 308.362 431.571V456.289C308.289 458.355 308.805 460.495 309.838 462.266C311.608 464.848 314.485 466.472 317.657 466.472C321.567 466.546 325.476 466.472 329.386 466.472H342.443C342.885 466.472 343.18 466.103 343.18 465.734C343.18 465.291 342.885 464.996 342.443 464.996Z" fill="#FF7E66"/>
<path d="M456.949 431.338V455.097C456.949 457.31 456.58 459.45 455.031 461.147C453.408 462.992 450.974 463.951 448.539 463.877H423.533C423.09 463.877 422.795 464.246 422.795 464.615C422.795 464.984 423.09 465.353 423.533 465.353H448.244C450.31 465.427 452.449 464.91 454.219 463.877C456.801 462.107 458.424 459.229 458.424 456.056C458.498 452.145 458.424 448.235 458.424 444.324V431.338C458.424 430.895 458.055 430.6 457.686 430.6C457.318 430.6 456.949 430.895 456.949 431.338Z" fill="#FF7E66"/>
<path d="M423.967 317.175H447.72C449.933 317.175 452.072 317.544 453.768 319.093C455.613 320.717 456.572 323.152 456.498 325.587V350.6C456.498 351.043 456.867 351.338 457.235 351.338C457.604 351.338 457.973 351.043 457.973 350.6V325.808C458.047 323.742 457.53 321.602 456.498 319.831C454.801 317.249 451.85 315.699 448.752 315.625C444.843 315.552 440.933 315.625 437.023 315.625H424.04C423.598 315.625 423.303 315.994 423.303 316.363C423.303 316.806 423.598 317.175 423.967 317.175Z" fill="#FF7E66"/>
<path d="M335.196 255.785V263.754H334.384V260.064H329.368V263.754H328.557V255.785H329.368V259.326H334.384V255.785H335.196Z" fill="#1E2E34"/>
<path d="M343.457 263.015V263.753H337.777V255.784H343.236V256.522H338.589V259.4H342.72V260.138H338.589V263.089L343.457 263.015Z" fill="#1E2E34"/>
<path d="M350.466 261.613H346.039L345.081 263.753H344.195L347.884 255.784H348.695L352.383 263.753H351.424L350.466 261.613ZM350.17 260.949L348.252 256.67L346.335 260.949H350.17Z" fill="#1E2E34"/>
<path d="M353.637 255.784H354.448V263.089H358.948V263.827H353.637V255.784Z" fill="#1E2E34"/>
<path d="M361.236 256.522H358.359V255.784H364.851V256.522H362.048V263.827H361.236V256.522Z" fill="#1E2E34"/>
<path d="M372.891 255.784V263.753H372.079V260.064H367.063V263.753H366.178V255.784H366.989V259.326H372.079V255.784H372.891Z" fill="#1E2E34"/>
<path d="M384.767 258.514C384.767 260.211 383.513 261.244 381.521 261.244H379.382V263.753H378.57V255.784H381.595C383.513 255.784 384.767 256.817 384.767 258.514ZM383.881 258.514C383.881 257.26 383.07 256.522 381.447 256.522H379.308V260.507H381.447C383.07 260.507 383.881 259.769 383.881 258.514Z" fill="#1E2E34"/>
<path d="M391.184 261.613H386.758L385.799 263.753H384.914L388.602 255.784H389.414L393.102 263.753H392.217L391.184 261.613ZM390.889 260.949L388.971 256.67L387.053 260.949H390.889Z" fill="#1E2E34"/>
<path d="M393.619 262.794L393.914 262.13C394.652 262.794 395.611 263.089 396.57 263.089C398.045 263.089 398.709 262.425 398.709 261.687C398.709 259.473 393.767 260.875 393.767 257.85C393.767 256.67 394.652 255.637 396.717 255.637C397.603 255.637 398.488 255.858 399.225 256.374L398.93 257.039C398.266 256.596 397.529 256.374 396.717 256.374C395.242 256.374 394.578 257.039 394.578 257.85C394.578 260.064 399.52 258.736 399.52 261.613C399.52 262.794 398.562 263.827 396.57 263.827C395.537 263.901 394.431 263.532 393.619 262.794Z" fill="#1E2E34"/>
<path d="M400.627 262.794L400.922 262.13C401.66 262.794 402.619 263.089 403.578 263.089C405.053 263.089 405.717 262.425 405.717 261.687C405.791 259.547 400.848 260.875 400.848 257.924C400.848 256.743 401.733 255.71 403.799 255.71C404.684 255.71 405.569 255.932 406.307 256.448L406.012 257.112C405.348 256.67 404.61 256.448 403.799 256.448C402.324 256.448 401.66 257.112 401.66 257.924C401.66 260.137 406.602 258.809 406.602 261.687C406.602 262.868 405.643 263.901 403.651 263.901C402.545 263.901 401.512 263.532 400.627 262.794Z" fill="#1E2E34"/>
<path d="M414.716 258.514C414.716 260.211 413.462 261.244 411.47 261.244H409.331V263.753H408.52V255.784H411.544C413.462 255.784 414.716 256.817 414.716 258.514ZM413.905 258.514C413.905 257.26 413.093 256.522 411.47 256.522H409.331V260.507H411.47C413.019 260.507 413.905 259.769 413.905 258.514Z" fill="#1E2E34"/>
<path d="M415.971 259.769C415.897 257.481 417.741 255.489 420.028 255.415C422.315 255.341 424.306 257.186 424.38 259.473C424.454 261.761 422.61 263.753 420.323 263.827C420.249 263.827 420.249 263.827 420.176 263.827C417.963 263.901 416.045 262.204 415.971 259.99C415.971 259.916 415.971 259.842 415.971 259.769ZM423.495 259.769C423.495 257.924 422.02 256.374 420.176 256.374C418.331 256.374 416.782 257.85 416.782 259.695C416.782 261.539 418.258 263.089 420.102 263.089H420.176C421.946 263.163 423.495 261.761 423.495 259.916C423.495 259.916 423.495 259.842 423.495 259.769Z" fill="#1E2E34"/>
<path d="M431.683 263.753L429.839 261.171C429.618 261.171 429.397 261.171 429.175 261.171H427.036V263.679H426.225V255.784H429.249C431.315 255.784 432.495 256.817 432.495 258.514C432.569 259.695 431.757 260.728 430.651 261.023L432.569 263.753H431.683ZM431.683 258.514C431.683 257.26 430.872 256.522 429.249 256.522H427.11V260.507H429.249C430.798 260.507 431.683 259.769 431.683 258.514Z" fill="#1E2E34"/>
<path d="M435.961 256.522H433.158V255.784H439.65V256.522H436.847V263.827H436.035L435.961 256.522Z" fill="#1E2E34"/>
<path d="M354.939 278.046C354.939 275.095 357.005 272.955 359.734 272.955C361.21 272.881 362.611 273.619 363.496 274.8L361.947 276.423C361.505 275.685 360.693 275.316 359.882 275.242C358.406 275.242 357.448 276.349 357.448 278.046C357.448 279.743 358.48 280.85 359.882 280.85C360.693 280.85 361.505 280.407 361.947 279.669L363.496 281.293C362.611 282.473 361.21 283.211 359.734 283.137C357.005 283.137 354.939 281.071 354.939 278.046Z" fill="#FF7E66"/>
<path d="M364.012 278.046C364.159 275.316 366.446 273.25 369.102 273.398C371.831 273.545 373.896 275.833 373.749 278.489C373.601 281.071 371.462 283.137 368.88 283.137C366.225 283.137 364.012 280.998 364.012 278.341C364.012 278.267 364.012 278.194 364.012 278.046ZM371.315 278.046C371.315 276.349 370.282 275.242 368.954 275.242C367.626 275.242 366.594 276.349 366.594 278.046C366.594 279.743 367.626 280.85 368.954 280.85C370.282 280.85 371.315 279.743 371.315 278.046Z" fill="#FF7E66"/>
<path d="M383.708 273.176L379.946 282.99H377.512L373.75 273.176H376.406L378.766 279.596L381.2 273.176H383.708Z" fill="#FF7E66"/>
<path d="M384.225 273.176H386.733V282.99H384.225V273.176Z" fill="#FF7E66"/>
<path d="M388.504 273.176H392.635C395.364 273.176 397.577 275.39 397.577 278.12C397.577 280.85 395.364 283.064 392.635 283.064H388.504V273.176ZM392.561 280.776C394.036 280.776 395.069 279.817 395.069 278.046C395.069 276.275 394.036 275.316 392.561 275.316H391.012V280.702L392.561 280.776Z" fill="#FF7E66"/>
<path d="M398.609 277.972H402.298V280.038H398.609V277.972Z" fill="#FF7E66"/>
<path d="M406.797 273.176V282.99H404.289V275.316H402.666V273.176H406.797Z" fill="#FF7E66"/>
<path d="M415.354 277.825C415.354 281.219 413.436 283.211 410.707 283.211C409.822 283.211 408.937 282.99 408.125 282.473L409.01 280.481C409.453 280.85 410.043 280.998 410.633 280.998C411.887 280.998 412.699 280.186 412.846 278.71C412.33 279.227 411.592 279.448 410.855 279.448C409.232 279.448 407.83 278.194 407.83 276.57C407.83 276.497 407.83 276.423 407.83 276.349C407.83 274.504 409.232 273.029 411.076 272.955C411.15 272.955 411.223 272.955 411.297 272.955C413.805 272.955 415.354 274.578 415.354 277.825ZM412.699 276.201C412.772 275.537 412.256 275.021 411.592 274.947C411.518 274.947 411.518 274.947 411.445 274.947C410.781 274.947 410.191 275.537 410.264 276.201C410.264 276.866 410.855 277.382 411.445 277.382C412.109 277.382 412.625 276.939 412.699 276.275V276.201Z" fill="#FF7E66"/>
<path d="M473.97 228.681C471.536 228.902 469.028 228.976 466.593 228.902C462.536 228.902 459.217 228.902 459.217 228.755C464.085 228.533 469.028 228.46 473.97 228.681Z" fill="#1E2E34"/>
<path d="M473.999 232.462C471.565 232.683 469.057 232.757 466.623 232.683C462.566 232.683 459.246 232.683 459.246 232.536C464.115 232.314 469.057 232.24 473.999 232.462Z" fill="#1E2E34"/>
<path d="M474.033 236.243C471.598 236.465 469.09 236.539 466.656 236.465C462.599 236.465 459.279 236.465 459.279 236.317C461.714 236.17 464.148 236.096 466.656 236.096C470.713 236.096 474.033 236.096 474.033 236.243Z" fill="#1E2E34"/>
<path d="M416.054 264.785C415.907 264.712 415.833 264.638 415.685 264.564C413.989 263.531 412.071 263.531 410.3 262.129C407.055 259.473 404.104 242.576 404.104 242.576L394.293 244.273C394.293 244.273 401.079 265.523 401.522 270.172C402.038 275.853 402.629 277.698 400.416 281.535C400.194 281.978 399.899 282.42 399.678 282.789C399.604 282.937 399.457 283.084 399.383 283.232C397.465 286.405 395.768 289.282 396.58 289.651C397.612 290.168 401.08 290.02 406.243 284.708C410.743 279.985 409.784 279.469 412.292 277.182C412.366 277.108 412.366 277.108 412.44 277.034L412.661 276.886C412.956 276.665 413.251 276.37 413.546 276.149C416.202 274.009 418.562 271.869 419.226 269.877C419.669 268.917 419.447 267.737 418.71 266.999C417.898 266.114 417.013 265.376 416.054 264.785Z" fill="#FFC49C"/>
<path d="M416.055 264.759C415.907 264.685 415.834 264.611 415.686 264.537C413.621 267.489 411.555 272.506 408.457 276.491C406.023 279.516 402.924 281.803 399.31 283.205C397.392 286.378 395.695 289.256 396.507 289.625C397.539 290.141 401.006 289.994 406.17 284.681C410.67 279.959 409.711 279.442 412.219 277.155C412.293 277.081 412.293 277.081 412.366 277.007L412.588 276.86C412.883 276.638 413.178 276.343 413.473 276.048C416.055 273.908 418.342 271.768 419.153 269.85C419.596 268.891 419.374 267.71 418.637 266.972C417.899 266.087 417.014 265.349 416.055 264.759Z" fill="#233862"/>
<path d="M339.525 257.515C339.377 255.523 339.303 253.014 340.483 251.096C342.401 247.849 347.344 240.323 347.344 240.323L337.902 239.585C337.902 239.585 332.59 247.997 329.05 250.063C325.288 252.276 322.263 254.933 318.206 255.449C317.763 255.523 317.321 255.597 316.804 255.597C313.19 256.04 309.797 256.335 309.944 257.22C310.165 258.253 312.231 260.836 319.091 261.573C325.951 262.311 324.845 260.909 329.64 262.09C334.435 263.271 338.787 263.787 339.377 260.762C339.598 259.729 339.672 258.622 339.525 257.515Z" fill="#FFC49C"/>
<path d="M339.423 260.754C339.571 259.721 339.645 258.615 339.497 257.508C336.251 257.434 331.309 258.762 326.662 258.688C323.195 258.541 319.728 257.508 316.777 255.589V255.516C313.162 255.958 309.769 256.253 309.917 257.139C310.138 258.172 312.204 260.754 319.064 261.492C325.924 262.23 324.818 260.828 329.612 262.009C334.555 263.337 338.833 263.78 339.423 260.754Z" fill="#233862"/>
<path d="M393.655 188.275C395.573 190.489 397.269 194.473 398.819 199.343C404.794 218.454 407.966 251.731 407.966 251.731C406.121 252.912 404.13 253.871 402.064 254.609C400.073 255.125 398.007 255.347 395.942 255.199L384.434 224.209L375.582 200.45C375.582 200.45 384.434 177.355 393.655 188.275Z" fill="#A75547"/>
<path d="M332.463 244.79C333.348 245.749 334.528 246.487 335.782 246.856C337.995 247.668 343.454 247.668 343.454 247.668C343.454 247.668 378.788 217.415 382.993 208.561C387.198 199.707 388.968 190.779 392.952 192.181C416.188 200.371 431.31 208.118 453.662 206.716C461.628 206.2 466.866 200.666 467.825 196.386C471.734 178.973 462.514 157.944 462.514 157.944L426.737 160.748L424.524 164.437C423.786 165.691 422.311 166.282 420.909 166.06C405.271 163.035 390.075 160.969 384.542 162.74C371.559 166.946 332.463 244.79 332.463 244.79Z" fill="#FF725E"/>
<path d="M427.043 111.533C439.805 118.543 465.623 133.079 465.697 133.005C465.697 133.005 475.213 136.546 480.598 133.005C489.597 127.028 494.392 111.016 477.942 97.2185C469.754 90.3563 463.927 88.6593 463.041 77.6651C462.525 71.6884 454.411 51.9875 440.838 53.8322C439.731 53.9798 432.723 54.2749 428.15 56.7098C416.568 62.8341 407.938 108.877 427.043 111.533Z" fill="#233862"/>
<path d="M437.664 98.6336C437.074 94.6492 436.115 90.5172 436.115 90.5172L449.098 85.8686L449.836 85.5735C451.385 95.9773 453.377 97.5268 455.147 97.6006C455.221 97.6006 452.196 104.168 448.213 105.938C444.008 107.783 437.664 105.643 437.738 105.643C438.402 105.127 438.181 101.954 437.664 98.6336Z" fill="#FFB27D"/>
<path d="M449.065 85.8517C448.033 89.9099 444.934 96.1818 437.484 97.5099C436.746 93.4517 436.156 90.5002 436.156 90.5002L449.065 85.8517Z" fill="#ED975D"/>
<path d="M425.124 72.9864C425.492 69.1495 427.041 64.6485 438.402 63.6155C449.762 62.5825 448.581 70.2563 450.278 81.3242C451.975 92.3921 434.197 94.6795 434.197 94.6795C429.55 94.9746 424.755 76.7495 425.124 72.9864Z" fill="#FFB27D"/>
<path d="M443.65 62.7159C445.642 62.8635 447.338 64.1179 448.15 65.8887C449.846 69.6518 452.354 72.9722 455.453 75.7761C455.453 75.7761 452.502 78.2848 444.83 77.4732C437.158 76.6615 425.725 66.9217 425.725 66.9217C427.716 62.0519 438.191 62.2732 443.65 62.7159Z" fill="#233862"/>
<path d="M424.712 66.7293C421.319 72.337 427.22 83.8477 427.22 83.8477C426.335 81.3389 426.63 75.0671 427.81 72.4108C428.991 69.6807 432.827 65.9914 432.827 65.9914C432.827 65.9914 428.253 60.8264 424.712 66.7293Z" fill="#233862"/>
<path d="M437.658 98.6049C437.658 98.6049 438.838 106.057 453.813 97.203C454.329 96.9078 460.231 105.615 465.911 116.387C472.181 128.267 470.484 130.776 468.714 138.154C468.419 139.482 468.124 140.737 467.902 141.917C465.763 152.69 467.607 154.904 465.026 161.913C464.288 163.979 444.961 165.75 433.97 165.012C431.536 164.939 429.101 164.422 426.888 163.463C423.642 161.913 421.429 163.684 422.831 131.661C423.569 114.248 437.658 98.6049 437.658 98.6049Z" fill="#AEC3FF"/>
<path d="M398.818 199.358C404.793 218.468 407.965 251.746 407.965 251.746C406.121 252.926 404.129 253.886 402.064 254.624C400.072 255.14 398.007 255.361 395.941 255.214L384.434 224.224L398.818 199.358Z" fill="#FF725E"/>
<path d="M431.995 117.735C431.995 117.735 422.996 147.692 419.381 151.307C415.767 154.923 407.947 153.521 407.947 153.521C407.947 153.521 418.57 114.488 420.414 107.847C422.258 101.207 437.675 98.624 437.675 98.624L431.995 117.735Z" fill="#AEC3FF"/>
<path d="M436.12 160.106C438.48 156.416 453.676 152.358 458.619 148.005C463.561 143.651 462.602 126.976 462.602 126.976L467.913 141.881C465.774 152.653 467.618 154.867 465.036 161.877C464.299 163.943 444.972 165.713 433.98 164.976C434.349 163.279 435.087 161.581 436.12 160.106Z" fill="#94B0ED"/>
<path d="M445.64 162.758C445.64 162.758 442.468 163.643 437.378 161.946C436.198 161.503 433.69 160.692 432.804 160.913C431.329 161.282 426.903 163.422 427.493 162.241C428.083 161.061 432.288 157.519 434.059 156.56C435.829 155.6 446.673 158.035 446.673 158.035L445.64 162.758Z" fill="#FFB27D"/>
<path d="M458.487 124.353C458.487 127.748 473.609 148.481 472.502 149.588C471.396 150.695 447.127 154.606 445.577 157.041C444.028 159.476 445.135 164.493 445.135 164.493C445.135 164.493 477.371 169.142 486.518 162.87C494.558 157.262 480.543 115.056 473.387 105.169C468.371 98.0855 453.839 97.2001 453.839 97.2001C453.839 97.2001 458.487 121.033 458.487 124.353Z" fill="#AEC3FF"/>
<path d="M430.729 160.396L429.18 163.126C429.622 163.126 430.065 163.052 430.434 162.831C431.171 162.462 433.458 159.584 433.458 159.584L430.729 160.396Z" fill="#FFB27D"/>
<path d="M431.313 159.442C430.355 159.811 429.396 160.033 428.437 160.254C427.994 160.328 427.625 160.18 427.33 159.811L433.969 156.638L431.313 159.442Z" fill="#FFB27D"/>
<path d="M414.643 128.245H362.416L378.128 167.352H430.429L414.643 128.245Z" fill="#2B478B"/>
<path d="M378.145 167.384H446.527V165.834H377.555L378.145 167.384Z" fill="#2B478B"/>
<path d="M394.574 150.258C394.869 150.258 395.091 150.258 395.386 150.111C396.345 149.742 396.787 148.709 396.345 147.749C395.902 146.421 394.574 145.388 393.099 145.314C392.878 145.314 392.583 145.314 392.361 145.462C391.402 145.831 390.96 146.864 391.329 147.823C391.771 149.225 393.099 150.184 394.574 150.258Z" fill="#EBF3FA"/>
<path d="M0.958967 617.043C0.4426 617.043 0 616.6 0 616.084V615.641C0 615.124 0.4426 614.682 0.958967 614.682H790.041C790.557 614.682 791 615.124 791 615.641V616.084C791 616.6 790.557 617.043 790.041 617.043H0.958967Z" fill="#2E3552"/>
</g>
<defs>
<clipPath id="clip0">
<rect width="791" height="617" fill="white"/>
</clipPath>
</defs>
</svg>
