<svg xmlns="http://www.w3.org/2000/svg" xmlns:xlink="http://www.w3.org/1999/xlink" width="99" height="98" viewBox="0 0 99 98">
  <defs>
    <linearGradient id="linear-gradient" y1="0.5" x2="1" y2="0.5" gradientUnits="objectBoundingBox">
      <stop offset="0" stop-color="#008cff"/>
      <stop offset="1" stop-color="#00c8ff"/>
    </linearGradient>
  </defs>
  <g id="Grupo_1108" data-name="Grupo 1108" transform="translate(-256 -262)">
    <rect id="Ret창ngulo_235" data-name="Ret창ngulo 235" width="99" height="98" rx="49" transform="translate(256 262)" fill="url(#linear-gradient)"/>
    <g id="Grupo_712" data-name="Grupo 712" transform="translate(273 279)">
      <g id="Grupo_697" data-name="Grupo 697" transform="translate(0 0)">
        <path id="Caminho_793" data-name="Caminho 793" d="M925.551,472.774l-1.437,1.437L922.1,472.2a1.572,1.572,0,1,0-2.224,2.223l2.012,2.012-1.229,1.229-2.013-2.012a1.572,1.572,0,1,0-2.223,2.224l2.012,2.012-1.229,1.23-2.012-2.013a1.572,1.572,0,0,0-2.223,2.223l2.012,2.012-1.23,1.23-2.012-2.013a1.572,1.572,0,0,0-2.223,2.223l2.012,2.012-2.334,2.334-8.26-8.261,16.354-16.354a.845.845,0,0,1,1.165,0l7.1,7.1a.826.826,0,0,1,0,1.165Zm1.664-3.948.9-.9a2.465,2.465,0,0,0,0-3.482l-.579-.58,9.578-9.578a.943.943,0,1,0-1.334-1.334l-9.578,9.578-.579-.579a2.464,2.464,0,0,0-3.483,0l-.9.9-.56-.56a3.966,3.966,0,0,0-5.611,0L898.689,478.67A2.783,2.783,0,0,0,895,478.9a2.812,2.812,0,0,0,0,3.972l3.379,3.379-20.76,20.759-2.253-2.253a1.572,1.572,0,0,0-2.224,2.223l9.942,9.942a1.572,1.572,0,1,0,2.224-2.223l-2.253-2.252,20.759-20.76,3.379,3.379a2.8,2.8,0,0,0,4.2-3.691L921.771,481h0v0l3.45-3.45h0v0L927.775,475a3.972,3.972,0,0,0,0-5.612l-.559-.56Z" transform="translate(-872.68 -452.68)" fill="#fff"/>
        <path id="Caminho_794" data-name="Caminho 794" d="M955.518,531.523a28.884,28.884,0,0,0-1.483-8.028l-4.981,5.367a12.511,12.511,0,0,1,.427,2.661,19.939,19.939,0,0,1-19.916,19.916,22.846,22.846,0,0,1-9.016-1.85l-4.385,4.531a28.311,28.311,0,0,0,13.4,3.356A25.982,25.982,0,0,0,955.518,531.523Z" transform="translate(-900.053 -497.257)" fill="#fff"/>
        <path id="Caminho_795" data-name="Caminho 795" d="M886.689,515.519l4.325-4.469a19.9,19.9,0,0,1,17.223-29.9,25.985,25.985,0,0,1,4.735.609l4.955-4.826a29.3,29.3,0,0,0-9.69-1.82,25.941,25.941,0,0,0-21.548,40.4Z" transform="translate(-878.726 -466.803)" fill="#fff"/>
      </g>
    </g>
    <rect id="Ret창ngulo_236" data-name="Ret창ngulo 236" width="99" height="98" rx="49" transform="translate(256 262)" fill="url(#linear-gradient)"/>
    <g id="Grupo_713" data-name="Grupo 713" transform="translate(273 279)">
      <g id="Grupo_697-2" data-name="Grupo 697" transform="translate(0 0)">
        <path id="Caminho_793-2" data-name="Caminho 793" d="M925.551,472.774l-1.437,1.437L922.1,472.2a1.572,1.572,0,1,0-2.224,2.223l2.012,2.012-1.229,1.229-2.013-2.012a1.572,1.572,0,1,0-2.223,2.224l2.012,2.012-1.229,1.23-2.012-2.013a1.572,1.572,0,0,0-2.223,2.223l2.012,2.012-1.23,1.23-2.012-2.013a1.572,1.572,0,0,0-2.223,2.223l2.012,2.012-2.334,2.334-8.26-8.261,16.354-16.354a.845.845,0,0,1,1.165,0l7.1,7.1a.826.826,0,0,1,0,1.165Zm1.664-3.948.9-.9a2.465,2.465,0,0,0,0-3.482l-.579-.58,9.578-9.578a.943.943,0,1,0-1.334-1.334l-9.578,9.578-.579-.579a2.464,2.464,0,0,0-3.483,0l-.9.9-.56-.56a3.966,3.966,0,0,0-5.611,0L898.689,478.67A2.783,2.783,0,0,0,895,478.9a2.812,2.812,0,0,0,0,3.972l3.379,3.379-20.76,20.759-2.253-2.253a1.572,1.572,0,0,0-2.224,2.223l9.942,9.942a1.572,1.572,0,1,0,2.224-2.223l-2.253-2.252,20.759-20.76,3.379,3.379a2.8,2.8,0,0,0,4.2-3.691L921.771,481h0v0l3.45-3.45h0v0L927.775,475a3.972,3.972,0,0,0,0-5.612l-.559-.56Z" transform="translate(-872.68 -452.68)" fill="#fff"/>
        <path id="Caminho_794-2" data-name="Caminho 794" d="M955.518,531.523a28.884,28.884,0,0,0-1.483-8.028l-4.981,5.367a12.511,12.511,0,0,1,.427,2.661,19.939,19.939,0,0,1-19.916,19.916,22.846,22.846,0,0,1-9.016-1.85l-4.385,4.531a28.311,28.311,0,0,0,13.4,3.356A25.982,25.982,0,0,0,955.518,531.523Z" transform="translate(-900.053 -497.257)" fill="#fff"/>
        <path id="Caminho_795-2" data-name="Caminho 795" d="M886.689,515.519l4.325-4.469a19.9,19.9,0,0,1,17.223-29.9,25.985,25.985,0,0,1,4.735.609l4.955-4.826a29.3,29.3,0,0,0-9.69-1.82,25.941,25.941,0,0,0-21.548,40.4Z" transform="translate(-878.726 -466.803)" fill="#fff"/>
      </g>
    </g>
  </g>
</svg>
