<svg width="49" height="16" viewBox="0 0 49 16" fill="none" xmlns="http://www.w3.org/2000/svg">
<path d="M12.3856 4.70959L12.0489 5.04628L11.5777 4.57512C11.5087 4.50606 11.415 4.46725 11.3173 4.46725C11.2197 4.46725 11.126 4.50606 11.0569 4.57512C10.9878 4.64419 10.949 4.73786 10.949 4.83554C10.949 4.93321 10.9878 5.02688 11.0569 5.09594L11.5281 5.56746L11.24 5.85555L10.7685 5.38403C10.6994 5.31497 10.6057 5.27616 10.5081 5.27616C10.4104 5.27616 10.3167 5.31497 10.2477 5.38403C10.1786 5.4531 10.1398 5.54678 10.1398 5.64445C10.1398 5.74213 10.1786 5.83579 10.2477 5.90486L10.7188 6.37637L10.4307 6.66446L9.9592 6.19295C9.89013 6.12388 9.79648 6.08509 9.69881 6.08509C9.60113 6.08509 9.50746 6.12388 9.43839 6.19295C9.36932 6.26201 9.33051 6.35569 9.33051 6.45336C9.33051 6.55104 9.36932 6.6447 9.43839 6.71377L9.90955 7.18528L9.62146 7.47337L9.1503 7.00186C9.11612 6.96759 9.07554 6.9404 9.03085 6.92181C8.98617 6.90323 8.93826 6.89363 8.88986 6.89357C8.84146 6.8935 8.79352 6.90297 8.74878 6.92142C8.70405 6.93988 8.66339 6.96698 8.62912 7.00116C8.59485 7.03533 8.56765 7.07591 8.54906 7.1206C8.53048 7.16529 8.52089 7.2132 8.52083 7.26159C8.52076 7.30999 8.53021 7.35792 8.54867 7.40266C8.56713 7.4474 8.59423 7.48807 8.62841 7.52234L9.09956 7.99384L8.55283 8.54057L6.61783 6.60556L10.4495 2.77387C10.4863 2.73888 10.5352 2.71937 10.5859 2.71937C10.6367 2.71937 10.6855 2.73888 10.7223 2.77387L12.3845 4.43605C12.4206 4.47228 12.4408 4.52133 12.4408 4.57246C12.4408 4.62359 12.4206 4.67265 12.3845 4.70888L12.3856 4.70959ZM12.7759 3.78466L12.9859 3.57462C13.094 3.46638 13.1548 3.31963 13.1548 3.16662C13.1548 3.01361 13.094 2.86686 12.9859 2.75862L12.85 2.62274L15.0937 0.379065C15.1146 0.358625 15.1312 0.334238 15.1426 0.307323C15.154 0.280409 15.16 0.251498 15.1602 0.222265C15.1603 0.193031 15.1547 0.164062 15.1436 0.137022C15.1325 0.109982 15.1161 0.0854111 15.0954 0.0647394C15.0748 0.0440677 15.0502 0.0277027 15.0232 0.0165908C14.9961 0.00547882 14.9671 -0.000159948 14.9379 3.45215e-06C14.9087 0.000166852 14.8798 0.00613004 14.8528 0.0175436C14.8259 0.0289571 14.8015 0.0455919 14.7811 0.0664934L12.5374 2.31016L12.4016 2.17428C12.2933 2.06613 12.1466 2.00538 11.9935 2.00538C11.8405 2.00538 11.6938 2.06613 11.5856 2.17428L11.3759 2.38396L11.2446 2.25269C11.0704 2.07885 10.8343 1.98121 10.5882 1.98121C10.3421 1.98121 10.1061 2.07885 9.93189 2.25269L6.09276 6.09041C5.96702 5.99196 5.8095 5.94311 5.65012 5.95311C5.49074 5.96312 5.34058 6.0313 5.22814 6.1447C5.10484 6.26817 5.03559 6.43551 5.03559 6.61C5.03559 6.78449 5.10484 6.95184 5.22814 7.0753L6.01965 7.86683L1.15661 12.7299L0.628693 12.2023C0.559627 12.1333 0.465951 12.0945 0.368277 12.0945C0.270603 12.0945 0.176927 12.1333 0.107861 12.2023C0.0387949 12.2714 0 12.3651 0 12.4627C0 12.5604 0.0387949 12.6541 0.107861 12.7231L2.43667 15.0523C2.47086 15.0865 2.51147 15.1136 2.55615 15.1322C2.60084 15.1507 2.64872 15.1602 2.69708 15.1602C2.74545 15.1602 2.79335 15.1507 2.83803 15.1322C2.88271 15.1136 2.9233 15.0865 2.9575 15.0523C2.9917 15.0181 3.01883 14.9775 3.03734 14.9328C3.05585 14.8882 3.06536 14.8403 3.06536 14.7919C3.06536 14.7435 3.05585 14.6957 3.03734 14.651C3.01883 14.6063 2.9917 14.5657 2.9575 14.5315L2.42993 14.0039L7.293 9.14086L8.08451 9.9324C8.20225 10.0511 8.36085 10.1204 8.52793 10.1261C8.69501 10.1319 8.85799 10.0737 8.9836 9.96334C9.10922 9.85303 9.18802 9.69893 9.20389 9.53251C9.21977 9.36608 9.17154 9.19986 9.06905 9.06778L11.4997 6.63715L12.3079 5.82894L12.9046 5.23218C13.0787 5.05773 13.1764 4.82137 13.1764 4.57495C13.1764 4.32853 13.0787 4.09216 12.9046 3.9177L12.7734 3.78643L12.7759 3.78466Z" fill="white"/>
<path d="M12.993 8.03075C12.9668 7.39068 12.8499 6.75758 12.6457 6.15039L11.4788 7.40741C11.5345 7.6111 11.568 7.82022 11.5788 8.03112C11.5774 9.26804 11.0854 10.4539 10.2108 11.3285C9.33617 12.2032 8.15031 12.6951 6.91339 12.6965C6.18728 12.6969 5.46869 12.5495 4.80135 12.2634L3.77246 13.3249C4.73787 13.8421 5.81637 14.1122 6.91162 14.1111C8.52392 14.1098 10.0698 13.4688 11.21 12.3288C12.3501 11.1888 12.9914 9.64305 12.993 8.03075Z" fill="white"/>
<path d="M1.86549 11.4149L2.87839 10.3679C2.46651 9.65916 2.24881 8.85428 2.24725 8.03451C2.24569 7.21473 2.46033 6.40905 2.86952 5.6987C3.2787 4.98835 3.86796 4.39845 4.57788 3.98851C5.28779 3.57856 6.09325 3.36307 6.91303 3.36375C7.2864 3.37692 7.65778 3.42442 8.02245 3.50567L9.18295 2.37496C8.45557 2.10574 7.68783 1.9618 6.91233 1.94922C5.81046 1.94872 4.72917 2.24782 3.7842 2.81452C2.83923 3.38122 2.06613 4.1942 1.54762 5.16645C1.02911 6.1387 0.784715 7.23364 0.840581 8.3341C0.896447 9.43455 1.25047 10.4991 1.86477 11.4139L1.86549 11.4149Z" fill="white"/>
<path d="M23.7814 9.821C23.8299 9.82011 23.8781 9.82955 23.9227 9.84871C23.9673 9.86786 24.0073 9.89629 24.04 9.9321L24.7736 10.7149C24.4183 11.1702 23.9555 11.5303 23.4267 11.7627C22.8208 12.0145 22.1688 12.1364 21.5128 12.1202C20.8939 12.13 20.2795 12.0137 19.7071 11.7783C19.1901 11.5622 18.7256 11.2374 18.3451 10.826C17.9633 10.4066 17.6697 9.9147 17.4819 9.37955C17.1425 8.38188 17.0882 7.30931 17.3251 6.28246C17.416 5.89657 17.5581 5.52455 17.7475 5.17624C17.929 4.84384 18.154 4.537 18.4163 4.26382C18.6773 3.99218 18.9751 3.75849 19.3009 3.56955C19.6378 3.37508 19.9997 3.2277 20.3765 3.13156C20.7825 3.02877 21.1999 2.97803 21.6187 2.98056C21.932 2.97913 22.2448 3.00799 22.5525 3.06676C22.8338 3.1207 23.1093 3.2013 23.3752 3.30745C23.623 3.40644 23.8596 3.53134 24.0811 3.68006C24.2899 3.82043 24.4848 3.98045 24.6631 4.15795L24.0406 5.00845C24.0019 5.06359 23.954 5.11156 23.8988 5.1502C23.8291 5.19487 23.7472 5.21652 23.6645 5.2121C23.5566 5.209 23.4522 5.17241 23.366 5.10738C23.2653 5.03757 23.1421 4.96043 22.9963 4.87596C22.8226 4.77866 22.6386 4.70104 22.4478 4.64453C22.1763 4.56788 21.8949 4.53258 21.6129 4.53981C21.2595 4.53561 20.909 4.60475 20.5836 4.74288C20.2747 4.87603 19.9998 5.07716 19.7794 5.33129C19.5441 5.60849 19.3671 5.9302 19.2587 6.27726C19.1296 6.68997 19.0671 7.12063 19.0736 7.55301C19.0665 7.98963 19.1342 8.42423 19.2738 8.83801C19.3923 9.18837 19.5787 9.51197 19.8222 9.79033C20.0469 10.0438 20.3246 10.2447 20.6357 10.3787C20.9501 10.5131 21.2889 10.5813 21.6308 10.5789C21.8212 10.5801 22.0115 10.5699 22.2007 10.5483C22.362 10.5297 22.521 10.4946 22.6752 10.4435C22.8194 10.3952 22.9579 10.3312 23.0883 10.2526C23.228 10.1669 23.3592 10.0679 23.4799 9.95698C23.5236 9.92093 23.5711 9.88988 23.6217 9.8644C23.6707 9.83751 23.7255 9.82263 23.7814 9.821Z" fill="white"/>
<path d="M28.9086 12.0211H27.0474V3.07812H28.9086V12.0211Z" fill="white"/>
<path d="M39.8442 3.07866L36.2449 12.0216H34.5671L30.9678 3.07866H32.4593C32.5989 3.07293 32.7365 3.11363 32.8505 3.19438C32.9507 3.26969 33.0285 3.37091 33.0755 3.48714L35.0109 8.63988C35.0845 8.83273 35.1574 9.04334 35.2295 9.27168C35.3017 9.50002 35.3684 9.73936 35.4297 9.98969C35.483 9.73897 35.5408 9.49964 35.6033 9.27168C35.6658 9.04372 35.7346 8.83312 35.8098 8.63988L37.733 3.48714C37.7803 3.3762 37.8557 3.27948 37.9517 3.20653C38.0636 3.12002 38.2021 3.07541 38.3434 3.0804L39.8442 3.07866Z" fill="white"/>
<path d="M49 12.0209H47.5641C47.4243 12.0267 47.2865 11.986 47.1724 11.9052C47.072 11.8299 46.9942 11.7287 46.9473 11.6124L46.3433 9.90505H42.781L42.177 11.6124C42.1301 11.7228 42.0557 11.8194 41.9611 11.893C41.8507 11.9797 41.7132 12.0244 41.5729 12.0191H40.1265L43.6211 3.07617H45.513L49 12.0209ZM45.8937 8.62466L44.9263 5.88804C44.8688 5.74416 44.8083 5.57559 44.7447 5.38235C44.681 5.18911 44.6205 4.97967 44.563 4.75402C44.5055 4.98545 44.4449 5.1976 44.3813 5.39046C44.3176 5.58331 44.2571 5.75283 44.1996 5.89902L43.2381 8.62293L45.8937 8.62466Z" fill="white"/>
</svg>
