<svg xmlns="http://www.w3.org/2000/svg" width="200.39" height="200.39" viewBox="0 0 200.39 200.39">
  <g id="Grupo_1121" data-name="Grupo 1121" transform="translate(983.723 3727.468)">
    <g id="Grupo_1120" data-name="Grupo 1120" transform="translate(-983.723 -3727.468)">
      <ellipse id="_12321" data-name="12321" cx="100.195" cy="100.195" rx="100.195" ry="100.195" transform="translate(0 0)" fill="#fff"/>
    </g>
    <g id="_709722" data-name="709722" transform="translate(-935.723 -3683.922)">
      <g id="Grupo_8" data-name="Grupo 8" transform="translate(22.162 0)">
        <g id="Grupo_7" data-name="Grupo 7">
          <path id="Caminho_12" data-name="Caminho 12" d="M141.4,0a30.609,30.609,0,1,0,30.609,30.609A30.69,30.69,0,0,0,141.4,0Z" transform="translate(-110.791)" fill="#d2d2d2"/>
        </g>
      </g>
      <g id="Grupo_10" data-name="Grupo 10" transform="translate(0 63.407)">
        <g id="Grupo_9" data-name="Grupo 9">
          <path id="Caminho_13" data-name="Caminho 13" d="M129.465,270.111a28.541,28.541,0,0,0-3.074-5.614,38.046,38.046,0,0,0-26.331-16.574,5.635,5.635,0,0,0-3.876.935,32.626,32.626,0,0,1-38.495,0,5.016,5.016,0,0,0-3.876-.935A37.77,37.77,0,0,0,27.481,264.5a32.915,32.915,0,0,0-3.074,5.614,2.842,2.842,0,0,0,.134,2.539A53.272,53.272,0,0,0,28.149,278a50.78,50.78,0,0,0,6.149,6.951,80.14,80.14,0,0,0,6.149,5.347,60.953,60.953,0,0,0,72.712,0,58.8,58.8,0,0,0,6.149-5.347A61.688,61.688,0,0,0,125.456,278a46.821,46.821,0,0,0,3.609-5.346A2.28,2.28,0,0,0,129.465,270.111Z" transform="translate(-24.165 -247.841)" fill="#d2d2d2"/>
        </g>
      </g>
    </g>
  </g>
</svg>
