<svg width="232" height="232" viewBox="0 0 232 232" fill="none" xmlns="http://www.w3.org/2000/svg">
<path d="M59.872 198.432C59.872 199.328 59.656 200.168 59.224 200.952C58.808 201.736 58.144 202.368 57.232 202.848C56.336 203.328 55.2 203.568 53.824 203.568H51.016V210H47.656V193.248H53.824C55.12 193.248 56.224 193.472 57.136 193.92C58.048 194.368 58.728 194.984 59.176 195.768C59.64 196.552 59.872 197.44 59.872 198.432ZM53.68 200.856C54.608 200.856 55.296 200.648 55.744 200.232C56.192 199.8 56.416 199.2 56.416 198.432C56.416 196.8 55.504 195.984 53.68 195.984H51.016V200.856H53.68ZM74.2576 203.064C74.2576 203.544 74.2256 203.976 74.1616 204.36H64.4416C64.5216 205.32 64.8576 206.072 65.4496 206.616C66.0416 207.16 66.7696 207.432 67.6336 207.432C68.8816 207.432 69.7696 206.896 70.2976 205.824H73.9216C73.5376 207.104 72.8016 208.16 71.7136 208.992C70.6256 209.808 69.2896 210.216 67.7056 210.216C66.4256 210.216 65.2736 209.936 64.2496 209.376C63.2416 208.8 62.4496 207.992 61.8736 206.952C61.3136 205.912 61.0336 204.712 61.0336 203.352C61.0336 201.976 61.3136 200.768 61.8736 199.728C62.4336 198.688 63.2176 197.888 64.2256 197.328C65.2336 196.768 66.3936 196.488 67.7056 196.488C68.9696 196.488 70.0976 196.76 71.0896 197.304C72.0976 197.848 72.8736 198.624 73.4176 199.632C73.9776 200.624 74.2576 201.768 74.2576 203.064ZM70.7776 202.104C70.7616 201.24 70.4496 200.552 69.8416 200.04C69.2336 199.512 68.4896 199.248 67.6096 199.248C66.7776 199.248 66.0736 199.504 65.4976 200.016C64.9376 200.512 64.5936 201.208 64.4656 202.104H70.7776ZM83.7181 196.512C85.3021 196.512 86.5821 197.016 87.5581 198.024C88.5341 199.016 89.0221 200.408 89.0221 202.2V210H85.6621V202.656C85.6621 201.6 85.3981 200.792 84.8701 200.232C84.3421 199.656 83.6221 199.368 82.7101 199.368C81.7821 199.368 81.0461 199.656 80.5021 200.232C79.9741 200.792 79.7101 201.6 79.7101 202.656V210H76.3501V196.704H79.7101V198.36C80.1581 197.784 80.7261 197.336 81.4141 197.016C82.1181 196.68 82.8861 196.512 83.7181 196.512ZM96.9452 210.216C95.8572 210.216 94.8812 210.024 94.0172 209.64C93.1532 209.24 92.4652 208.704 91.9532 208.032C91.4572 207.36 91.1852 206.616 91.1372 205.8H94.5212C94.5852 206.312 94.8332 206.736 95.2652 207.072C95.7132 207.408 96.2652 207.576 96.9212 207.576C97.5612 207.576 98.0572 207.448 98.4092 207.192C98.7772 206.936 98.9612 206.608 98.9612 206.208C98.9612 205.776 98.7372 205.456 98.2892 205.248C97.8572 205.024 97.1612 204.784 96.2012 204.528C95.2092 204.288 94.3932 204.04 93.7532 203.784C93.1292 203.528 92.5852 203.136 92.1212 202.608C91.6732 202.08 91.4492 201.368 91.4492 200.472C91.4492 199.736 91.6572 199.064 92.0732 198.456C92.5052 197.848 93.1132 197.368 93.8972 197.016C94.6972 196.664 95.6332 196.488 96.7052 196.488C98.2892 196.488 99.5532 196.888 100.497 197.688C101.441 198.472 101.961 199.536 102.057 200.88H98.8412C98.7932 200.352 98.5692 199.936 98.1692 199.632C97.7852 199.312 97.2652 199.152 96.6092 199.152C96.0012 199.152 95.5292 199.264 95.1932 199.488C94.8732 199.712 94.7132 200.024 94.7132 200.424C94.7132 200.872 94.9372 201.216 95.3852 201.456C95.8332 201.68 96.5292 201.912 97.4732 202.152C98.4332 202.392 99.2252 202.64 99.8492 202.896C100.473 203.152 101.009 203.552 101.457 204.096C101.921 204.624 102.161 205.328 102.177 206.208C102.177 206.976 101.961 207.664 101.529 208.272C101.113 208.88 100.505 209.36 99.7052 209.712C98.9212 210.048 98.0012 210.216 96.9452 210.216ZM116.935 203.064C116.935 203.544 116.903 203.976 116.839 204.36H107.119C107.199 205.32 107.535 206.072 108.127 206.616C108.719 207.16 109.447 207.432 110.311 207.432C111.559 207.432 112.447 206.896 112.975 205.824H116.599C116.215 207.104 115.479 208.16 114.391 208.992C113.303 209.808 111.967 210.216 110.383 210.216C109.103 210.216 107.951 209.936 106.927 209.376C105.919 208.8 105.127 207.992 104.551 206.952C103.991 205.912 103.711 204.712 103.711 203.352C103.711 201.976 103.991 200.768 104.551 199.728C105.111 198.688 105.895 197.888 106.903 197.328C107.911 196.768 109.071 196.488 110.383 196.488C111.647 196.488 112.775 196.76 113.767 197.304C114.775 197.848 115.551 198.624 116.095 199.632C116.655 200.624 116.935 201.768 116.935 203.064ZM113.455 202.104C113.439 201.24 113.127 200.552 112.519 200.04C111.911 199.512 111.167 199.248 110.287 199.248C109.455 199.248 108.751 199.504 108.175 200.016C107.615 200.512 107.271 201.208 107.143 202.104H113.455ZM127.747 198.648C128.179 198.008 128.771 197.488 129.523 197.088C130.291 196.688 131.163 196.488 132.139 196.488C133.275 196.488 134.299 196.768 135.211 197.328C136.139 197.888 136.867 198.688 137.395 199.728C137.939 200.752 138.211 201.944 138.211 203.304C138.211 204.664 137.939 205.872 137.395 206.928C136.867 207.968 136.139 208.776 135.211 209.352C134.299 209.928 133.275 210.216 132.139 210.216C131.147 210.216 130.275 210.024 129.523 209.64C128.787 209.24 128.195 208.728 127.747 208.104V210H124.387V192.24H127.747V198.648ZM134.779 203.304C134.779 202.504 134.611 201.816 134.275 201.24C133.955 200.648 133.523 200.2 132.979 199.896C132.451 199.592 131.875 199.44 131.251 199.44C130.643 199.44 130.067 199.6 129.523 199.92C128.995 200.224 128.563 200.672 128.227 201.264C127.907 201.856 127.747 202.552 127.747 203.352C127.747 204.152 127.907 204.848 128.227 205.44C128.563 206.032 128.995 206.488 129.523 206.808C130.067 207.112 130.643 207.264 131.251 207.264C131.875 207.264 132.451 207.104 132.979 206.784C133.523 206.464 133.955 206.008 134.275 205.416C134.611 204.824 134.779 204.12 134.779 203.304ZM152.652 203.064C152.652 203.544 152.62 203.976 152.556 204.36H142.836C142.916 205.32 143.252 206.072 143.844 206.616C144.436 207.16 145.164 207.432 146.028 207.432C147.276 207.432 148.164 206.896 148.692 205.824H152.316C151.932 207.104 151.196 208.16 150.108 208.992C149.02 209.808 147.684 210.216 146.1 210.216C144.82 210.216 143.668 209.936 142.644 209.376C141.636 208.8 140.844 207.992 140.268 206.952C139.708 205.912 139.428 204.712 139.428 203.352C139.428 201.976 139.708 200.768 140.268 199.728C140.828 198.688 141.612 197.888 142.62 197.328C143.628 196.768 144.788 196.488 146.1 196.488C147.364 196.488 148.492 196.76 149.484 197.304C150.492 197.848 151.268 198.624 151.812 199.632C152.372 200.624 152.652 201.768 152.652 203.064ZM149.172 202.104C149.156 201.24 148.844 200.552 148.236 200.04C147.628 199.512 146.884 199.248 146.004 199.248C145.172 199.248 144.468 199.504 143.892 200.016C143.332 200.512 142.988 201.208 142.86 202.104H149.172ZM171.257 196.512C172.889 196.512 174.201 197.016 175.193 198.024C176.201 199.016 176.705 200.408 176.705 202.2V210H173.345V202.656C173.345 201.616 173.081 200.824 172.553 200.28C172.025 199.72 171.305 199.44 170.393 199.44C169.481 199.44 168.753 199.72 168.209 200.28C167.681 200.824 167.417 201.616 167.417 202.656V210H164.057V202.656C164.057 201.616 163.793 200.824 163.265 200.28C162.737 199.72 162.017 199.44 161.105 199.44C160.177 199.44 159.441 199.72 158.897 200.28C158.369 200.824 158.105 201.616 158.105 202.656V210H154.745V196.704H158.105V198.312C158.537 197.752 159.089 197.312 159.761 196.992C160.449 196.672 161.201 196.512 162.017 196.512C163.057 196.512 163.985 196.736 164.801 197.184C165.617 197.616 166.249 198.24 166.697 199.056C167.129 198.288 167.753 197.672 168.569 197.208C169.401 196.744 170.297 196.512 171.257 196.512ZM183.877 192.96L183.493 204.552H180.661L180.253 192.96H183.877ZM182.149 210.168C181.541 210.168 181.037 209.984 180.637 209.616C180.253 209.232 180.061 208.76 180.061 208.2C180.061 207.64 180.253 207.176 180.637 206.808C181.037 206.424 181.541 206.232 182.149 206.232C182.741 206.232 183.229 206.424 183.613 206.808C183.997 207.176 184.189 207.64 184.189 208.2C184.189 208.76 183.997 209.232 183.613 209.616C183.229 209.984 182.741 210.168 182.149 210.168Z" fill="#D93025"/>
<path d="M110.371 14.75C112.873 10.4167 119.127 10.4167 121.629 14.75L206.5 161.75C209.002 166.083 205.874 171.5 200.87 171.5H31.1295C26.1258 171.5 22.9985 166.083 25.5003 161.75L110.371 14.75Z" stroke="#D93025" stroke-width="5"/>
<rect x="112" y="62" width="7" height="66" rx="3.5" fill="#D93025"/>
<circle cx="115.5" cy="140.5" r="7.5" fill="#D93025"/>
</svg>
