<svg width="788" height="615" viewBox="0 0 788 615" fill="none" xmlns="http://www.w3.org/2000/svg">
<g clip-path="url(#clip0_843:13200)">
<path d="M50.6246 613.46C-27.787 457.62 125.372 422.565 85.6533 351.795C37.727 266.431 34.2827 27.2809 196.529 57.8622C390.799 94.5305 421.871 -53.3893 595.329 21.414C718.296 74.4363 601.704 223.383 725.111 356.488C836.206 476.247 729.654 613.826 729.654 613.826L50.6246 613.46Z" fill="#EBF3FA"/>
<g opacity="0.3">
<path opacity="0.3" d="M264.062 185.712C248.746 179.698 223.683 178.892 228.3 165.105C232.917 151.317 245.448 153.297 245.448 153.297C309.936 164.151 326.718 246.068 326.718 246.068C314.773 216.44 279.377 191.726 264.062 185.712Z" fill="#AEC3FF"/>
</g>
<g opacity="0.3">
<path opacity="0.3" d="M296.463 168.115C286.35 159.461 267.37 152.201 274.479 142.887C281.587 133.573 290.747 138.34 290.747 138.34C337.281 163.641 328.634 230.818 328.634 230.818C327.242 205.003 306.65 176.769 296.463 168.115Z" fill="#AEC3FF"/>
</g>
<path d="M461.063 330.88C460.623 331.98 460.33 332.86 460.11 333.447V333.52C459.817 334.547 459.524 335.574 459.304 336.6L455.42 336.894C456.446 333.594 457.692 330.367 459.304 327.287C467.951 307.926 466.266 291.718 466.266 291.718C466.266 291.718 428.965 274.264 443.695 245.81C443.695 245.81 455.86 228.136 469.857 222.782C469.857 222.782 465.24 263.924 472.934 264.364C480.629 264.804 474.84 218.089 474.84 218.089C474.84 218.089 511.187 197.188 526.137 197.481C526.137 197.481 505.691 238.843 513.239 237.376C520.787 235.909 543.944 193.741 543.944 193.741C543.944 193.741 582.051 183.694 589.966 206.208L461.063 330.88ZM590.039 206.208C597.953 228.649 588.72 240.896 583.15 242.73C577.581 244.563 540.72 246.837 542.039 251.53C543.358 256.224 568.714 262.017 582.271 256.737C582.271 256.737 569.74 295.605 549.587 295.165C529.435 294.725 522.253 282.771 509.795 282.698C497.337 282.625 488.47 286.658 494.919 289.518C501.368 292.379 522.18 288.638 532.879 296.412C543.578 304.186 552.006 308.879 533.685 314.086C515.365 319.293 481.728 319.366 474.034 305.506C473.667 304.919 473.374 304.332 473.081 303.746C473.301 304.332 473.667 304.919 474.034 305.506C470.736 307.779 466.339 317.68 463.261 325.307C462.821 326.627 462.162 328.387 461.136 330.807L590.039 206.208Z" fill="#CDE0FB"/>
<path d="M610.91 581.241C604.974 577.647 574.928 546.846 571.777 551.613C568.626 556.38 582.843 583.221 597.866 591.141C597.866 591.141 553.97 609.769 538.947 591.581C523.924 573.394 529.054 557.993 519.527 546.919C510.001 535.845 499.741 531.079 502.159 538.999C504.578 546.919 523.778 562.467 525.023 577.794C526.269 593.121 528.614 604.268 510.074 591.948C491.46 579.701 465.812 549.999 472.114 532.619C472.407 531.885 472.627 531.152 472.92 530.419C472.554 531.079 472.261 531.812 472.114 532.619C467.644 531.445 455.406 535.112 446.392 538.192C444.926 538.779 442.875 539.586 439.943 540.539C438.697 540.979 437.671 541.419 436.939 541.712H436.865C435.766 542.226 434.594 542.739 433.494 543.326L430.27 540.099C433.934 538.412 437.818 537.092 441.702 536.212C465.445 529.099 478.489 515.238 478.489 515.238C478.489 515.238 465.445 468.963 501.793 460.236C501.793 460.236 526.709 457.449 542.098 465.736C542.098 465.736 502.16 493.017 507.729 500.131C513.298 507.244 550.013 466.469 550.013 466.469C550.013 466.469 596.253 482.677 607.319 496.097C607.319 496.097 555.142 509.591 562.251 515.091C569.359 520.591 624.32 509.151 624.32 509.151C624.32 509.151 662.28 535.259 648.43 559.386C634.653 583.588 616.846 584.834 610.91 581.241Z" fill="#AFCDFB"/>
<g opacity="0.5">
<path opacity="0.5" d="M281.629 334.62C282.289 335.647 282.875 336.453 283.241 337.04C283.241 337.04 283.241 337.04 283.241 337.113C283.828 338.067 284.341 339.093 284.853 340.12L288.957 339.46C287.125 336.307 285 333.3 282.655 330.513C269.098 312.692 266.899 295.605 266.899 295.605C266.899 295.605 300.975 268.69 278.991 242.949C278.991 242.949 262.209 227.695 246.527 225.568C246.527 225.568 261.257 266.784 253.416 269.057C245.574 271.33 240.298 221.975 240.298 221.975C240.298 221.975 197.868 209.214 182.625 213.175C182.625 213.175 213.697 250.723 205.489 251.016C197.282 251.31 163.206 213.688 163.206 213.688C163.206 213.688 121.582 212.588 118.87 237.669L281.629 334.62ZM118.943 237.669C116.232 262.677 128.617 273.017 134.846 273.531C141.074 274.044 179.474 267.444 179.254 272.65C179.034 277.857 154.338 289.958 139.169 287.758C139.169 287.758 161.374 324.646 182.039 319.366C202.705 314.086 207.101 300.005 219.926 296.925C232.75 293.845 242.79 295.825 236.854 300.372C230.918 304.919 208.567 306.019 199.48 316.652C190.393 327.286 182.772 334.106 202.924 334.986C223.077 335.867 257.593 327.799 262.209 311.739C262.429 311.005 262.576 310.345 262.796 309.759C262.722 310.419 262.503 311.152 262.209 311.739C266.167 313.279 273.128 322.373 278.038 329.486C278.771 330.733 279.944 332.346 281.556 334.62L118.943 237.669Z" fill="#AFCDFB"/>
</g>
<g opacity="0.2">
<path opacity="0.2" d="M152.039 550.949C157.535 543.982 179.519 493.307 185.455 497.56C191.391 501.814 186.555 540.535 172.118 556.889C172.118 556.889 233.235 559.236 242.982 530.562C252.728 501.887 239.537 485.753 245.913 468.079C252.288 450.405 262.401 440.064 263.207 450.698C264.013 461.332 247.965 488.686 253.461 507.681C258.957 526.675 261.155 541.049 277.864 517.874C294.572 494.7 311.867 447.398 296.404 429.43C295.744 428.624 295.085 427.89 294.499 427.157C295.232 427.817 295.891 428.55 296.404 429.43C301.241 425.984 317.509 424.81 329.747 424.444C331.799 424.517 334.657 424.444 338.541 424.297C340.3 424.297 341.692 424.297 342.645 424.297H342.718C344.257 424.37 345.869 424.517 347.555 424.737L349.973 419.383C344.77 419.09 339.567 419.237 334.437 419.897C302.78 422.17 280.795 411.463 280.795 411.463C280.795 411.463 275.372 350.007 227.812 356.094C227.812 356.094 196.667 364.088 181.938 381.102C181.938 381.102 242.249 395.622 238.878 406.696C235.507 417.77 172.851 385.649 172.851 385.649C172.851 385.649 124.778 426.204 117.596 447.325C117.596 447.325 186.335 439.698 180.326 449.598C174.316 459.498 103.16 470.719 103.16 470.719C103.16 470.719 69.5234 519.341 97.0774 542.002C124.631 564.59 146.543 557.916 152.039 550.949Z" fill="#AFCDFB"/>
</g>
<path d="M521.321 364.054C523.153 362.954 527.33 371.094 530.701 372.561C531.141 372.781 531.653 372.561 531.873 372.194C532.386 371.461 530.554 367.281 531.8 367.134C532.313 367.061 533.119 370.068 533.925 371.241C534.731 372.634 534.878 374.248 534.365 375.715C534.072 376.521 534.218 377.328 534.658 378.061C534.951 378.795 535.098 379.455 535.244 379.895C535.391 380.335 535.464 380.628 535.464 380.628L532.826 382.168L530.628 383.415C529.602 382.168 528.283 381.215 526.817 380.628C524.472 379.601 522.2 375.495 520.881 371.974C520.441 370.508 520.661 364.494 521.321 364.054Z" fill="#FFB27D"/>
<path d="M532.948 376.023L521.955 360.403C521.736 360.109 521.296 360.036 521.003 360.256L516.752 363.263C516.459 363.483 516.386 363.923 516.606 364.216L527.598 379.837C527.818 380.13 528.258 380.204 528.551 379.984L532.801 376.977C533.094 376.757 533.168 376.317 532.948 376.023Z" fill="#2B478B"/>
<path d="M529.017 378.957L517.878 363.116C517.731 362.896 517.365 362.823 517.145 362.969L514.653 364.729C514.434 364.876 514.36 365.243 514.507 365.463L525.646 381.304C525.792 381.524 526.159 381.597 526.379 381.45L528.87 379.69C529.09 379.543 529.163 379.25 529.017 378.957Z" fill="#233862"/>
<path d="M606.045 377.861C606.045 377.861 581.715 422.376 564.421 420.836C547.126 419.296 529.539 383.434 529.539 383.434C530.711 380.867 532.91 378.887 535.548 377.934L564.494 399.568C572.408 392.528 594.173 354.54 594.173 354.54L606.045 377.861Z" fill="#94B0ED"/>
<path d="M645.993 609.856C649.95 608.976 651.416 604.209 651.123 599.808C651.05 597.902 651.05 595.922 651.123 594.015C651.269 591.448 651.489 589.468 651.489 589.468L659.843 587.488L660.723 588.588L661.529 589.688C661.529 589.688 666.585 594.381 665.559 597.682C664.533 600.982 660.063 603.182 659.404 607.289C658.964 610.222 657.572 612.202 655.959 613.082H643.355C643.208 612.202 643.062 610.442 645.993 609.856Z" fill="#233862"/>
<path d="M574.775 610.053C579.172 609.32 586.794 606.753 588.479 601.18C588.552 601.033 588.552 600.813 588.626 600.593C589.945 594.579 599.764 602.426 599.764 602.426C599.764 602.426 599.764 602.646 599.838 603.086C600.058 605.14 600.57 611.373 599.178 613.06H570.378C570.818 612.033 571.917 610.493 574.775 610.053Z" fill="#233862"/>
<path d="M617.557 449.74C617.557 449.74 614.113 513.396 611.914 543.61C611.914 544.124 611.841 544.564 611.841 545.077C609.496 574.779 601.142 602.866 601.142 602.866C591.835 604.846 587.145 600.153 587.145 600.153C587.145 600.153 585.166 580.499 584.653 568.178C584.36 561.138 581.502 523.736 579.157 493.302C577.398 470.934 575.933 452.307 575.933 452.307L617.557 449.74Z" fill="#00A4FF"/>
<path d="M617.557 449.74C617.557 449.74 614.113 513.396 611.914 543.611C611.914 544.124 611.841 544.564 611.841 545.077L579.157 493.302C577.398 470.934 575.933 452.307 575.933 452.307L617.557 449.74Z" fill="#3582C6"/>
<path d="M625.623 442.368C625.623 442.368 627.675 459.895 628.042 468.696C628.408 477.496 636.249 502.871 642.991 511.304C654.863 526.192 661.605 587.428 661.605 587.428C660.652 590.214 650.539 594.248 650.539 594.248C650.539 594.248 645.043 585.374 627.309 553.693C609.575 522.011 582.753 454.542 582.753 454.542L625.623 442.368Z" fill="#00A4FF"/>
<path d="M593.515 351.765C594.688 350.298 596.08 347.584 595.934 346.411C595.567 343.991 595.347 341.571 595.274 339.224L600.77 334.75L608.905 328.15C608.392 343.257 618.065 350.591 618.065 350.591C618.065 350.591 599.891 359.538 589.412 356.238C589.412 356.165 590.364 355.798 593.515 351.765Z" fill="#FFB27D"/>
<path d="M600.828 334.688C603.539 334.321 606.324 334.615 608.962 335.421C608.962 335.421 602 345.322 595.918 346.349C595.551 343.929 595.332 341.508 595.258 339.162L600.828 334.688Z" fill="#ED975D"/>
<path d="M589.779 315.888C591.172 312.368 593.956 308.554 605.022 310.901C616.088 313.248 612.717 320.142 611.104 330.995C609.492 341.849 592.124 338.989 592.124 338.989C587.581 337.889 588.387 319.335 589.779 315.888Z" fill="#FFB27D"/>
<path d="M574.479 426.747C574.479 426.161 574.479 425.501 574.553 424.987V424.767C574.626 418.9 574.846 412.74 575.065 406.653C575.652 393.159 576.678 380.179 578.51 372.918C580.635 364.411 585.472 358.838 589.868 354.731L593.533 351.504C597.343 352.311 601.374 351.871 604.818 350.111C608.995 348.057 613.538 345.857 614.271 346.371C622.918 352.824 627.169 371.892 627.096 393.526C627.096 396.459 627.022 399.393 626.802 402.4C626.143 415.014 626.363 427.701 627.389 440.315C627.535 442.661 627.682 444.495 627.682 445.742C627.755 446.915 625.337 448.162 624.311 448.602C616.543 452.122 609.215 454.542 601.007 455.349C591.261 456.375 579.756 454.175 575.798 454.175C575.359 454.175 574.992 454.029 574.699 453.735C574.479 453.662 574.259 441.781 574.479 426.747Z" fill="#AEC3FF"/>
<path d="M611.442 378.581H620.528C620.528 378.581 623.46 384.888 627.051 393.615C627.051 396.548 626.977 399.481 626.757 402.488C626.098 415.102 626.318 427.789 627.344 440.403C604.846 423.976 611.442 378.581 611.442 378.581Z" fill="#94B0ED"/>
<path d="M681.602 481.411L679.184 464.617C678.451 459.557 673.761 456.037 668.704 456.77L630.085 462.271C625.028 463.004 621.511 467.698 622.244 472.758L624.662 489.552C625.395 494.612 630.085 498.132 635.141 497.399L673.761 491.899C678.817 491.092 682.335 486.472 681.602 481.411Z" fill="#233862"/>
<path d="M627.379 471.982L629.797 488.923C630.237 492.076 632.288 494.79 635.22 496.11C636.172 496.55 637.198 496.77 638.224 496.843C638.884 496.916 639.543 496.843 640.203 496.77L678.749 491.269C683.806 490.536 687.323 485.843 686.59 480.782L684.172 463.842C683.439 458.781 678.749 455.261 673.693 455.995L660.429 457.901L659.916 454.308C659.696 452.621 658.157 451.448 656.471 451.741L655.006 451.961L646.945 453.134L644.966 453.428C643.281 453.648 642.108 455.188 642.401 456.875L642.914 460.468L635.22 461.568C634.927 461.641 634.633 461.641 634.34 461.715C631.409 462.448 629.064 464.502 627.965 467.288C627.379 468.828 627.159 470.442 627.379 471.982ZM658.67 458.195L644.893 460.175L644.38 456.581C644.307 455.921 644.746 455.408 645.333 455.261L648.777 454.748L655.152 453.868L656.838 453.648C656.984 453.648 657.058 453.648 657.204 453.648C657.717 453.721 658.084 454.088 658.157 454.601L658.67 458.195Z" fill="#2B478B"/>
<path d="M649.513 439.301L651.564 442.601C654.642 445.021 654.642 445.095 654.129 449.715C653.616 453.748 656.255 453.748 656.181 456.682C656.108 459.615 652.444 458.148 652.444 458.148C643.797 454.042 647.094 453.088 646.581 445.755C646.508 444.655 644.456 441.941 644.456 441.941L649.513 439.301Z" fill="#FFB27D"/>
<path d="M654.02 442.132C654.02 442.132 652.261 416.244 647.278 404.657C644.274 397.69 614.521 347.895 614.521 347.895L603.089 376.642C603.089 376.642 630.643 408.984 631.889 411.771C633.135 414.557 642.808 444.479 642.808 444.479C645.08 444.625 647.352 444.479 649.623 444.112C651.162 443.672 652.701 443.012 654.02 442.132Z" fill="#AEC3FF"/>
<path d="M614.136 308.722C611.937 304.249 607.54 303.882 600.725 303.442C597.647 303.222 592.225 300.435 586.875 304.762C581.525 309.089 586.142 315.396 586.142 315.396C585.336 314.956 584.603 314.296 584.164 313.416C584.164 313.416 584.31 317.596 587.095 318.843C589.88 320.09 592.298 317.963 598.234 318.256C604.17 318.55 604.17 322.436 604.976 323.39C605.782 324.343 605.928 322.73 607.907 322.143C609.886 321.556 609.886 324.783 609.592 327.203C609.299 329.623 611.058 329.99 611.058 329.99C615.455 325.59 616.334 313.196 614.136 308.722Z" fill="#2B478B"/>
<path d="M647.465 449.056C646.879 450.89 645.633 452.87 644.68 452.283C644.241 451.99 645.12 450.816 645.56 448.103C645.706 447.223 647.612 445.243 647.612 445.243C647.832 446.416 647.832 447.81 647.465 449.056Z" fill="#FFB27D"/>
<path d="M265.793 588.445V227.483C265.793 215.602 275.393 205.995 287.265 205.995H475.819C487.691 205.995 497.291 215.602 497.291 227.483V588.445C497.291 600.326 487.691 609.933 475.819 609.933H287.265C275.393 609.933 265.793 600.326 265.793 588.445Z" fill="white"/>
<path d="M263.1 588.463V227.5C263.1 214.153 273.945 203.299 287.209 203.299H475.764C489.101 203.299 499.873 214.153 499.947 227.5V588.463C499.947 601.81 489.101 612.59 475.764 612.664H287.209C273.945 612.59 263.1 601.81 263.1 588.463ZM475.837 208.726H287.209C276.877 208.726 268.449 217.16 268.449 227.5V588.463C268.449 598.803 276.877 607.237 287.209 607.237H475.764C486.096 607.237 494.524 598.803 494.524 588.463V227.5C494.524 217.087 486.17 208.726 475.837 208.726Z" fill="#2B478B"/>
<path d="M289.502 488.334C300.568 498.014 299.982 531.309 267.151 527.936C263.927 527.569 248.098 513.488 242.822 510.775C231.317 504.908 234.468 495.081 238.132 489.434C244.287 480.12 235.201 469.853 247.512 456.506C252.568 451.079 260.263 448.879 267.445 450.786C288.11 456.946 273.967 474.767 289.502 488.334Z" fill="#233862"/>
<path d="M254.493 516.003C251.489 517.91 220.051 527.003 210.891 526.197C201.584 525.317 174.909 509.989 174.909 509.989L174.03 504.049C174.03 504.049 209.059 516.37 214.701 516.663C220.344 516.956 250.243 502.362 250.243 502.362C259.037 504.342 257.498 514.096 254.493 516.003Z" fill="#ED985F"/>
<path d="M253.466 501.956C253.466 501.956 254.052 501.81 255.078 501.589C255.664 500.856 255.591 498.069 255.371 495.063C255.078 491.249 254.491 487.289 254.491 487.289L267.096 483.842L267.829 483.622C268.415 492.349 271.126 497.996 272.885 499.389C273.911 499.463 275.084 499.536 276.256 499.683C278.162 499.829 279.994 500.416 281.679 501.369C279.407 510.683 273.252 524.177 257.203 520.51C253.466 519.704 249.948 518.237 246.797 516.11C248.629 511.197 250.827 506.43 253.466 501.956Z" fill="#FFB27D"/>
<path d="M267.143 483.822C265.824 487.562 262.526 494.383 255.345 495.116C255.052 491.303 254.465 487.342 254.465 487.342L267.143 483.822Z" fill="#ED985F"/>
<path d="M245.351 469.807C245.938 466.214 247.77 462.034 258.615 461.887C269.461 461.74 267.776 469.001 268.509 479.561C269.241 490.121 252.313 491.075 252.313 491.075C247.916 491.002 244.765 473.401 245.351 469.807Z" fill="#FFB27D"/>
<path d="M245.836 476.43C245.763 473.57 246.349 470.636 247.741 468.069C248.694 465.869 249.94 465.283 250.892 464.256C251.332 465.503 254.483 473.496 263.717 475.55C270.898 477.163 273.903 474.743 273.903 474.743C270.165 471.883 267.527 467.849 266.428 463.302C266.428 463.302 259.906 456.189 251.039 461.982C249.866 461.102 247.815 460.589 245.47 463.889C241.879 468.949 245.836 476.43 245.836 476.43Z" fill="#233862"/>
<path d="M295.966 592.956C295.746 610.263 253.536 576.308 253.536 576.308C253.536 576.308 261.67 561.934 254.489 545.947C245.988 527.026 244.669 523.433 245.548 515.219C240.199 512.946 236.828 507.739 236.828 507.739C236.828 507.739 244.229 503.192 246.867 502.679C249.579 502.165 252.29 501.799 255.002 501.579C253.536 502.679 254.195 503.925 255.954 504.365C256.027 504.365 256.101 504.439 256.174 504.439C259.911 505.172 269.072 499.305 271.49 497.765C279.185 497.472 286.293 497.765 288.052 501.359C293.035 511.406 288.052 542.794 286.513 550.641C284.607 560.614 296.186 579.975 295.966 592.956Z" fill="#00A4FF"/>
<path d="M275.114 585.521C274.601 579.288 243.603 519.739 225.135 520.325C206.668 520.912 212.971 542.106 212.971 542.106C215.536 548.633 224.989 549.66 227.627 555.453C238.399 579.215 240.305 601.509 245.068 608.769C245.288 609.136 245.508 609.429 245.728 609.722C247.047 611.629 249.099 612.876 251.37 613.169C287.352 617.276 275.627 591.535 275.114 585.521Z" fill="#94B0ED"/>
<path d="M187.955 607.154C189.494 606.054 194.33 600.407 195.429 599.087C196.602 599.821 197.921 600.334 199.313 600.481C200.852 600.554 202.318 600.261 203.71 599.601C202.611 601.728 202.025 603.194 203.49 605.834C205.249 608.768 204.223 613.095 204.223 613.095H177.915C178.575 607.961 186.196 608.475 187.955 607.154Z" fill="#0D2644"/>
<path d="M228.941 520.3C235.39 524.627 235.243 541.494 235.243 550.294C235.243 568.408 217.289 591.069 208.422 599.063C207.176 600.237 204.391 602.877 202.706 603.317C202.633 603.317 190.248 600.017 193.766 594.15C204.685 575.889 210.84 538.341 212.452 526.46C213.039 521.766 224.984 517.66 228.941 520.3Z" fill="#94B0ED"/>
<path d="M279.49 510.792L244.681 522.965C244.681 522.965 230.464 542.253 255.307 534.553C280.149 526.852 285.572 515.998 285.572 515.998L279.49 510.792Z" fill="#3B64C5"/>
<path d="M294.443 585.492C292.392 579.552 257.29 518.316 238.823 518.976C220.356 519.636 230.395 542.223 230.395 542.223C232.96 548.75 240.215 547.944 242.853 553.737C244.319 556.964 245.711 560.191 247.03 563.418C251.28 573.832 254.651 583.805 257.509 591.946C260.221 599.646 260.734 603.313 262.126 608.226C262.639 609.987 263.372 611.673 264.325 613.213C304.556 619.447 296.642 592.019 294.443 585.492Z" fill="#AEC3FF"/>
<path d="M207.199 607.154C208.738 606.054 213.574 600.407 214.674 599.087C215.846 599.821 217.165 600.334 218.557 600.481C220.096 600.554 221.562 600.261 222.954 599.601C221.855 601.728 221.269 603.194 222.735 605.834C224.493 608.768 223.467 613.095 223.467 613.095H197.159C197.819 607.961 205.513 608.475 207.199 607.154Z" fill="#163560"/>
<g opacity="0.5">
<path opacity="0.5" d="M254.479 545.936C250.448 548.723 248.103 555.616 247.004 563.463C251.254 573.877 254.625 583.851 257.483 591.991C264.225 576.077 254.479 545.936 254.479 545.936Z" fill="#94B0ED"/>
</g>
<path d="M228.761 522.899C230.74 519.892 234.697 519.085 237.702 521.066C244.151 525.319 254.483 541.526 254.483 550.4C254.483 568.514 236.529 591.175 227.662 599.169C226.416 600.342 223.632 602.982 221.946 603.422C221.873 603.422 209.488 600.122 213.006 594.255C223.925 575.994 226.123 537.64 227.735 525.759C227.882 524.659 228.248 523.706 228.761 522.899Z" fill="#AEC3FF"/>
<path d="M170.389 488.858C169.51 489.225 169.07 490.252 169.437 491.132L179.256 514.673C179.55 515.333 180.209 515.773 180.942 515.773L207.69 514.673C207.91 514.673 208.056 514.599 208.276 514.526C209.155 514.159 209.595 513.206 209.302 512.253L199.629 486.878C199.336 486.145 198.603 485.705 197.797 485.778L170.829 488.638C170.683 488.712 170.536 488.785 170.389 488.858Z" fill="#3582C6"/>
<path d="M168.035 489.108C167.156 489.475 166.716 490.501 167.083 491.382L176.902 514.923C177.196 515.583 177.855 516.023 178.588 516.023L205.336 514.923C205.556 514.923 205.702 514.849 205.922 514.776C206.801 514.409 207.241 513.456 206.948 512.502L197.275 487.128C196.982 486.395 196.249 485.955 195.443 486.028L168.475 488.888C168.328 488.961 168.182 489.035 168.035 489.108Z" fill="#00A4FF"/>
<path d="M185.658 502.464C185.878 502.464 186.098 502.464 186.245 502.317C186.758 502.024 186.977 501.364 186.684 500.777C186.318 499.824 185.439 499.237 184.486 499.164C184.266 499.164 184.046 499.164 183.9 499.31C183.387 499.604 183.167 500.264 183.46 500.85C183.826 501.73 184.706 502.39 185.658 502.464Z" fill="#EBF3FA"/>
<path d="M170.427 492.173C170.5 492.173 170.647 492.173 170.72 492.1C171.013 491.953 171.086 491.66 170.94 491.367C170.793 490.926 170.354 490.56 169.841 490.56C169.767 490.56 169.621 490.56 169.548 490.633C169.254 490.78 169.181 491.073 169.328 491.367C169.474 491.807 169.914 492.173 170.427 492.173Z" fill="#EBF3FA"/>
<path d="M285.571 516.086C282.566 517.993 255.672 527.82 239.77 527.967C231.709 528.04 202.396 509.192 202.396 509.192L205.107 504.059C205.107 504.059 235.226 514.693 238.89 514.839C244.46 515.133 281.834 501.345 281.834 501.345C290.554 503.326 288.575 514.106 285.571 516.086Z" fill="#FFB27D"/>
<path d="M202.349 509.128C202.349 509.128 198.904 507.588 196.193 508.028C193.482 508.468 187.253 508.028 185.934 505.828C184.614 503.628 189.085 502.161 190.697 501.868C192.309 501.575 196.926 499.594 199.637 499.741C202.349 499.888 205.06 503.995 205.06 503.995L202.349 509.128Z" fill="#FFB27D"/>
<path d="M196.901 501.364C196.901 500.998 194.703 499.898 194.336 498.724C193.97 497.551 193.75 497.184 194.923 497.551C196.095 497.918 200.419 499.898 200.419 499.898C200.419 499.898 196.901 501.731 196.901 501.364Z" fill="#FFB27D"/>
<path d="M173.487 508.11C174.073 508.33 174.953 508.476 175.392 504.003C175.612 501.656 176.785 499.823 174.879 497.989C172.974 496.229 171.288 501.876 171.288 501.876C170.629 504.076 172.901 507.89 173.487 508.11Z" fill="#FFB27D"/>
<path d="M173.492 506.721L174.811 510.021C172.173 508.628 170.707 505.694 171.147 502.687L173.492 506.721Z" fill="#FFB27D"/>
<path d="M251.772 486.642C255.07 486.495 255.363 484.735 255.363 484.735C250.82 484.369 249.208 485.029 249.208 485.029C249.647 485.982 250.6 486.642 251.772 486.642Z" fill="white"/>
<path d="M286.869 502.382C296.323 515.289 277.343 521.156 277.343 521.156C265.911 518.736 262.54 508.175 262.54 508.175C277.562 495.415 286.869 502.382 286.869 502.382Z" fill="#00A4FF"/>
<path d="M171.591 501.881C171.664 501.148 171.371 500.415 170.785 499.901C170.345 499.608 170.345 499.828 170.345 500.268C170.345 500.708 171.151 503.348 171.151 503.348C171.151 503.348 171.444 502.688 171.591 501.881Z" fill="#FFB27D"/>
<path d="M402.519 567.261C402.372 565.428 402.152 563.668 401.713 561.908C401.2 559.854 400.394 557.874 399.221 556.114C393.872 547.094 382.879 543.207 373.06 546.8C371.081 547.534 369.249 548.487 367.563 549.734C365.805 550.98 364.266 552.594 362.947 554.354C357.304 561.981 357.304 572.468 362.947 580.095C363.606 580.975 364.339 581.855 365.072 582.589C365.878 583.322 366.684 584.055 367.563 584.715C369.249 585.962 371.081 586.989 373.06 587.649C382.879 591.242 393.872 587.355 399.294 578.335C400.394 576.502 401.2 574.595 401.786 572.541C402.152 570.855 402.372 569.095 402.519 567.261C402.519 567.408 402.519 567.481 402.519 567.628C402.519 567.921 402.519 568.215 402.519 568.655C402.519 569.241 402.446 569.828 402.372 570.341C402.299 571.148 402.152 571.881 401.933 572.615C401.42 574.742 400.614 576.722 399.514 578.555C396.29 584.129 390.867 588.015 384.565 589.189C380.608 589.922 376.577 589.629 372.84 588.235C370.788 587.502 368.883 586.475 367.197 585.229C365.365 583.909 363.753 582.295 362.434 580.462C356.644 572.615 356.644 561.834 362.434 553.987C363.753 552.154 365.365 550.54 367.197 549.22C368.883 547.9 370.861 546.874 372.84 546.214C376.577 544.894 380.681 544.527 384.565 545.26C390.867 546.434 396.29 550.32 399.514 555.821C400.614 557.654 401.42 559.634 401.933 561.761C402.152 562.494 402.299 563.301 402.372 564.034C402.446 564.621 402.519 565.134 402.519 565.721C402.519 566.161 402.519 566.528 402.519 566.748C402.519 567.041 402.519 567.188 402.519 567.261Z" fill="#00A4FF"/>
<path d="M379.644 576.438L369.019 567.271L372.243 563.531L379.351 569.691L390.563 558.104L394.081 561.477L379.644 576.438Z" fill="#00A4FF"/>
<path d="M438.78 525.614H322.116C311.636 525.614 303.209 517.107 303.209 506.693C303.209 496.279 311.636 487.772 322.116 487.772H438.78C449.26 487.772 457.687 496.279 457.687 506.693C457.76 517.18 449.26 525.614 438.78 525.614Z" fill="#00A4FF"/>
<path d="M350.406 501.528H352.238V510.401H350.406V501.528Z" fill="white"/>
<path d="M361.398 510.401V505.048L359.053 509.448H358.247L355.829 505.194V510.401H354.07V501.528H355.609L358.613 507.028L361.545 501.528H363.084V510.401H361.398Z" fill="white"/>
<path d="M372.244 510.401V505.048L369.899 509.448H369.093L366.674 505.194V510.401H364.916V501.528H366.454L369.459 507.028L372.39 501.528H373.929V510.401H372.244Z" fill="white"/>
<path d="M375.761 506.514V501.528H377.593V506.441C377.593 508.128 378.253 508.861 379.352 508.861C380.451 508.861 381.111 508.128 381.111 506.441V501.528H382.943V506.514C382.943 509.155 381.624 510.548 379.352 510.548C377.08 510.548 375.761 509.155 375.761 506.514Z" fill="white"/>
<path d="M392.103 501.528V510.401H390.564L386.607 504.974V510.401H384.775V501.528H386.314L390.271 506.955V501.528H392.103Z" fill="white"/>
<path d="M393.936 501.528H395.768V510.401H393.936V501.528Z" fill="white"/>
<path d="M399.358 503.214H396.793V501.528H403.755V503.214H401.19V510.401H399.358V503.214Z" fill="white"/>
<path d="M408.372 507.248V510.401H406.54V507.248L403.462 501.528H405.441L407.566 505.488L409.691 501.528H411.523L408.372 507.248Z" fill="white"/>
<path d="M318.138 405.407V412.081H324.807V398.733H318.138V405.407Z" fill="#1E2E34"/>
<path d="M324.807 365.34H318.138V372.014H324.807V365.34Z" fill="#1E2E34"/>
<path d="M366.044 438.87H359.375V445.544H366.044V438.87Z" fill="#1E2E34"/>
<path d="M324.807 378.693V385.366H318.138V392.04H324.807V398.714H338.144V405.387H344.813V398.714H351.481V385.366H344.813V392.04H331.475V372.019H324.807V378.693Z" fill="#1E2E34"/>
<path d="M338.154 365.34H331.485V372.014H344.823V365.34H338.154Z" fill="#1E2E34"/>
<path d="M368.193 419.022H371.784V412.349H364.603V419.022H368.193Z" fill="#1E2E34"/>
<path d="M351.502 372.019H344.833V378.693H351.502V372.019Z" fill="#1E2E34"/>
<path d="M398.213 398.733H391.544V405.407H398.213V398.733Z" fill="#1E2E34"/>
<path d="M404.887 325.272H398.218V331.946H404.887V325.272Z" fill="#1E2E34"/>
<path d="M364.844 378.682V372.008H371.512V365.335H364.844V358.661H358.175V365.335H351.506V372.008H358.175V398.703H364.844V385.356H371.512V378.682H364.844Z" fill="#1E2E34"/>
<path d="M398.213 445.478H404.882V438.804H391.544V445.478H398.213Z" fill="#1E2E34"/>
<path d="M391.54 325.272H384.871V331.946H391.54V325.272Z" fill="#1E2E34"/>
<path d="M389.864 378.687V372.014H383.196V365.34H376.527V378.687H369.858V385.361H383.196V378.687H389.864Z" fill="#1E2E34"/>
<path d="M427.539 365.34H420.871V372.014H427.539V365.34Z" fill="#1E2E34"/>
<path d="M358.364 398.733H351.696V405.407H358.364V398.733Z" fill="#1E2E34"/>
<path d="M384.865 358.645V351.972H391.533V345.298H404.871V338.625H398.202V331.951H391.533V338.625H384.865V345.298H378.196V351.972H371.527V358.645H384.865Z" fill="#1E2E34"/>
<path d="M384.865 405.402V398.728H391.533V392.054H378.196V398.728H371.527V405.402H384.865Z" fill="#1E2E34"/>
<path d="M404.866 432.112V425.439H391.529V418.765H384.86V425.439H378.191V432.112H364.854V438.786H384.86V432.112H391.529V438.786H398.197V432.112H404.866Z" fill="#1E2E34"/>
<path d="M378.186 331.946V325.272H364.849V331.946H358.18V338.619H371.517V331.946H378.186Z" fill="#1E2E34"/>
<path d="M378.196 338.626H371.527V345.3H378.196V338.626Z" fill="#1E2E34"/>
<path d="M394.878 365.33H388.209V385.351H401.547V378.677H394.878V372.004H401.547V365.33H408.215V358.656H401.547V351.983H394.878V365.33Z" fill="#1E2E34"/>
<path d="M371.523 345.304H364.854V351.978H371.523V345.304Z" fill="#1E2E34"/>
<path d="M391.544 412.085V418.759H404.882V412.085H418.219V405.411H398.213V412.085H391.544Z" fill="#1E2E34"/>
<path d="M427.539 385.375H420.871V392.049H427.539V385.375Z" fill="#1E2E34"/>
<path d="M404.887 392.054H398.218V398.728H404.887V392.054Z" fill="#1E2E34"/>
<path d="M421.568 372.019H408.231V378.693H414.9V385.366H421.568V372.019Z" fill="#1E2E34"/>
<path d="M418.234 392.054H411.565V398.728H418.234V392.054Z" fill="#1E2E34"/>
<path d="M344.823 432.245H364.829V405.404H338.007V412.077H331.485V418.751H338.007V425.425H331.485V432.098H338.007V432.245H338.154V438.772H331.485V452.119H338.154V445.445H344.823V432.245ZM359.699 410.537V427.258H342.991V410.537H359.699Z" fill="#1E2E34"/>
<path d="M431.577 405.407H438.245V398.733H418.239V405.407H431.577Z" fill="#1E2E34"/>
<path d="M431.587 378.687H438.256V365.34H431.587V378.687Z" fill="#1E2E34"/>
<path d="M378.444 412.349H371.775V425.696H378.444V412.349Z" fill="#1E2E34"/>
<path d="M444.929 405.411H438.26V412.085H444.929V405.411Z" fill="#1E2E34"/>
<path d="M444.929 392.049V385.375H438.26V398.723H444.929V392.049Z" fill="#1E2E34"/>
<path d="M324.807 438.804H318.138V452.151H324.807V438.804Z" fill="#1E2E34"/>
<path d="M444.909 358.636V325.268H411.565V358.636H444.909ZM416.549 353.65V330.255H439.926V353.65H416.549Z" fill="#1E2E34"/>
<path d="M434.915 335.288H421.578V348.635H434.915V335.288Z" fill="#1E2E34"/>
<path d="M444.909 418.769H411.565V452.137H444.909V418.769ZM416.549 447.15V423.755H439.926V447.15H416.549Z" fill="#1E2E34"/>
<path d="M434.915 428.785H421.578V442.132H434.915V428.785Z" fill="#1E2E34"/>
<path d="M318.055 325.271V358.639H351.398V325.271H318.055ZM346.415 330.258V353.652H323.038V330.258H346.415Z" fill="#1E2E34"/>
<path d="M341.404 335.288H328.067V348.635H341.404V335.288Z" fill="#1E2E34"/>
<path d="M308.555 348.558V324.87C308.555 322.67 308.922 320.543 310.461 318.856C312.146 317.023 314.491 316.07 316.983 316.143H341.899C342.338 316.143 342.631 315.776 342.631 315.336C342.631 314.97 342.338 314.676 341.899 314.603H317.276C315.224 314.53 313.099 315.043 311.34 316.07C308.702 317.83 307.163 320.69 307.163 323.843C307.09 327.73 307.163 331.69 307.163 335.577V348.484C307.163 348.924 307.529 349.218 307.969 349.218C308.189 349.218 308.482 348.924 308.555 348.558Z" fill="#00A4FF"/>
<path d="M339.654 463.423H315.984C313.785 463.423 311.66 463.057 309.975 461.517C308.142 459.83 307.19 457.483 307.263 454.99V430.129C307.263 429.689 306.897 429.395 306.457 429.395C306.091 429.395 305.797 429.689 305.724 430.129V454.77C305.651 456.823 306.164 458.95 307.19 460.71C308.949 463.35 311.807 464.89 314.958 464.89C318.842 464.963 322.799 464.89 326.683 464.89H339.654C340.093 464.89 340.387 464.523 340.387 464.157C340.313 463.79 340.02 463.423 339.654 463.423Z" fill="#00A4FF"/>
<path d="M453.723 429.897V453.585C453.723 455.785 453.356 457.911 451.817 459.598C450.132 461.432 447.787 462.385 445.295 462.312H420.379C419.94 462.312 419.646 462.678 419.646 463.118C419.646 463.485 419.94 463.778 420.379 463.852H445.002C447.054 463.925 449.179 463.412 450.938 462.385C453.576 460.625 455.115 457.765 455.115 454.611C455.188 450.724 455.115 446.764 455.115 442.877V429.897C455.115 429.457 454.749 429.164 454.309 429.164C454.016 429.164 453.723 429.53 453.723 429.897Z" fill="#00A4FF"/>
<path d="M420.885 316.112H444.555C446.753 316.112 448.878 316.479 450.564 318.019C452.396 319.706 453.349 322.052 453.275 324.546V349.48C453.275 349.92 453.642 350.214 454.081 350.214C454.448 350.214 454.741 349.92 454.814 349.48V324.766C454.887 322.639 454.374 320.586 453.275 318.826C451.516 316.186 448.658 314.645 445.507 314.572C441.623 314.499 437.666 314.572 433.782 314.572H420.885C420.445 314.572 420.152 314.939 420.152 315.379C420.152 315.746 420.445 316.039 420.885 316.112Z" fill="#00A4FF"/>
<path d="M332.435 254.93V262.924H331.629V259.257H326.646V262.924H325.84V254.93H326.646V258.451H331.629V254.93H332.435Z" fill="#1E2E34"/>
<path d="M340.643 262.19V262.923H335V254.93H340.496V255.663H335.879V258.523H339.983V259.257H335.879V262.19H340.643Z" fill="#1E2E34"/>
<path d="M347.605 260.797H343.134L342.182 262.923H341.302L344.966 254.93H345.772L349.437 262.923H348.557L347.605 260.797ZM347.311 260.063L345.406 255.81L343.501 260.063H347.311Z" fill="#1E2E34"/>
<path d="M350.829 254.93H351.635V262.19H356.105V262.923H350.829V254.93Z" fill="#1E2E34"/>
<path d="M358.304 255.663H355.519V254.93H361.968V255.663H359.183V262.923H358.304V255.663Z" fill="#1E2E34"/>
<path d="M369.955 254.93V262.923H369.149V259.257H364.166V262.923H363.287V254.93H364.093V258.45H369.149V254.93H369.955Z" fill="#1E2E34"/>
<path d="M381.754 257.643C381.754 259.33 380.508 260.357 378.53 260.357H376.405V262.923H375.599V254.93H378.603C380.582 254.93 381.754 255.956 381.754 257.643ZM380.948 257.643C380.948 256.396 380.142 255.663 378.53 255.663H376.405V259.623H378.53C380.069 259.623 380.948 258.89 380.948 257.643Z" fill="#1E2E34"/>
<path d="M388.203 260.797H383.732L382.78 262.923H381.9L385.564 254.93H386.371L390.035 262.923H389.155L388.203 260.797ZM387.91 260.063L386.004 255.81L384.099 260.063H387.91Z" fill="#1E2E34"/>
<path d="M390.621 261.897L390.914 261.237C391.647 261.897 392.6 262.19 393.552 262.19C395.018 262.19 395.678 261.53 395.678 260.797C395.678 258.596 390.768 259.99 390.768 256.983C390.768 255.81 391.647 254.783 393.699 254.783C394.578 254.783 395.458 255.003 396.191 255.516L395.897 256.176C395.238 255.736 394.505 255.516 393.699 255.516C392.233 255.516 391.574 256.176 391.574 256.983C391.574 259.183 396.484 257.863 396.484 260.723C396.484 261.897 395.531 262.923 393.479 262.923C392.453 262.997 391.427 262.63 390.621 261.897Z" fill="#1E2E34"/>
<path d="M397.583 261.897L397.876 261.237C398.609 261.897 399.562 262.19 400.514 262.19C401.98 262.19 402.639 261.53 402.639 260.797C402.639 258.596 397.73 259.99 397.73 256.983C397.73 255.81 398.609 254.783 400.661 254.783C401.54 254.783 402.42 255.003 403.152 255.516L402.859 256.176C402.2 255.736 401.467 255.516 400.661 255.516C399.195 255.516 398.536 256.176 398.536 256.983C398.536 259.183 403.446 257.863 403.446 260.723C403.446 261.897 402.493 262.923 400.441 262.923C399.488 262.997 398.462 262.63 397.583 261.897Z" fill="#1E2E34"/>
<path d="M411.653 257.643C411.653 259.33 410.407 260.357 408.428 260.357H406.303V262.923H405.497V254.93H408.502C410.407 254.93 411.653 255.956 411.653 257.643ZM410.773 257.643C410.773 256.396 409.967 255.663 408.355 255.663H406.23V259.623H408.355C409.967 259.623 410.773 258.89 410.773 257.643Z" fill="#1E2E34"/>
<path d="M412.825 258.89C412.752 256.543 414.584 254.636 416.856 254.563C419.201 254.49 421.18 256.323 421.253 258.67C421.326 261.017 419.494 262.923 417.222 262.997C417.149 262.997 417.149 262.997 417.076 262.997C414.877 263.07 412.972 261.383 412.899 259.183C412.825 259.036 412.825 258.963 412.825 258.89ZM420.373 258.89C420.373 257.056 418.908 255.516 417.076 255.516C415.244 255.516 413.705 256.983 413.705 258.816C413.705 260.65 415.17 262.19 417.002 262.19H417.076C418.834 262.263 420.373 260.87 420.447 259.036C420.373 259.036 420.373 258.963 420.373 258.89Z" fill="#1E2E34"/>
<path d="M428.581 262.923L426.749 260.357C426.529 260.357 426.309 260.357 426.09 260.357H423.964V262.923H423.158V254.93H426.163C428.215 254.93 429.387 255.956 429.387 257.643C429.46 258.817 428.654 259.843 427.555 260.137L429.534 262.85L428.581 262.923ZM428.508 257.643C428.508 256.396 427.702 255.663 426.09 255.663H423.964V259.697H426.09C427.702 259.623 428.508 258.89 428.508 257.643Z" fill="#1E2E34"/>
<path d="M432.758 255.663H429.974V254.93H436.423V255.663H433.638V262.923H432.832V255.663H432.758Z" fill="#1E2E34"/>
<path d="M352.122 277.104C352.122 274.097 354.174 272.043 356.959 272.043C358.424 271.97 359.89 272.703 360.696 273.877L359.157 275.49C358.717 274.757 357.911 274.39 357.105 274.317C355.64 274.317 354.687 275.417 354.687 277.104C354.687 278.79 355.713 279.89 357.105 279.89C357.911 279.89 358.717 279.45 359.157 278.717L360.696 280.33C359.817 281.504 358.424 282.237 356.959 282.164C354.174 282.237 352.122 280.11 352.122 277.104Z" fill="#00A4FF"/>
<path d="M361.136 277.104C361.282 274.39 363.554 272.337 366.192 272.483C368.904 272.63 370.956 274.904 370.809 277.544C370.662 280.11 368.537 282.164 365.972 282.164C363.334 282.164 361.136 280.037 361.136 277.397C361.136 277.324 361.136 277.25 361.136 277.104ZM368.391 277.104C368.391 275.417 367.365 274.317 366.046 274.317C364.727 274.317 363.701 275.417 363.701 277.104C363.701 278.79 364.727 279.89 366.046 279.89C367.365 279.89 368.391 278.864 368.391 277.104Z" fill="#00A4FF"/>
<path d="M380.775 272.264L377.038 282.017H374.62L370.882 272.264H373.594L375.865 278.644L378.284 272.264H380.775Z" fill="#00A4FF"/>
<path d="M381.288 272.264H383.78V282.017H381.288V272.264Z" fill="#00A4FF"/>
<path d="M385.539 272.264H389.642C392.354 272.264 394.479 274.537 394.479 277.251C394.479 279.891 392.28 282.017 389.642 282.091H385.539V272.264ZM389.569 279.817C391.035 279.817 392.061 278.791 392.061 277.104C392.061 275.417 391.035 274.39 389.569 274.39H387.957V279.744L389.569 279.817Z" fill="#00A4FF"/>
<path d="M395.579 277.031H399.243V279.084H395.579V277.031Z" fill="#00A4FF"/>
<path d="M403.713 272.264V282.017H401.221V274.39H399.609V272.264H403.713Z" fill="#00A4FF"/>
<path d="M412.287 276.884C412.287 280.331 410.382 282.237 407.597 282.237C406.717 282.237 405.765 282.017 405.032 281.504L405.911 279.524C406.351 279.89 406.937 280.037 407.524 280.037C408.769 280.037 409.575 279.23 409.722 277.764C409.209 278.277 408.476 278.497 407.743 278.497C406.131 278.497 404.739 277.25 404.739 275.637C404.739 275.564 404.739 275.49 404.739 275.417C404.739 273.584 406.204 272.117 407.963 272.043C408.036 272.043 408.11 272.043 408.183 272.043C410.675 272.043 412.287 273.73 412.287 276.884ZM409.649 275.27C409.722 274.61 409.209 274.097 408.549 274.024C408.476 274.024 408.476 274.024 408.403 274.024C407.743 274.024 407.157 274.61 407.23 275.344C407.23 276.004 407.743 276.517 408.403 276.517C409.062 276.517 409.575 276.077 409.649 275.417C409.649 275.344 409.649 275.27 409.649 275.27Z" fill="#00A4FF"/>
<path d="M470.659 227.917C468.241 228.137 465.749 228.21 463.331 228.137C459.301 228.137 456.003 228.137 456.003 227.99C460.84 227.77 465.749 227.697 470.659 227.917Z" fill="#1E2E34"/>
<path d="M470.689 231.685C468.27 231.905 465.779 231.978 463.36 231.905C459.33 231.905 456.032 231.905 456.032 231.758C460.869 231.538 465.779 231.465 470.689 231.685Z" fill="#1E2E34"/>
<path d="M470.722 235.454C468.303 235.674 465.812 235.747 463.394 235.674C459.363 235.674 456.065 235.674 456.065 235.527C458.484 235.307 460.975 235.234 463.394 235.307C467.424 235.307 470.722 235.307 470.722 235.454Z" fill="#1E2E34"/>
<path d="M414.49 263.841C414.344 263.767 414.27 263.694 414.124 263.621C412.438 262.594 410.533 262.594 408.774 261.201C405.477 258.634 402.545 241.766 402.545 241.766L392.726 243.453C392.726 243.453 399.468 264.647 399.907 269.268C400.42 274.914 401.006 276.748 398.808 280.561C398.588 281.001 398.295 281.441 398.075 281.808C398.002 281.955 397.855 282.101 397.782 282.248C395.877 285.402 394.191 288.262 394.997 288.628C396.023 289.142 399.541 288.995 404.597 283.715C409.067 279.021 408.115 278.508 410.606 276.235C410.68 276.161 410.68 276.161 410.753 276.088L410.973 275.941C411.266 275.721 411.559 275.428 411.852 275.208C414.564 273.081 416.835 270.881 417.495 268.974C417.935 268.021 417.715 266.847 416.982 266.114C416.322 265.161 415.443 264.501 414.49 263.841Z" fill="#FFC49C"/>
<path d="M414.417 263.875C414.344 263.801 414.197 263.728 414.124 263.655C411.999 266.588 409.947 271.648 406.869 275.535C404.451 278.542 401.3 280.889 397.782 282.282C395.877 285.436 394.191 288.296 394.997 288.663C396.023 289.176 399.541 289.029 404.597 283.749C409.068 279.055 408.115 278.542 410.607 276.269C410.68 276.195 410.68 276.195 410.753 276.122L410.973 275.975C411.266 275.755 411.559 275.462 411.852 275.169C414.417 273.042 416.689 270.915 417.568 268.935C418.008 267.982 417.788 266.808 417.055 266.075C416.323 265.195 415.443 264.461 414.417 263.875Z" fill="#233862"/>
<path d="M338.223 256.68C338.076 254.7 338.003 252.207 339.176 250.3C341.081 247 345.991 239.519 345.991 239.519L336.611 238.786C336.611 238.786 331.334 247.146 327.817 249.2C324.08 251.4 321.075 254.04 316.971 254.553C316.531 254.627 316.019 254.7 315.579 254.7C311.915 255.14 308.544 255.433 308.764 256.313C308.983 257.34 311.035 259.907 317.924 260.64C324.812 261.374 323.64 259.98 328.476 261.154C333.313 262.327 337.563 262.84 338.223 259.834C338.369 258.88 338.369 257.78 338.223 256.68Z" fill="#FFC49C"/>
<path d="M338.143 259.944C338.29 258.843 338.363 257.817 338.217 256.717C334.992 256.643 330.082 257.963 325.465 257.89C321.948 257.743 318.577 256.717 315.646 254.81V254.737C311.982 255.177 308.611 255.47 308.831 256.35C309.05 257.377 311.102 259.944 317.991 260.677C324.879 261.41 323.707 260.017 328.543 261.19C333.233 262.437 337.557 262.95 338.143 259.944Z" fill="#233862"/>
<path d="M392.196 187.64C394.101 189.84 395.787 193.8 397.326 198.713C403.261 217.781 406.486 250.929 406.486 250.929C404.654 252.102 402.675 253.056 400.623 253.789C398.645 254.302 396.593 254.522 394.541 254.376L382.962 223.428L374.168 199.74C374.168 199.813 382.962 176.712 392.196 187.64Z" fill="#0073A5"/>
<path d="M331.165 243.954C332.044 244.907 333.216 245.641 334.462 246.007C336.661 246.814 342.084 246.814 342.084 246.814C342.084 246.814 377.259 216.673 381.436 207.872C385.613 199.072 387.445 190.125 391.476 191.518C414.633 199.659 429.655 207.432 452.006 206.039C459.994 205.525 465.197 200.025 466.15 195.772C470.034 178.391 460.874 157.49 460.874 157.49L425.259 160.277L423.06 163.944C422.327 165.19 420.862 165.85 419.469 165.557C403.714 162.55 388.618 160.423 383.121 162.184C370.151 166.437 331.165 243.954 331.165 243.954Z" fill="#00A4FF"/>
<path d="M425.435 111.221C438.112 118.188 463.834 132.709 463.981 132.636C463.981 132.636 473.434 136.229 478.784 132.636C487.724 126.695 492.488 110.708 476.146 96.9207C468.011 90.0271 462.222 88.4137 461.343 77.4132C460.83 71.473 452.769 51.8188 439.212 53.6522C438.112 53.7989 431.151 54.1656 426.607 56.5123C414.955 62.5993 406.381 108.508 425.435 111.221Z" fill="#233862"/>
<path d="M435.933 98.2689C435.347 94.3087 434.395 90.2019 434.395 90.2019L447.292 85.5817L448.025 85.2883C449.564 95.6288 451.543 97.1689 453.301 97.3155C453.375 97.3155 450.37 103.842 446.413 105.603C442.236 107.436 435.933 105.309 435.933 105.309C436.74 104.796 436.446 101.569 435.933 98.2689Z" fill="#FFB27D"/>
<path d="M447.348 85.5654C446.322 89.5989 443.245 95.8325 435.843 97.1526C435.11 93.1191 434.451 90.1856 434.451 90.1856L447.348 85.5654Z" fill="#ED975D"/>
<path d="M423.488 72.7159C423.855 68.9024 425.393 64.4288 436.752 63.3288C448.111 62.2287 446.938 70.0024 448.551 80.9295C450.163 91.8567 432.575 94.2768 432.575 94.2768C427.885 94.6435 423.122 76.5294 423.488 72.7159Z" fill="#FFB27D"/>
<path d="M441.952 62.506C443.931 62.6527 445.616 63.8994 446.422 65.6595C448.108 69.3996 450.599 72.7731 453.677 75.4866C453.677 75.4866 450.746 77.98 443.051 77.1733C435.357 76.3666 424.145 66.6862 424.145 66.6862C426.123 61.846 436.456 62.066 441.952 62.506Z" fill="#233862"/>
<path d="M423.054 66.4993C419.757 72.0728 425.619 83.5133 425.619 83.5133C424.74 81.0199 425.033 74.7863 426.205 72.1462C427.378 69.4327 431.189 65.7659 431.189 65.7659C431.189 65.7659 426.572 60.6323 423.054 66.4993Z" fill="#233862"/>
<path d="M435.958 98.2722C435.958 98.2722 437.13 105.753 452.08 96.8788C452.593 96.5855 458.455 105.239 464.171 116.02C470.4 127.827 468.715 130.394 466.956 137.727C466.663 139.047 466.37 140.294 466.15 141.467C464.025 152.175 465.857 154.375 463.292 161.415C462.559 163.468 443.286 165.228 432.367 164.495C429.949 164.422 427.53 163.908 425.332 162.955C422.034 161.415 419.909 163.175 421.301 131.274C421.961 113.82 435.958 98.2722 435.958 98.2722Z" fill="#AEC3FF"/>
<path d="M397.252 198.693C403.188 217.76 406.412 250.908 406.412 250.908C404.58 252.082 402.601 253.035 400.55 253.768C398.571 254.282 396.519 254.502 394.467 254.355L382.962 223.407L397.252 198.693Z" fill="#00A4FF"/>
<path d="M430.349 117.362C430.349 117.362 421.409 147.21 417.818 150.804C414.227 154.397 406.386 153.004 406.386 153.004C406.386 153.004 417.012 114.136 418.77 107.535C420.529 100.935 435.992 98.2949 435.992 98.2949L430.349 117.362Z" fill="#AEC3FF"/>
<path d="M434.437 159.554C436.782 155.887 451.951 151.853 456.788 147.526C461.624 143.2 460.818 126.552 460.818 126.552L466.094 141.44C463.969 152.147 465.801 154.347 463.236 161.387C462.504 163.441 443.231 165.201 432.312 164.467C432.678 162.707 433.411 161.02 434.437 159.554Z" fill="#94B0ED"/>
<path d="M443.88 162.27C443.88 162.27 440.729 163.15 435.672 161.463C434.427 161.023 432.008 160.217 431.056 160.437C429.59 160.803 425.193 162.93 425.706 161.757C426.219 160.583 430.469 157.063 432.228 156.11C433.987 155.156 444.759 157.577 444.759 157.577L443.88 162.27Z" fill="#FFB27D"/>
<path d="M456.745 123.937C456.745 127.311 471.841 147.992 470.668 149.092C469.496 150.192 445.386 154.152 443.847 156.572C442.308 158.992 443.407 163.979 443.407 163.979C443.407 163.979 475.578 168.672 484.592 162.292C492.653 156.719 478.583 114.623 471.547 104.723C466.638 97.756 452.128 96.876 452.128 96.876C452.128 96.876 456.745 120.637 456.745 123.937Z" fill="#AEC3FF"/>
<path d="M429.103 159.858L427.564 162.572C428.004 162.572 428.444 162.498 428.81 162.278C429.543 161.912 431.815 158.978 431.815 158.978L429.103 159.858Z" fill="#FFB27D"/>
<path d="M429.682 158.903C428.729 159.269 427.776 159.489 426.824 159.709C426.384 159.709 426.018 159.563 425.725 159.269L432.32 156.042L429.682 158.903Z" fill="#FFB27D"/>
<path d="M413.057 127.818H361.027L376.709 166.833H428.813L413.057 127.818Z" fill="#2B478B"/>
<path d="M376.68 166.822H444.833V165.282H376.094L376.68 166.822Z" fill="#2B478B"/>
<path d="M393.066 149.817C393.359 149.817 393.579 149.817 393.872 149.67C394.825 149.304 395.265 148.277 394.898 147.324C394.385 145.93 393.066 144.903 391.601 144.83C391.381 144.83 391.088 144.83 390.868 144.977C389.915 145.343 389.476 146.37 389.842 147.324C390.282 148.717 391.601 149.744 393.066 149.817Z" fill="#EBF3FA"/>
<path d="M0.952664 614.978C0.439691 614.978 0 614.538 0 614.024V613.584C0 613.071 0.439691 612.631 0.952664 612.631H787.047C787.56 612.631 788 613.071 788 613.584V614.024C788 614.538 787.56 614.978 787.047 614.978H0.952664Z" fill="#2E3552"/>
</g>
<defs>
<clipPath id="clip0_843:13200">
<rect width="788" height="615" fill="white"/>
</clipPath>
</defs>
</svg>
