<svg width="100" height="100" viewBox="0 0 100 100" fill="none" xmlns="http://www.w3.org/2000/svg">
<path d="M51 1H50C22.938 1 1 22.938 1 50C1 77.062 22.938 99 50 99H51C78.062 99 100 77.062 100 50C100 22.938 78.062 1 51 1Z" fill="url(#paint0_linear)"/>
<path d="M70.8712 38.0944L69.4342 39.5314L67.4202 37.5204C67.1254 37.2255 66.7255 37.0597 66.3085 37.0596C65.8915 37.0595 65.4916 37.2251 65.1967 37.5199C64.9018 37.8147 64.7361 38.2145 64.736 38.6315C64.7359 39.0485 64.9014 39.4485 65.1962 39.7434L67.2082 41.7554L65.9792 42.9844L63.9662 40.9724C63.8202 40.8264 63.6468 40.7106 63.4561 40.6317C63.2653 40.5527 63.0608 40.5121 62.8543 40.5121C62.6478 40.5122 62.4434 40.5529 62.2527 40.6319C62.062 40.711 61.8886 40.8268 61.7427 40.9729C61.5967 41.1189 61.4809 41.2923 61.402 41.483C61.323 41.6738 61.2824 41.8783 61.2824 42.0847C61.2825 42.2912 61.3232 42.4956 61.4023 42.6864C61.4813 42.8771 61.5971 43.0504 61.7432 43.1964L63.7552 45.2084L62.5262 46.4384L60.5142 44.4254C60.2182 44.1361 59.8202 43.9752 59.4064 43.9775C58.9926 43.9799 58.5964 44.1453 58.3038 44.4379C58.0112 44.7306 57.8457 45.1268 57.8434 45.5406C57.841 45.9544 58.0019 46.3525 58.2912 46.6484L60.3032 48.6604L59.0732 49.8904L57.0612 47.8774C56.7653 47.5881 56.3672 47.4272 55.9534 47.4295C55.5396 47.4319 55.1434 47.5973 54.8508 47.89C54.5582 48.1826 54.3927 48.5788 54.3904 48.9926C54.388 49.4064 54.5489 49.8045 54.8382 50.1004L56.8502 52.1124L54.5162 54.4464L46.2562 46.1854L62.6102 29.8314C62.7673 29.6819 62.9758 29.5985 63.1927 29.5985C63.4095 29.5985 63.6181 29.6819 63.7752 29.8314L70.8752 36.9314C71.0291 37.0861 71.1155 37.2956 71.1155 37.5139C71.1155 37.7322 71.0291 37.9416 70.8752 38.0964L70.8712 38.0944ZM72.5352 34.1464L73.4352 33.2464C73.8962 32.7843 74.1552 32.1581 74.1552 31.5054C74.1552 30.8526 73.8962 30.2265 73.4352 29.7644L72.8562 29.1844L82.4342 19.6064C82.5218 19.5188 82.5913 19.4148 82.6387 19.3004C82.6861 19.1859 82.7104 19.0632 82.7104 18.9394C82.7104 18.8155 82.6861 18.6928 82.6387 18.5784C82.5913 18.464 82.5218 18.36 82.4342 18.2724C82.3466 18.1848 82.2426 18.1153 82.1282 18.0679C82.0137 18.0205 81.8911 17.9961 81.7672 17.9961C81.6433 17.9961 81.5206 18.0205 81.4062 18.0679C81.2917 18.1153 81.1878 18.1848 81.1002 18.2724L71.5222 27.8504L70.9432 27.2714C70.4812 26.8098 69.8548 26.5505 69.2017 26.5505C68.5486 26.5505 67.9222 26.8098 67.4602 27.2714L66.5602 28.1714L66.0002 27.6114C65.6319 27.2427 65.1945 26.9504 64.7131 26.7509C64.2318 26.5513 63.7158 26.4486 63.1947 26.4486C62.6736 26.4486 62.1577 26.5513 61.6763 26.7509C61.1949 26.9504 60.7575 27.2427 60.3892 27.6114L44.0092 43.9904C43.4727 43.5706 42.8009 43.3621 42.121 43.4045C41.4411 43.4469 40.8004 43.7372 40.3202 44.2204C39.7943 44.7475 39.499 45.4617 39.499 46.2064C39.499 46.951 39.7943 47.6652 40.3202 48.1924L43.6992 51.5714L22.9392 72.3304L20.6862 70.0774C20.3914 69.7825 19.9915 69.6167 19.5745 69.6166C19.1575 69.6165 18.7576 69.7821 18.4627 70.0769C18.1678 70.3717 18.002 70.7715 18.002 71.1885C18.0019 71.6055 18.1674 72.0055 18.4622 72.3004L28.4042 82.2424C28.699 82.5373 29.0988 82.703 29.5158 82.7031C29.9328 82.7032 30.3328 82.5377 30.6277 82.2429C30.9226 81.9481 31.0883 81.5482 31.0884 81.1312C31.0885 80.7143 30.923 80.3143 30.6282 80.0194L28.3752 77.7674L49.1342 57.0074L52.5132 60.3864C53.0147 60.897 53.6928 61.1961 54.408 61.2223C55.1233 61.2486 55.8214 60.9999 56.359 60.5274C56.8966 60.055 57.2329 59.3946 57.2988 58.6819C57.3646 57.9692 57.1551 57.2584 56.7132 56.6954L67.0912 46.3204L70.5412 42.8704L73.0952 40.3204C73.8385 39.5757 74.2559 38.5665 74.2559 37.5144C74.2559 36.4622 73.8385 35.4531 73.0952 34.7084L72.5362 34.1484L72.5352 34.1464Z" fill="white"/>
<path d="M73.4653 52.2663C73.3536 49.5336 72.8542 46.8306 71.9823 44.2383L67.0013 49.6053C67.2391 50.4743 67.3822 51.3665 67.4283 52.2663C67.4223 57.5465 65.322 62.6086 61.5883 66.3423C57.8547 70.0759 52.7925 72.1762 47.5123 72.1823C44.4126 72.1837 41.345 71.5542 38.4963 70.3323L34.1113 74.8633C38.2324 77.0712 42.8361 78.2242 47.5114 78.2193C54.3923 78.2119 60.9894 75.4752 65.855 70.6097C70.7207 65.7442 73.4577 59.1473 73.4653 52.2663Z" fill="white"/>
<path d="M25.9629 66.7165L30.2879 62.2475C28.5293 59.2219 27.5997 55.786 27.5929 52.2864C27.586 48.7868 28.5022 45.3472 30.249 42.3147C31.9958 39.2822 34.5114 36.764 37.542 35.0141C40.5727 33.2641 44.0113 32.3444 47.5109 32.3475C49.1046 32.4048 50.6896 32.6087 52.2459 32.9565L57.2009 28.1306C54.0969 26.9809 50.8205 26.3655 47.5109 26.3105C42.8076 26.3087 38.1923 27.5855 34.1588 30.0045C30.1252 32.4235 26.8252 35.8935 24.6118 40.0434C22.3984 44.1933 21.3548 48.8669 21.5928 53.5642C21.8308 58.2614 23.3414 62.8056 25.9629 66.7106V66.7165Z" fill="white"/>
<path d="M100 50C100 22.3858 77.6142 0 50 0C22.3858 0 0 22.3858 0 50C0 77.6142 22.3858 100 50 100C77.6142 100 100 77.6142 100 50Z" fill="url(#paint1_linear)"/>
<path d="M70.8712 38.0944L69.4342 39.5314L67.4202 37.5204C67.1254 37.2255 66.7255 37.0597 66.3085 37.0596C65.8915 37.0595 65.4916 37.2251 65.1967 37.5199C64.9018 37.8147 64.7361 38.2145 64.736 38.6315C64.7359 39.0485 64.9014 39.4485 65.1962 39.7434L67.2082 41.7554L65.9792 42.9844L63.9662 40.9724C63.8202 40.8264 63.6468 40.7106 63.4561 40.6317C63.2653 40.5527 63.0608 40.5121 62.8543 40.5121C62.6478 40.5122 62.4434 40.5529 62.2527 40.6319C62.062 40.711 61.8886 40.8268 61.7427 40.9729C61.5967 41.1189 61.4809 41.2923 61.402 41.483C61.323 41.6738 61.2824 41.8783 61.2824 42.0847C61.2825 42.2912 61.3232 42.4956 61.4023 42.6864C61.4813 42.8771 61.5971 43.0504 61.7432 43.1964L63.7552 45.2084L62.5262 46.4384L60.5142 44.4254C60.2182 44.1361 59.8202 43.9752 59.4064 43.9775C58.9926 43.9799 58.5964 44.1453 58.3038 44.4379C58.0112 44.7306 57.8457 45.1268 57.8434 45.5406C57.841 45.9544 58.0019 46.3525 58.2912 46.6484L60.3032 48.6604L59.0732 49.8904L57.0612 47.8774C56.7653 47.5881 56.3672 47.4272 55.9534 47.4295C55.5396 47.4319 55.1434 47.5973 54.8508 47.89C54.5582 48.1826 54.3927 48.5788 54.3904 48.9926C54.388 49.4064 54.5489 49.8045 54.8382 50.1004L56.8502 52.1124L54.5162 54.4464L46.2562 46.1854L62.6102 29.8314C62.7673 29.6819 62.9758 29.5985 63.1927 29.5985C63.4095 29.5985 63.6181 29.6819 63.7752 29.8314L70.8752 36.9314C71.0291 37.0861 71.1155 37.2956 71.1155 37.5139C71.1155 37.7322 71.0291 37.9416 70.8752 38.0964L70.8712 38.0944ZM72.5352 34.1464L73.4352 33.2464C73.8962 32.7843 74.1552 32.1581 74.1552 31.5054C74.1552 30.8526 73.8962 30.2265 73.4352 29.7644L72.8562 29.1844L82.4342 19.6064C82.5218 19.5188 82.5913 19.4148 82.6387 19.3004C82.6861 19.1859 82.7104 19.0632 82.7104 18.9394C82.7104 18.8155 82.6861 18.6928 82.6387 18.5784C82.5913 18.464 82.5218 18.36 82.4342 18.2724C82.3466 18.1848 82.2426 18.1153 82.1282 18.0679C82.0137 18.0205 81.8911 17.9961 81.7672 17.9961C81.6433 17.9961 81.5206 18.0205 81.4062 18.0679C81.2917 18.1153 81.1878 18.1848 81.1002 18.2724L71.5222 27.8504L70.9432 27.2714C70.4812 26.8098 69.8548 26.5505 69.2017 26.5505C68.5486 26.5505 67.9222 26.8098 67.4602 27.2714L66.5602 28.1714L66.0002 27.6114C65.6319 27.2427 65.1945 26.9504 64.7131 26.7509C64.2318 26.5513 63.7158 26.4486 63.1947 26.4486C62.6736 26.4486 62.1577 26.5513 61.6763 26.7509C61.1949 26.9504 60.7575 27.2427 60.3892 27.6114L44.0092 43.9904C43.4727 43.5706 42.8009 43.3621 42.121 43.4045C41.4411 43.4469 40.8004 43.7372 40.3202 44.2204C39.7943 44.7475 39.499 45.4617 39.499 46.2064C39.499 46.951 39.7943 47.6652 40.3202 48.1924L43.6992 51.5714L22.9392 72.3304L20.6862 70.0774C20.3914 69.7825 19.9915 69.6167 19.5745 69.6166C19.1575 69.6165 18.7576 69.7821 18.4627 70.0769C18.1678 70.3717 18.002 70.7715 18.002 71.1885C18.0019 71.6055 18.1674 72.0055 18.4622 72.3004L28.4042 82.2424C28.699 82.5373 29.0988 82.703 29.5158 82.7031C29.9328 82.7032 30.3328 82.5377 30.6277 82.2429C30.9226 81.9481 31.0883 81.5482 31.0884 81.1312C31.0885 80.7143 30.923 80.3143 30.6282 80.0194L28.3752 77.7674L49.1342 57.0074L52.5132 60.3864C53.0147 60.897 53.6928 61.1961 54.408 61.2223C55.1233 61.2486 55.8214 60.9999 56.359 60.5274C56.8966 60.055 57.2329 59.3946 57.2988 58.6819C57.3646 57.9692 57.1551 57.2584 56.7132 56.6954L67.0912 46.3204L70.5412 42.8704L73.0952 40.3204C73.8385 39.5757 74.2559 38.5665 74.2559 37.5144C74.2559 36.4622 73.8385 35.4531 73.0952 34.7084L72.5362 34.1484L72.5352 34.1464Z" fill="white"/>
<path d="M73.4653 52.2663C73.3536 49.5336 72.8542 46.8306 71.9823 44.2383L67.0013 49.6053C67.2391 50.4743 67.3822 51.3665 67.4283 52.2663C67.4223 57.5465 65.322 62.6086 61.5883 66.3423C57.8547 70.0759 52.7925 72.1762 47.5123 72.1823C44.4126 72.1837 41.345 71.5542 38.4963 70.3323L34.1113 74.8633C38.2324 77.0712 42.8361 78.2242 47.5114 78.2193C54.3923 78.2119 60.9894 75.4752 65.855 70.6097C70.7207 65.7442 73.4577 59.1473 73.4653 52.2663Z" fill="white"/>
<path d="M25.9629 66.7165L30.2879 62.2475C28.5293 59.2219 27.5997 55.786 27.5929 52.2864C27.586 48.7868 28.5022 45.3472 30.249 42.3147C31.9958 39.2822 34.5114 36.764 37.542 35.0141C40.5727 33.2641 44.0113 32.3444 47.5109 32.3475C49.1046 32.4048 50.6896 32.6087 52.2459 32.9565L57.2009 28.1306C54.0969 26.9809 50.8205 26.3655 47.5109 26.3105C42.8076 26.3087 38.1923 27.5855 34.1588 30.0045C30.1252 32.4235 26.8252 35.8935 24.6118 40.0434C22.3984 44.1933 21.3548 48.8669 21.5928 53.5642C21.8308 58.2614 23.3414 62.8056 25.9629 66.7106V66.7165Z" fill="white"/>
<defs>
<linearGradient id="paint0_linear" x1="1" y1="50" x2="100" y2="50" gradientUnits="userSpaceOnUse">
<stop stop-color="#008CFF"/>
<stop offset="1" stop-color="#00C8FF"/>
</linearGradient>
<linearGradient id="paint1_linear" x1="0" y1="50" x2="100" y2="50" gradientUnits="userSpaceOnUse">
<stop stop-color="#FF836A"/>
<stop offset="1" stop-color="#EB3C7D"/>
</linearGradient>
</defs>
</svg>
