<svg width="415" height="415" viewBox="0 0 415 415" fill="none" xmlns="http://www.w3.org/2000/svg">
<path d="M205.89 402.193C310.162 402.193 394.69 353.391 394.69 293.189C394.69 232.988 310.162 184.186 205.89 184.186C101.619 184.186 17.09 232.988 17.09 293.189C17.09 353.391 101.619 402.193 205.89 402.193Z" fill="#F5F5F5"/>
<path d="M95.5333 354.825C127.869 354.825 154.081 339.689 154.081 321.019C154.081 302.349 127.869 287.213 95.5333 287.213C63.198 287.213 36.9851 302.349 36.9851 321.019C36.9851 339.689 63.198 354.825 95.5333 354.825Z" fill="#E0E0E0"/>
<path d="M199.922 345.786L193.174 341.894V283.495L314.553 213.418L321.293 217.311V275.709L199.922 345.786Z" fill="#00A4FF"/>
<path opacity="0.2" d="M199.922 345.786L193.174 341.894V283.495L314.553 213.418L321.293 217.311V275.709L199.922 345.786Z" fill="black"/>
<path d="M199.921 287.387L321.292 217.311V275.709L199.921 345.786V287.387Z" fill="#00A4FF"/>
<path d="M267.35 248.461L260.602 244.56C256.576 244.367 252.621 243.424 248.941 241.779C247.046 240.378 245.305 238.781 243.745 237.015C233.478 225.395 243.745 203.69 243.745 203.69L238.292 200.536C217.226 219.518 210.03 243.481 223.518 265.974L230.266 269.866L267.35 248.461Z" fill="#00A4FF"/>
<path opacity="0.2" d="M267.35 248.461L260.602 244.56C256.576 244.367 252.621 243.424 248.941 241.779C247.046 240.378 245.305 238.781 243.745 237.015C233.478 225.395 243.745 203.69 243.745 203.69L238.292 200.536C217.226 219.518 210.03 243.481 223.518 265.974L230.266 269.866L267.35 248.461Z" fill="black"/>
<path d="M230.266 269.867C216.779 247.374 222.68 222.664 243.746 203.691C243.746 203.691 233.479 225.403 243.746 237.015C246.732 240.384 250.355 243.13 254.406 245.094C258.457 247.058 262.856 248.203 267.351 248.461L230.266 269.867Z" fill="#00A4FF"/>
<path d="M240.542 298.601C241.05 298.289 241.614 298.078 242.202 297.978C242.631 297.895 243.076 297.985 243.439 298.227C243.837 298.509 244.129 298.915 244.269 299.381C244.478 300.052 244.574 300.754 244.551 301.456C244.558 302.27 244.464 303.081 244.269 303.871C244.084 304.591 243.805 305.283 243.439 305.93C242.769 307.158 241.776 308.18 240.567 308.885L238.741 309.931V314.404C238.742 314.572 238.702 314.737 238.625 314.886C238.57 315.02 238.478 315.135 238.359 315.218L236.492 316.297C236.455 316.329 236.408 316.347 236.359 316.347C236.31 316.347 236.263 316.329 236.226 316.297C236.182 316.251 236.148 316.196 236.128 316.136C236.108 316.075 236.102 316.011 236.11 315.948V301.763C236.11 301.596 236.15 301.431 236.226 301.282C236.284 301.15 236.376 301.036 236.492 300.95L240.542 298.601ZM238.716 306.519L240.468 305.507C240.874 305.269 241.214 304.932 241.455 304.527C241.733 304.058 241.872 303.52 241.854 302.975C241.854 302.361 241.721 301.996 241.455 301.871C241.289 301.82 241.113 301.808 240.942 301.837C240.77 301.866 240.608 301.934 240.468 302.037L238.716 303.05V306.519Z" fill="#455A64"/>
<path d="M252.826 303.34C252.865 303.309 252.913 303.291 252.963 303.291C253.013 303.291 253.062 303.309 253.1 303.34C253.14 303.389 253.171 303.444 253.189 303.504C253.208 303.564 253.214 303.627 253.208 303.689V306.013C253.208 306.18 253.171 306.344 253.1 306.494C253.04 306.627 252.945 306.742 252.826 306.826L246.236 310.636C246.198 310.669 246.15 310.688 246.099 310.688C246.049 310.688 246 310.669 245.962 310.636C245.922 310.588 245.892 310.533 245.873 310.473C245.855 310.413 245.848 310.35 245.854 310.288V296.128C245.854 295.961 245.891 295.797 245.962 295.646C246.017 295.51 246.113 295.394 246.236 295.314L248.104 294.235C248.14 294.203 248.187 294.185 248.236 294.185C248.285 294.185 248.333 294.203 248.369 294.235C248.411 294.283 248.443 294.338 248.463 294.398C248.483 294.458 248.49 294.521 248.485 294.584V305.855L252.826 303.34Z" fill="#455A64"/>
<path d="M261.566 298.294C261.604 298.261 261.653 298.242 261.703 298.242C261.753 298.242 261.802 298.261 261.84 298.294C261.88 298.342 261.91 298.398 261.929 298.457C261.947 298.517 261.954 298.58 261.948 298.643V300.967C261.948 301.133 261.911 301.297 261.84 301.448C261.786 301.584 261.69 301.701 261.566 301.78L254.81 305.698C254.772 305.731 254.723 305.749 254.673 305.749C254.623 305.749 254.574 305.731 254.536 305.698C254.496 305.65 254.466 305.594 254.447 305.534C254.429 305.474 254.422 305.411 254.428 305.349V291.173C254.428 291.006 254.465 290.842 254.536 290.691C254.596 290.558 254.691 290.444 254.81 290.359L261.45 286.533C261.487 286.498 261.536 286.478 261.587 286.478C261.638 286.478 261.687 286.498 261.724 286.533C261.765 286.58 261.797 286.636 261.817 286.695C261.837 286.755 261.845 286.818 261.84 286.881V289.205C261.837 289.372 261.797 289.537 261.724 289.687C261.669 289.823 261.574 289.939 261.45 290.019L257.067 292.55V294.916L261.143 292.567C261.18 292.536 261.227 292.519 261.276 292.519C261.324 292.519 261.371 292.536 261.408 292.567C261.451 292.616 261.483 292.672 261.503 292.734C261.523 292.795 261.53 292.86 261.525 292.924V295.24C261.522 295.409 261.482 295.576 261.408 295.729C261.354 295.861 261.262 295.974 261.143 296.053L257.067 298.41V300.859L261.566 298.294Z" fill="#455A64"/>
<path d="M268.854 282.258C269.045 282.142 269.194 282.142 269.294 282.258C269.39 282.361 269.458 282.487 269.493 282.623L272.597 294.65C272.631 294.743 272.651 294.841 272.655 294.94C272.652 295.078 272.621 295.214 272.564 295.339C272.522 295.45 272.442 295.544 272.34 295.604L270.58 296.617C270.389 296.725 270.256 296.742 270.173 296.667C270.099 296.592 270.05 296.497 270.032 296.393L269.626 294.799L265.841 296.991L265.442 299.041C265.415 299.197 265.365 299.348 265.293 299.489C265.202 299.665 265.061 299.81 264.886 299.904L263.093 300.941C263.063 300.967 263.025 300.981 262.986 300.981C262.946 300.981 262.908 300.967 262.878 300.941C262.842 300.904 262.814 300.86 262.797 300.811C262.78 300.762 262.773 300.711 262.778 300.659C262.788 300.536 262.807 300.414 262.836 300.294L265.907 284.69C265.957 284.482 266.026 284.279 266.115 284.084C266.202 283.879 266.353 283.707 266.546 283.594L268.854 282.258ZM266.546 293.164L268.854 291.828L267.7 287.238L266.546 293.164Z" fill="#455A64"/>
<path d="M277.328 277.145C277.829 276.83 278.398 276.637 278.988 276.581C279.445 276.552 279.902 276.649 280.308 276.863C280.661 277.083 280.948 277.396 281.138 277.768C281.346 278.162 281.457 278.6 281.461 279.046C281.459 279.181 281.428 279.314 281.37 279.436C281.327 279.542 281.255 279.634 281.162 279.702L279.295 280.781C279.203 280.846 279.092 280.878 278.979 280.872C278.887 280.858 278.801 280.817 278.731 280.756C278.731 280.756 278.656 280.681 278.589 280.615C278.518 280.54 278.43 280.483 278.332 280.449C278.193 280.403 278.046 280.389 277.9 280.407C277.679 280.449 277.468 280.534 277.278 280.656C277.094 280.757 276.919 280.873 276.755 281.005C276.593 281.131 276.445 281.276 276.315 281.436C276.186 281.595 276.08 281.771 276 281.959C275.922 282.155 275.883 282.363 275.884 282.573C275.867 282.742 275.914 282.911 276.016 283.046C276.079 283.099 276.152 283.138 276.231 283.163C276.309 283.187 276.391 283.195 276.473 283.188C276.753 283.177 277.032 283.135 277.303 283.063L278.614 282.723C279.056 282.593 279.515 282.532 279.976 282.54C280.334 282.556 280.677 282.687 280.955 282.914C281.24 283.177 281.442 283.517 281.536 283.893C281.679 284.434 281.743 284.993 281.727 285.553C281.727 286.293 281.618 287.028 281.403 287.736C281.184 288.45 280.874 289.134 280.482 289.769C280.093 290.41 279.624 290.998 279.087 291.521C278.564 292.046 277.972 292.498 277.328 292.865C276.794 293.2 276.193 293.416 275.568 293.496C275.095 293.547 274.616 293.46 274.19 293.247C273.804 293.029 273.49 292.703 273.286 292.309C273.06 291.861 272.944 291.366 272.945 290.865C272.963 290.736 273.005 290.612 273.07 290.5C273.115 290.397 273.186 290.308 273.277 290.243L275.145 289.164C275.239 289.102 275.348 289.065 275.46 289.056C275.543 289.067 275.62 289.102 275.684 289.155L275.859 289.346C275.942 289.44 276.044 289.516 276.157 289.57C276.311 289.64 276.48 289.668 276.647 289.653C276.902 289.624 277.146 289.536 277.361 289.396C277.828 289.134 278.253 288.804 278.623 288.417C278.943 288.098 279.125 287.665 279.129 287.213C279.14 287.13 279.129 287.046 279.097 286.968C279.065 286.891 279.013 286.824 278.946 286.773C278.774 286.687 278.58 286.658 278.39 286.69C278.069 286.719 277.752 286.78 277.444 286.873C277.054 286.972 276.614 287.097 276.083 287.221C275.726 287.364 275.337 287.405 274.959 287.339C274.581 287.273 274.228 287.103 273.941 286.848C273.411 286.082 273.17 285.152 273.261 284.225C273.268 283.562 273.362 282.904 273.543 282.266C273.931 280.871 274.642 279.586 275.618 278.515C276.111 277.97 276.688 277.507 277.328 277.145Z" fill="#455A64"/>
<path d="M290.351 281.677C290.39 281.647 290.439 281.63 290.488 281.63C290.538 281.63 290.586 281.647 290.625 281.677C290.706 281.778 290.745 281.906 290.733 282.034V284.358C290.732 284.524 290.695 284.689 290.625 284.839C290.568 284.975 290.473 285.09 290.351 285.171L283.603 289.064C283.567 289.097 283.519 289.115 283.47 289.115C283.421 289.115 283.374 289.097 283.338 289.064C283.294 289.017 283.26 288.96 283.24 288.899C283.22 288.837 283.214 288.772 283.221 288.707V274.597C283.219 274.43 283.259 274.264 283.338 274.116C283.389 273.98 283.482 273.864 283.603 273.784L290.243 269.949C290.281 269.916 290.33 269.898 290.38 269.898C290.431 269.898 290.479 269.916 290.517 269.949C290.56 269.996 290.593 270.051 290.613 270.111C290.633 270.171 290.64 270.235 290.633 270.298V272.622C290.629 272.789 290.59 272.953 290.517 273.103C290.46 273.238 290.365 273.354 290.243 273.435L285.861 275.967V278.332L289.936 275.983C289.972 275.949 290.019 275.93 290.069 275.93C290.119 275.93 290.166 275.949 290.202 275.983C290.243 276.031 290.275 276.086 290.295 276.146C290.315 276.206 290.323 276.269 290.318 276.332V278.656C290.316 278.823 290.276 278.988 290.202 279.137C290.15 279.273 290.057 279.389 289.936 279.469L285.861 281.818V284.308L290.351 281.677Z" fill="#455A64"/>
<path d="M294.808 277.311C294.804 277.478 294.764 277.643 294.692 277.793C294.633 277.925 294.542 278.039 294.426 278.125L292.633 279.154C292.596 279.189 292.547 279.209 292.496 279.209C292.445 279.209 292.396 279.189 292.359 279.154C292.318 279.107 292.286 279.051 292.266 278.992C292.246 278.932 292.238 278.868 292.243 278.805V269.344C292.245 269.176 292.285 269.012 292.359 268.862C292.411 268.724 292.508 268.607 292.633 268.53L294.426 267.493C294.463 267.462 294.51 267.445 294.559 267.445C294.607 267.445 294.654 267.462 294.692 267.493C294.734 267.541 294.766 267.598 294.786 267.659C294.806 267.721 294.813 267.785 294.808 267.85V277.311ZM294.808 282.026C294.804 282.193 294.764 282.357 294.692 282.507C294.637 282.639 294.545 282.752 294.426 282.831L292.633 283.86C292.596 283.895 292.547 283.915 292.496 283.915C292.445 283.915 292.396 283.895 292.359 283.86C292.318 283.813 292.286 283.757 292.266 283.698C292.246 283.638 292.238 283.574 292.243 283.512V281.287C292.246 281.12 292.286 280.956 292.359 280.806C292.414 280.669 292.51 280.553 292.633 280.474L294.426 279.436C294.463 279.404 294.51 279.386 294.559 279.386C294.608 279.386 294.655 279.404 294.692 279.436C294.735 279.483 294.767 279.538 294.787 279.598C294.807 279.658 294.814 279.722 294.808 279.785V282.026Z" fill="#455A64"/>
<path d="M299.107 274.83C299.103 274.996 299.064 275.161 298.991 275.311C298.933 275.443 298.841 275.557 298.725 275.643L296.933 276.672C296.896 276.707 296.847 276.727 296.796 276.727C296.745 276.727 296.696 276.707 296.659 276.672C296.617 276.625 296.585 276.569 296.565 276.51C296.545 276.45 296.538 276.386 296.542 276.324V266.862C296.544 266.694 296.584 266.53 296.659 266.38C296.711 266.242 296.807 266.125 296.933 266.048L298.725 265.011C298.762 264.978 298.809 264.96 298.858 264.96C298.907 264.96 298.954 264.978 298.991 265.011C299.033 265.059 299.065 265.116 299.085 265.177C299.105 265.239 299.113 265.303 299.107 265.368V274.83ZM299.107 279.544C299.103 279.711 299.064 279.875 298.991 280.025C298.937 280.157 298.844 280.27 298.725 280.349L296.933 281.37C296.895 281.403 296.846 281.422 296.796 281.422C296.745 281.422 296.696 281.403 296.659 281.37C296.617 281.323 296.585 281.267 296.565 281.207C296.545 281.148 296.538 281.084 296.542 281.021V278.805C296.545 278.638 296.585 278.474 296.659 278.324C296.713 278.187 296.809 278.071 296.933 277.992L298.725 276.954C298.762 276.922 298.809 276.904 298.858 276.904C298.907 276.904 298.954 276.922 298.991 276.954C299.034 277.001 299.066 277.056 299.086 277.116C299.106 277.176 299.113 277.24 299.107 277.303V279.544Z" fill="#455A64"/>
<path d="M303.406 272.348C303.402 272.515 303.363 272.679 303.29 272.83C303.232 272.961 303.14 273.076 303.025 273.162L301.232 274.191C301.195 274.226 301.146 274.245 301.095 274.245C301.044 274.245 300.995 274.226 300.958 274.191C300.916 274.143 300.884 274.088 300.864 274.028C300.845 273.968 300.837 273.905 300.842 273.842V264.38C300.844 264.213 300.883 264.048 300.958 263.899C301.01 263.761 301.106 263.644 301.232 263.567L303.025 262.529C303.061 262.497 303.108 262.479 303.157 262.479C303.206 262.479 303.254 262.497 303.29 262.529C303.332 262.578 303.365 262.635 303.384 262.696C303.404 262.757 303.412 262.822 303.406 262.886V272.348ZM303.406 277.054C303.403 277.224 303.364 277.391 303.29 277.544C303.236 277.676 303.143 277.789 303.025 277.868L301.232 278.88C301.194 278.913 301.145 278.932 301.095 278.932C301.044 278.932 300.996 278.913 300.958 278.88C300.916 278.833 300.884 278.778 300.864 278.718C300.845 278.658 300.837 278.595 300.842 278.532V276.316C300.845 276.148 300.884 275.984 300.958 275.834C301.01 275.696 301.106 275.579 301.232 275.502L303.025 274.465C303.061 274.432 303.108 274.414 303.157 274.414C303.206 274.414 303.254 274.432 303.29 274.465C303.333 274.511 303.366 274.566 303.386 274.626C303.406 274.687 303.413 274.75 303.406 274.813V277.054Z" fill="#455A64"/>
<path d="M230.06 281.503C230.267 281.378 230.425 281.378 230.541 281.503C230.647 281.615 230.724 281.752 230.765 281.901L234.21 295.231C234.247 295.335 234.269 295.444 234.276 295.555C234.272 295.707 234.235 295.857 234.168 295.995C234.117 296.115 234.034 296.218 233.927 296.293L231.935 297.439C231.731 297.561 231.581 297.577 231.487 297.489C231.398 297.412 231.339 297.306 231.321 297.19L230.881 295.422L226.682 297.846L226.242 300.12C226.206 300.293 226.147 300.46 226.067 300.618C225.975 300.819 225.817 300.983 225.619 301.083L223.635 302.236C223.6 302.265 223.556 302.28 223.511 302.28C223.466 302.28 223.422 302.265 223.386 302.236C223.312 302.146 223.276 302.029 223.287 301.913C223.293 301.778 223.313 301.645 223.345 301.514L226.789 284.217C226.84 283.987 226.918 283.764 227.022 283.553C227.116 283.321 227.286 283.128 227.503 283.005L230.06 281.503ZM227.503 293.596L230.06 292.127L228.781 287.031L227.503 293.596Z" fill="#455A64"/>
<path d="M242.559 274.282C242.6 274.245 242.654 274.225 242.709 274.225C242.764 274.225 242.817 274.245 242.858 274.282C242.904 274.335 242.939 274.397 242.96 274.464C242.982 274.531 242.989 274.602 242.983 274.672V277.245C242.981 277.432 242.939 277.616 242.858 277.784C242.796 277.932 242.692 278.059 242.559 278.149L239.779 279.751V292.201C239.777 292.388 239.735 292.572 239.654 292.741C239.592 292.889 239.488 293.016 239.356 293.106L237.289 294.301C237.248 294.338 237.195 294.358 237.139 294.358C237.084 294.358 237.031 294.338 236.99 294.301C236.943 294.249 236.906 294.187 236.884 294.12C236.861 294.053 236.852 293.982 236.857 293.911V281.461L234.06 283.071C234.019 283.108 233.966 283.128 233.911 283.128C233.856 283.128 233.803 283.108 233.761 283.071C233.712 283.02 233.675 282.958 233.652 282.891C233.629 282.824 233.621 282.752 233.629 282.681V280.108C233.629 279.92 233.675 279.735 233.761 279.569C233.824 279.421 233.927 279.294 234.06 279.204L242.559 274.282Z" fill="#455A64"/>
<path d="M252.519 268.538C252.56 268.5 252.613 268.478 252.669 268.478C252.724 268.478 252.778 268.5 252.818 268.538C252.864 268.592 252.899 268.654 252.92 268.721C252.942 268.788 252.949 268.858 252.943 268.928V271.501C252.941 271.688 252.899 271.872 252.818 272.041C252.756 272.189 252.652 272.316 252.519 272.406L249.739 274.008V286.458C249.737 286.645 249.695 286.829 249.614 286.997C249.552 287.146 249.448 287.272 249.316 287.363L247.249 288.558C247.208 288.595 247.155 288.615 247.099 288.615C247.044 288.615 246.991 288.595 246.95 288.558C246.904 288.506 246.87 288.446 246.848 288.38C246.827 288.314 246.819 288.245 246.826 288.176V275.726L244.02 277.32C243.979 277.356 243.926 277.377 243.871 277.377C243.816 277.377 243.762 277.356 243.721 277.32C243.672 277.268 243.635 277.207 243.612 277.139C243.589 277.072 243.581 277 243.589 276.93V274.357C243.589 274.169 243.635 273.984 243.721 273.817C243.784 273.669 243.887 273.542 244.02 273.452L252.519 268.538Z" fill="#455A64"/>
<path d="M262.28 276.025C262.321 275.988 262.374 275.968 262.429 275.968C262.485 275.968 262.538 275.988 262.579 276.025C262.625 276.077 262.659 276.137 262.681 276.203C262.702 276.269 262.71 276.338 262.703 276.407V278.988C262.702 279.172 262.659 279.353 262.579 279.519C262.518 279.67 262.414 279.8 262.28 279.893L254.81 284.209C254.768 284.244 254.715 284.263 254.661 284.263C254.606 284.263 254.553 284.244 254.511 284.209C254.42 284.1 254.375 283.96 254.387 283.819V268.09C254.388 267.906 254.431 267.724 254.511 267.559C254.581 267.434 254.685 267.33 254.81 267.26L262.164 263.019C262.205 262.982 262.258 262.962 262.313 262.962C262.368 262.962 262.422 262.982 262.463 263.019C262.511 263.071 262.548 263.132 262.571 263.2C262.593 263.267 262.602 263.338 262.595 263.409V265.982C262.595 266.17 262.549 266.355 262.463 266.521C262.401 266.669 262.297 266.796 262.164 266.887L257.3 269.667V272.298L261.815 269.692C261.858 269.656 261.913 269.637 261.969 269.637C262.025 269.637 262.079 269.656 262.122 269.692C262.214 269.801 262.258 269.941 262.247 270.082V272.655C262.245 272.842 262.203 273.026 262.122 273.195C262.058 273.344 261.951 273.471 261.815 273.56L257.3 276.183V278.88L262.28 276.025Z" fill="#455A64"/>
<path d="M271.701 274.473C271.518 274.572 271.377 274.589 271.269 274.473C271.183 274.416 271.109 274.343 271.053 274.257L267.434 268.032V276.24C267.433 276.427 267.39 276.611 267.31 276.78C267.248 276.928 267.144 277.055 267.011 277.145L264.944 278.34C264.903 278.377 264.85 278.397 264.795 278.397C264.74 278.397 264.687 278.377 264.646 278.34C264.6 278.289 264.565 278.228 264.544 278.162C264.522 278.097 264.515 278.027 264.521 277.959V262.28C264.523 262.096 264.565 261.914 264.646 261.749C264.704 261.596 264.808 261.465 264.944 261.375L266.604 260.429C266.779 260.329 266.928 260.313 267.036 260.429C267.121 260.487 267.194 260.56 267.252 260.645L270.862 266.87V258.661C270.864 258.474 270.906 258.29 270.987 258.122C271.051 257.972 271.158 257.845 271.294 257.756L273.361 256.561C273.402 256.524 273.455 256.504 273.51 256.504C273.565 256.504 273.618 256.524 273.659 256.561C273.705 256.614 273.74 256.677 273.761 256.744C273.783 256.811 273.79 256.881 273.784 256.951V272.647C273.782 272.833 273.74 273.018 273.659 273.186C273.597 273.334 273.493 273.461 273.361 273.551L271.701 274.473Z" fill="#455A64"/>
<path d="M284.093 250.303C284.134 250.267 284.187 250.246 284.242 250.246C284.297 250.246 284.35 250.267 284.391 250.303C284.437 250.357 284.472 250.419 284.493 250.486C284.515 250.553 284.522 250.623 284.516 250.694V253.267C284.514 253.453 284.472 253.637 284.391 253.806C284.329 253.954 284.225 254.081 284.093 254.171L281.312 255.773V268.223C281.311 268.41 281.268 268.594 281.188 268.763C281.125 268.911 281.022 269.038 280.889 269.128L278.822 270.323C278.781 270.36 278.728 270.38 278.673 270.38C278.618 270.38 278.564 270.36 278.523 270.323C278.474 270.272 278.436 270.21 278.413 270.143C278.39 270.075 278.382 270.004 278.391 269.933V257.483L275.618 259.093C275.575 259.129 275.521 259.148 275.465 259.148C275.409 259.148 275.354 259.129 275.311 259.093C275.265 259.04 275.231 258.978 275.209 258.911C275.188 258.844 275.18 258.773 275.187 258.703V256.13C275.188 255.943 275.231 255.759 275.311 255.591C275.376 255.441 275.482 255.314 275.618 255.225L284.093 250.303Z" fill="#455A64"/>
<path d="M286.35 266.007C286.309 266.043 286.255 266.064 286.2 266.064C286.145 266.064 286.092 266.043 286.051 266.007C286.004 265.955 285.968 265.895 285.945 265.829C285.922 265.764 285.913 265.694 285.918 265.625V249.896C285.923 249.712 285.968 249.53 286.051 249.365C286.11 249.215 286.215 249.088 286.35 249L288.416 247.805C288.458 247.768 288.511 247.748 288.566 247.748C288.621 247.748 288.674 247.768 288.715 247.805C288.761 247.858 288.796 247.92 288.817 247.987C288.839 248.054 288.846 248.125 288.84 248.195V263.94C288.838 264.127 288.796 264.311 288.715 264.479C288.653 264.627 288.549 264.754 288.416 264.845L286.35 266.007Z" fill="#455A64"/>
<path d="M290.708 252.834C290.741 251.894 290.869 250.96 291.089 250.046C291.311 249.13 291.634 248.242 292.052 247.398C292.464 246.578 292.974 245.811 293.571 245.115C294.156 244.431 294.852 243.85 295.629 243.397C296.243 243.002 296.95 242.776 297.68 242.742C298.235 242.725 298.778 242.911 299.207 243.264C299.66 243.68 299.993 244.211 300.17 244.8C300.41 245.558 300.541 246.346 300.56 247.141C300.56 247.829 300.56 248.552 300.56 249.315C300.56 250.079 300.56 250.793 300.56 251.473C300.523 252.411 300.392 253.342 300.17 254.254C299.95 255.175 299.627 256.069 299.207 256.918C298.802 257.744 298.289 258.512 297.68 259.2C297.092 259.863 296.4 260.424 295.629 260.86C295.013 261.259 294.304 261.49 293.571 261.533C293.016 261.552 292.474 261.363 292.052 261.002C291.6 260.582 291.267 260.049 291.089 259.458C290.852 258.699 290.724 257.911 290.708 257.117C290.708 256.461 290.708 255.756 290.708 254.992C290.708 254.229 290.683 253.54 290.708 252.834ZM297.638 253.034C297.638 252.735 297.638 252.403 297.638 252.046C297.638 251.689 297.638 251.315 297.638 250.942C297.638 250.568 297.638 250.212 297.638 249.871C297.638 249.531 297.638 249.224 297.638 248.95C297.623 248.604 297.568 248.262 297.472 247.929C297.404 247.676 297.273 247.445 297.09 247.257C296.924 247.105 296.709 247.02 296.484 247.016C296.188 247.032 295.902 247.126 295.654 247.29C295.34 247.48 295.06 247.722 294.824 248.004C294.582 248.291 294.378 248.609 294.219 248.95C294.053 249.303 293.928 249.673 293.845 250.054C293.751 250.452 293.696 250.857 293.679 251.266C293.679 251.556 293.679 251.872 293.679 252.228C293.679 252.585 293.679 252.934 293.679 253.307C293.679 253.681 293.679 254.046 293.679 254.403C293.679 254.76 293.679 255.067 293.679 255.349C293.662 255.961 293.852 256.561 294.219 257.051C294.542 257.399 295.048 257.391 295.679 257.009C296.334 256.632 296.845 256.048 297.132 255.349C297.431 254.612 297.602 253.829 297.638 253.034Z" fill="#455A64"/>
<path d="M309.59 252.602C309.526 252.644 309.451 252.666 309.374 252.666C309.298 252.666 309.223 252.644 309.159 252.602C309.072 252.543 308.998 252.467 308.943 252.378L305.332 246.161V254.37C305.331 254.557 305.288 254.741 305.208 254.91C305.143 255.059 305.037 255.186 304.901 255.275L302.826 256.47C302.785 256.507 302.731 256.527 302.676 256.527C302.621 256.527 302.568 256.507 302.527 256.47C302.481 256.417 302.446 256.355 302.425 256.288C302.404 256.221 302.396 256.15 302.402 256.08V240.393C302.404 240.206 302.447 240.022 302.527 239.853C302.589 239.705 302.693 239.579 302.826 239.488L304.486 238.542C304.55 238.497 304.627 238.472 304.706 238.472C304.784 238.472 304.861 238.497 304.926 238.542C305.007 238.601 305.078 238.674 305.133 238.758L308.752 244.983V236.766C308.754 236.582 308.797 236.401 308.876 236.235C308.939 236.087 309.042 235.96 309.175 235.869L311.25 234.641C311.292 234.606 311.345 234.587 311.4 234.587C311.454 234.587 311.507 234.606 311.549 234.641C311.643 234.748 311.691 234.889 311.682 235.031V250.735C311.677 250.919 311.632 251.101 311.549 251.266C311.491 251.419 311.386 251.549 311.25 251.639L309.59 252.602Z" fill="#455A64"/>
<path d="M213.31 318.363L209.99 320.131C209.88 320.218 209.746 320.27 209.607 320.279C209.467 320.289 209.327 320.256 209.206 320.185C209.085 320.115 208.988 320.009 208.928 319.882C208.868 319.756 208.848 319.614 208.87 319.475L208.33 294.965C208.342 294.597 208.446 294.237 208.633 293.92C208.82 293.602 209.084 293.337 209.401 293.148L215.709 289.828C216.315 289.504 216.755 289.828 216.697 290.483L214.439 316.579C214.389 316.939 214.262 317.285 214.067 317.593C213.873 317.901 213.615 318.163 213.31 318.363Z" fill="#FAFAFA"/>
<path d="M211.16 331.452C209.044 332.581 207.84 330.987 207.923 328.821C207.979 327.573 208.33 326.355 208.947 325.269C209.565 324.182 210.431 323.258 211.476 322.571C213.609 321.442 214.796 323.036 214.721 325.202C214.666 326.452 214.314 327.67 213.695 328.757C213.076 329.844 212.207 330.768 211.16 331.452Z" fill="#FAFAFA"/>
<path d="M176.956 298.493C176.724 298.492 176.498 298.411 176.318 298.264C176.138 298.117 176.013 297.912 175.965 297.685C175.916 297.457 175.947 297.22 176.052 297.012C176.157 296.804 176.329 296.639 176.541 296.543L187.041 291.928C187.287 291.818 187.567 291.81 187.82 291.907C188.072 292.003 188.275 292.196 188.385 292.442C188.495 292.689 188.503 292.969 188.407 293.221C188.31 293.473 188.117 293.677 187.871 293.787L177.371 298.402C177.241 298.461 177.099 298.492 176.956 298.493Z" fill="#455A64"/>
<path d="M188.701 283.204C188.572 283.203 188.446 283.178 188.327 283.129L176.649 278.515C176.514 278.474 176.388 278.406 176.281 278.314C176.173 278.223 176.085 278.11 176.024 277.982C175.962 277.855 175.927 277.717 175.922 277.575C175.917 277.434 175.941 277.293 175.993 277.162C176.045 277.03 176.123 276.911 176.224 276.812C176.324 276.712 176.444 276.635 176.576 276.584C176.708 276.533 176.849 276.51 176.99 276.517C177.131 276.524 177.269 276.559 177.396 276.622L189.074 281.237C189.293 281.326 189.474 281.487 189.587 281.695C189.7 281.902 189.738 282.142 189.694 282.374C189.65 282.606 189.527 282.815 189.346 282.967C189.165 283.118 188.937 283.202 188.701 283.204Z" fill="#455A64"/>
<path d="M193.938 272.896C193.762 272.897 193.589 272.852 193.435 272.766C193.28 272.68 193.151 272.556 193.059 272.406L187.298 262.787C187.23 262.672 187.184 262.545 187.165 262.413C187.145 262.281 187.152 262.147 187.184 262.017C187.216 261.888 187.274 261.766 187.353 261.659C187.433 261.551 187.533 261.461 187.647 261.392C187.761 261.323 187.888 261.278 188.02 261.258C188.152 261.239 188.287 261.245 188.416 261.278C188.546 261.31 188.668 261.368 188.775 261.447C188.882 261.526 188.973 261.626 189.041 261.741L194.851 271.36C194.944 271.514 194.994 271.69 194.997 271.87C194.999 272.05 194.954 272.227 194.865 272.383C194.776 272.54 194.647 272.669 194.492 272.76C194.336 272.85 194.16 272.897 193.98 272.896H193.938Z" fill="#455A64"/>
<path d="M328.755 266.679C328.569 266.682 328.386 266.633 328.226 266.537C328.066 266.442 327.936 266.304 327.85 266.14C327.724 265.901 327.698 265.621 327.777 265.363C327.856 265.105 328.035 264.889 328.273 264.762L338.806 259.234C338.925 259.158 339.059 259.107 339.198 259.086C339.338 259.064 339.481 259.071 339.617 259.108C339.754 259.144 339.882 259.208 339.992 259.296C340.102 259.384 340.193 259.494 340.259 259.62C340.325 259.745 340.364 259.882 340.374 260.023C340.384 260.164 340.364 260.306 340.317 260.439C340.269 260.572 340.194 260.693 340.097 260.796C340 260.899 339.882 260.98 339.752 261.035L329.22 266.563C329.077 266.641 328.917 266.681 328.755 266.679Z" fill="#455A64"/>
<path d="M339.927 280.615C339.836 280.627 339.744 280.627 339.653 280.615L327.584 277.22C327.345 277.13 327.149 276.954 327.034 276.726C326.918 276.498 326.892 276.235 326.961 275.99C327.03 275.744 327.188 275.533 327.405 275.398C327.622 275.263 327.881 275.214 328.132 275.261L340.201 278.639C340.435 278.708 340.637 278.859 340.77 279.064C340.903 279.269 340.957 279.515 340.924 279.757C340.891 279.999 340.772 280.221 340.589 280.383C340.406 280.545 340.171 280.636 339.927 280.639V280.615Z" fill="#455A64"/>
<path d="M329.112 296.667C328.949 296.668 328.788 296.629 328.643 296.554C328.499 296.479 328.375 296.369 328.282 296.236L322.04 287.388C321.916 287.167 321.879 286.909 321.935 286.663C321.99 286.416 322.136 286.199 322.342 286.054C322.549 285.908 322.802 285.844 323.053 285.875C323.303 285.905 323.534 286.027 323.7 286.217L329.917 295.065C329.994 295.174 330.05 295.298 330.079 295.429C330.109 295.56 330.112 295.695 330.089 295.827C330.066 295.959 330.017 296.085 329.944 296.198C329.872 296.311 329.778 296.408 329.668 296.485C329.505 296.599 329.311 296.663 329.112 296.667Z" fill="#455A64"/>
<path d="M151.583 18.4838C155.21 16.4171 160.19 16.7325 165.743 19.9197C176.848 26.3356 185.862 41.9313 185.862 54.7797C185.862 61.1873 183.613 65.6942 179.977 67.7941L173.097 71.7532C169.461 73.8448 164.44 73.546 158.887 70.3422C147.782 63.9263 138.768 48.3223 138.768 35.4822C138.768 29.0829 141.009 24.5843 144.636 22.4761C146.155 21.5797 150.039 19.3553 151.583 18.4838Z" fill="#00A4FF"/>
<path opacity="0.15" d="M151.583 18.4838C155.21 16.4171 160.19 16.7325 165.743 19.9197C176.848 26.3356 185.862 41.9313 185.862 54.7797C185.862 61.1873 183.613 65.6942 179.977 67.7941L173.097 71.7532C169.461 73.8448 164.44 73.546 158.887 70.3422C147.782 63.9263 138.768 48.3223 138.768 35.4822C138.768 29.0829 141.009 24.5843 144.636 22.4761C146.155 21.5797 150.039 19.3553 151.583 18.4838Z" fill="black"/>
<path d="M170.067 72.0193C171.327 74.0532 173.05 75.7598 175.097 76.9993C177.384 78.3331 180.003 78.9921 182.65 78.9C182.773 78.8993 182.895 78.8709 183.007 78.817L189.846 74.8745C189.951 74.8153 190.039 74.7292 190.1 74.6249C190.161 74.5206 190.193 74.4019 190.193 74.2811C190.193 74.1602 190.161 74.0415 190.1 73.9372C190.039 73.8329 189.951 73.7468 189.846 73.6876C188.109 72.7406 186.63 71.3849 185.535 69.7377C184.44 68.0905 183.763 66.2015 183.563 64.2339L170.067 72.0193Z" fill="#00A4FF"/>
<path opacity="0.25" d="M170.067 72.0193C171.327 74.0532 173.05 75.7598 175.097 76.9993C177.384 78.3331 180.003 78.9921 182.65 78.9C182.773 78.8993 182.895 78.8709 183.007 78.817L189.846 74.8745C189.951 74.8153 190.039 74.7292 190.1 74.6249C190.161 74.5206 190.193 74.4019 190.193 74.2811C190.193 74.1602 190.161 74.0415 190.1 73.9372C190.039 73.8329 189.951 73.7468 189.846 73.6876C188.109 72.7406 186.63 71.3849 185.535 69.7377C184.44 68.0905 183.763 66.2015 183.563 64.2339L170.067 72.0193Z" fill="black"/>
<path d="M173.107 71.7373C180.963 67.2015 180.963 52.4926 173.106 38.884C165.249 25.2754 152.511 17.9205 144.655 22.4563C136.798 26.9922 136.799 41.7011 144.656 55.3097C152.513 68.9183 165.251 76.2732 173.107 71.7373Z" fill="#00A4FF"/>
<path d="M176.79 65.1633C176.429 67.6252 176.831 70.1386 177.943 72.3648C179.054 74.5909 180.822 76.4227 183.007 77.6133C183.138 77.6884 183.24 77.8044 183.299 77.9435C183.357 78.0825 183.369 78.237 183.331 78.3832C183.293 78.5293 183.209 78.659 183.09 78.7524C182.971 78.8457 182.825 78.8975 182.675 78.8998C180.025 78.9865 177.404 78.3249 175.113 76.9908C169.768 73.6044 169.096 69.5955 169.096 69.5955L176.79 65.1633Z" fill="#00A4FF"/>
<path d="M156.787 52.7548L159.36 54.1326C159.445 54.2013 159.549 54.2425 159.658 54.2509C159.767 54.2592 159.876 54.2343 159.97 54.1794C160.064 54.1246 160.14 54.0423 160.187 53.9435C160.233 53.8448 160.249 53.7342 160.231 53.6263L160.588 34.5364C160.579 34.2494 160.498 33.9694 160.353 33.7216C160.208 33.4737 160.004 33.266 159.758 33.1171L154.845 30.5026C154.372 30.2536 154.015 30.5026 154.073 31.0089L155.832 51.3521C155.876 51.6427 155.984 51.9198 156.149 52.1627C156.314 52.4056 156.532 52.608 156.787 52.7548Z" fill="#FAFAFA"/>
<path d="M158.422 62.9638C160.082 63.8436 161.012 62.5986 160.912 60.9137C160.867 59.9394 160.592 58.9897 160.109 58.1427C159.625 57.2956 158.948 56.5755 158.132 56.0416C156.472 55.1535 155.542 56.4068 155.642 58.0917C155.683 59.0665 155.958 60.0173 156.441 60.8647C156.925 61.7122 157.604 62.4319 158.422 62.9638Z" fill="#FAFAFA"/>
<path d="M361.357 95.84C377.245 95.84 390.125 82.9603 390.125 67.0722C390.125 51.1842 377.245 38.3044 361.357 38.3044C345.469 38.3044 332.59 51.1842 332.59 67.0722C332.59 82.9603 345.469 95.84 361.357 95.84Z" fill="#455A64"/>
<path d="M375.749 70.7079L343.288 89.4576C348.648 93.7874 355.384 96.0495 362.271 95.8325C369.158 95.6155 375.739 92.9337 380.816 88.275C385.892 83.6163 389.129 77.2901 389.935 70.447C390.742 63.604 389.066 56.6987 385.211 50.9871C387.784 58.3243 386.191 64.6821 375.749 70.7079Z" fill="#37474F"/>
<path d="M355.705 86.9342L335.661 75.3142C341.819 98.4546 345.264 133.182 343.678 158.638L351.696 163.269C356.386 147.989 357.44 116.731 355.705 86.9342Z" fill="#37474F"/>
<path d="M380.074 86.7434L371.625 97.5334L371.409 129.032C371.363 135.965 369.524 142.768 366.069 148.779C362.615 154.791 357.663 159.806 351.696 163.336C356.494 145.076 357.041 114.092 355.705 86.9758L380.074 86.7434Z" fill="#455A64"/>
<path d="M353.406 122.624L353.995 122.964C354.525 123.235 355.111 123.376 355.705 123.376C356.3 123.376 356.886 123.235 357.415 122.964L362.005 120.317C362.951 119.769 363.715 120.209 363.715 121.304V122.01C363.683 122.602 363.512 123.179 363.214 123.693C362.917 124.206 362.503 124.642 362.005 124.965L357.34 127.671C356.814 127.941 356.231 128.082 355.639 128.082C355.047 128.082 354.464 127.941 353.937 127.671L353.389 127.339C352.901 127.002 352.498 126.557 352.21 126.039C351.922 125.521 351.757 124.943 351.729 124.351V123.67C351.696 122.525 352.46 122.076 353.406 122.624Z" fill="#00A4FF"/>
<path d="M352.684 132.941L353.273 133.281C353.802 133.552 354.388 133.693 354.983 133.693C355.577 133.693 356.163 133.552 356.693 133.281L361.283 130.634C362.229 130.086 362.992 130.526 362.992 131.621V132.294C362.966 132.882 362.802 133.455 362.513 133.968C362.225 134.481 361.821 134.92 361.332 135.248L356.668 137.954C356.141 138.224 355.558 138.365 354.966 138.365C354.374 138.365 353.791 138.224 353.265 137.954L352.709 137.622C352.222 137.284 351.82 136.839 351.532 136.321C351.245 135.803 351.079 135.226 351.049 134.634V133.954C350.974 132.8 351.738 132.393 352.684 132.941Z" fill="#00A4FF"/>
<path d="M351.97 143.258L352.56 143.598C353.089 143.869 353.675 144.01 354.269 144.01C354.864 144.01 355.45 143.869 355.979 143.598L360.569 140.951C361.515 140.403 362.279 140.843 362.279 141.938V142.602C362.249 143.196 362.078 143.774 361.78 144.29C361.483 144.805 361.068 145.242 360.569 145.565L355.904 148.271C355.378 148.541 354.795 148.682 354.203 148.682C353.611 148.682 353.028 148.541 352.501 148.271L351.954 147.939C351.466 147.602 351.063 147.157 350.775 146.639C350.487 146.121 350.322 145.543 350.294 144.951V144.271C350.26 143.15 351.024 142.71 351.97 143.258Z" fill="#00A4FF"/>
<path d="M323.858 49.7999C327.7 47.5921 332.888 47.6751 338.64 50.4888C339.246 50.7793 339.852 51.103 340.474 51.4599C341.097 51.8168 341.918 52.2899 342.632 52.8211C343.843 53.6245 345.004 54.5004 346.11 55.4439C348.219 57.2395 350.163 59.22 351.92 61.3618C356.763 67.308 360.349 74.1751 362.461 81.5474C363.463 85.0125 363.988 88.5978 364.021 92.2046C364.021 99.5252 361.531 104.721 357.439 107.253L371.931 98.9027C374.616 97.1627 376.811 94.7639 378.306 91.935C379.801 89.1061 380.547 85.9414 380.472 82.7426C380.443 79.3028 379.963 75.8817 379.044 72.5668C376.938 64.9959 373.274 57.9481 368.287 51.8749C366.531 49.7331 364.587 47.7526 362.477 45.957C361.391 45.0041 360.246 44.1198 359.05 43.3093C358.336 42.8196 357.614 42.3631 356.892 41.9481C356.292 41.5973 355.674 41.2787 355.041 40.9936C352.467 39.7762 349.647 39.1677 346.8 39.2152C343.953 39.2627 341.155 39.965 338.623 41.2675L338.217 41.4916C338.051 41.5912 337.868 41.6908 337.702 41.7987L323.858 49.7999Z" fill="#00A4FF"/>
<path opacity="0.1" d="M371.931 98.9028C374.617 97.1628 376.811 94.764 378.306 91.9351C379.802 89.1062 380.547 85.9415 380.472 82.7427C380.443 79.3029 379.964 75.8818 379.045 72.5669L362.445 81.5807C363.446 85.0457 363.971 88.6311 364.005 92.2379C364.005 99.5585 361.515 104.754 357.423 107.286L371.931 98.9028Z" fill="black"/>
<path d="M316.952 65.0221C316.952 80.0368 327.485 98.2885 340.483 105.792C347.015 109.568 352.933 109.942 357.207 107.385C357.288 107.347 357.366 107.303 357.44 107.253C361.515 104.763 364.021 99.5252 364.021 92.2046C364.021 77.1899 353.489 58.9299 340.491 51.4599C334.009 47.7166 328.124 47.3514 323.891 49.7999C319.658 52.2484 316.952 57.5023 316.952 65.0221Z" fill="#00A4FF"/>
<path opacity="0.2" d="M316.952 65.0221C316.952 80.0368 327.485 98.2885 340.483 105.792C347.015 109.568 352.933 109.942 357.207 107.385C357.288 107.347 357.366 107.303 357.44 107.253C361.515 104.763 364.021 99.5252 364.021 92.2046C364.021 77.1899 353.489 58.9299 340.491 51.4599C334.009 47.7166 328.124 47.3514 323.891 49.7999C319.658 52.2484 316.952 57.5023 316.952 65.0221Z" fill="black"/>
<path d="M244.784 61.1378C244.784 61.1378 268.53 73.3305 288.774 108.448C292.424 114.748 295.641 121.29 298.402 128.027C308.586 153.019 307.739 170.225 307.739 170.225C314.819 152.894 323.617 134.95 338.292 121.205C344.039 115.861 350.065 110.824 356.344 106.115C360.229 103.858 362.494 98.9608 362.503 92.2129C362.424 87.484 361.522 82.8049 359.838 78.3852C358.761 75.3852 357.422 72.4857 355.838 69.7199C351.688 62.5737 346.011 56.3403 339.736 52.7132C333.926 49.3434 328.514 48.8537 324.622 51.0532C317.405 54.137 310.03 56.8355 302.527 59.1374C283.279 65.0304 263.334 63.6776 244.784 61.1378Z" fill="#00A4FF"/>
<path opacity="0.6" d="M244.784 61.1378C244.784 61.1378 268.53 73.3305 288.774 108.448C292.424 114.748 295.641 121.29 298.402 128.027C308.586 153.019 307.739 170.225 307.739 170.225C314.819 152.894 323.617 134.95 338.292 121.205C344.039 115.861 350.065 110.824 356.344 106.115C360.229 103.858 362.494 98.9608 362.503 92.2129C362.424 87.484 361.522 82.8049 359.838 78.3852C358.761 75.3852 357.422 72.4857 355.838 69.7199C351.688 62.5737 346.011 56.3403 339.736 52.7132C333.926 49.3434 328.514 48.8537 324.622 51.0532C317.405 54.137 310.03 56.8355 302.527 59.1374C283.279 65.0304 263.334 63.6776 244.784 61.1378Z" fill="white"/>
<path opacity="0.1" d="M298.435 128.036C308.619 153.027 307.772 170.233 307.772 170.233C314.852 152.902 323.65 134.958 338.325 121.213C344.072 115.869 350.098 110.832 356.377 106.124C360.262 103.866 362.528 98.969 362.536 92.2211C362.457 87.4922 361.555 82.8131 359.872 78.3933C341.861 87.3822 312.752 103.999 298.435 128.036Z" fill="black"/>
<path d="M200.03 95.0184C200.03 110.672 204.844 127.812 212.87 143.632C223.154 163.9 238.675 181.994 256.03 192.021C286.964 209.874 312.039 195.399 312.039 159.651C311.948 151.084 310.703 142.569 308.337 134.336C302.427 113.212 289.977 92.0553 274.398 76.8165C272.185 74.6696 269.936 72.6472 267.65 70.7492C266.687 69.9192 265.716 69.1888 264.737 68.4501C263.343 67.396 261.94 66.3834 260.521 65.4372C259.101 64.491 257.549 63.5116 256.039 62.6484C225.138 44.82 200.03 59.3035 200.03 95.0184Z" fill="#00A4FF"/>
<path opacity="0.1" d="M212.895 143.64C223.179 163.908 238.7 182.002 256.055 192.029C286.99 209.882 312.064 195.407 312.064 159.659C311.974 151.092 310.728 142.577 308.362 134.344C306.27 138.959 298.751 145.557 295.389 140.934C297.46 148.244 298.551 155.797 298.634 163.394C298.634 173.653 296.344 181.936 291.994 187.356C288.301 191.979 283.23 194.328 276.922 194.311C270.796 194.311 263.642 192.062 256.313 187.829C241.539 179.305 227.952 163.975 218.324 146.611C218.348 146.644 216.423 148.271 212.895 143.64Z" fill="black"/>
<path d="M203.889 97.0188C203.889 112.789 209.425 130.592 218.348 146.645C227.976 164.008 241.588 179.338 256.337 187.862C263.691 192.095 270.82 194.361 276.946 194.345C283.254 194.345 288.325 192.012 292.018 187.389C296.343 181.969 298.658 173.686 298.658 163.427C298.575 155.83 297.484 148.277 295.413 140.967C294.583 138.071 293.695 135.157 292.633 132.252C290.753 127.114 288.535 122.107 285.993 117.263C285.47 116.25 284.939 115.254 284.391 114.266C283.494 112.606 282.557 110.946 281.577 109.386C278.31 103.936 274.633 98.7418 270.58 93.8482C270.538 93.7984 270.48 93.7403 270.438 93.6822C267.82 90.5397 265.03 87.5443 262.08 84.7099C259.997 82.7096 257.864 80.8504 255.689 79.1074C254.785 78.377 253.863 77.6798 252.934 76.9992C251.822 76.1692 250.693 75.4056 249.564 74.6586C248.435 73.9116 247.34 73.2559 246.244 72.6085C238.865 68.3423 231.744 66.1096 225.61 66.1013C211.99 66.1013 203.889 77.6715 203.889 97.0188Z" fill="#00A4FF"/>
<path opacity="0.4" d="M203.889 97.0188C203.889 112.789 209.425 130.592 218.348 146.645C227.976 164.008 241.588 179.338 256.337 187.862C263.691 192.095 270.82 194.361 276.946 194.345C283.254 194.345 288.325 192.012 292.018 187.389C296.343 181.969 298.658 173.686 298.658 163.427C298.575 155.83 297.484 148.277 295.413 140.967C294.583 138.071 293.695 135.157 292.633 132.252C290.753 127.114 288.535 122.107 285.993 117.263C285.47 116.25 284.939 115.254 284.391 114.266C283.494 112.606 282.557 110.946 281.577 109.386C278.31 103.936 274.633 98.7418 270.58 93.8482C270.538 93.7984 270.48 93.7403 270.438 93.6822C267.82 90.5397 265.03 87.5443 262.08 84.7099C259.997 82.7096 257.864 80.8504 255.689 79.1074C254.785 78.377 253.863 77.6798 252.934 76.9992C251.822 76.1692 250.693 75.4056 249.564 74.6586C248.435 73.9116 247.34 73.2559 246.244 72.6085C238.865 68.3423 231.744 66.1096 225.61 66.1013C211.99 66.1013 203.889 77.6715 203.889 97.0188Z" fill="black"/>
<path d="M244.394 110.614L263.484 144.403C271.51 140.154 281.27 134.867 293.613 135.149C293.297 134.186 292.965 133.223 292.608 132.26C290.727 127.12 288.509 122.11 285.968 117.262C285.448 116.255 284.917 115.259 284.375 114.274C283.47 112.614 282.532 110.954 281.561 109.386C278.295 103.939 274.624 98.7451 270.58 93.8479C270.58 93.7981 270.48 93.74 270.439 93.6819C269.85 92.9847 269.26 92.2792 268.654 91.5986C262.488 102.538 244.394 110.614 244.394 110.614Z" fill="#37474F"/>
<path d="M260.844 144.943C264.994 144.943 267.484 141.623 267.484 135.937V135.763C267.484 126.907 261.234 116.092 253.565 111.693L253.416 111.61C251.668 110.516 249.666 109.892 247.606 109.801C243.456 109.801 240.966 113.171 240.966 118.806V118.981C240.966 127.837 247.216 138.652 254.885 143.051L255.034 143.142C256.785 144.231 258.785 144.851 260.844 144.943Z" fill="#00A4FF"/>
<path d="M124.741 299.63C125.007 296.127 127.438 260.786 127.438 260.786L110.39 273.352C112.88 293.613 113.885 299.082 113.951 302.402C113.88 302.673 113.849 302.953 113.86 303.232C113.86 307.241 118.391 309.399 121.927 312.072C124.919 314.423 128.11 316.508 131.464 318.305C134.029 319.592 139.233 319.708 139.88 318.056C135.589 314.778 130.617 311.2 127.198 307.457C125.579 305.714 124.417 303.855 124.741 299.63Z" fill="#FFA8A7"/>
<path d="M147.209 322.422C147.424 322.422 147.756 324.846 146.561 325.883C145.183 327.07 141.133 329.021 135.771 328.332C130.409 327.643 127.521 325.983 125.38 324.182C123.238 322.381 120.234 319.857 117.81 319.326C115.561 318.828 113.12 317.807 112.398 317.11C111.676 316.413 111.776 313.325 111.776 313.325L147.209 322.422Z" fill="#263238"/>
<path d="M113.926 301.44C113.724 301.438 113.527 301.51 113.374 301.644C113.221 301.777 113.123 301.961 113.096 302.162C112.93 302.992 112.756 305.482 112.399 306.885C111.847 309.348 111.668 311.88 111.868 314.396C112.167 315.981 115.835 317.085 118.176 317.973C120.933 319.183 123.493 320.8 125.77 322.771C128.26 324.846 133.572 327.004 137.067 326.979C141.217 326.979 145.84 325.609 146.902 323.7C148.222 321.327 147.193 319.957 141.092 317.118C139.938 316.587 135.863 314.172 134.452 313.3C130.7 310.935 126.982 307.648 125.256 303.473C125.118 302.959 124.807 302.508 124.376 302.195C124.002 302.034 123.586 301.997 123.189 302.087C122.167 302.228 121.172 302.528 120.242 302.975C119.412 303.365 118.25 303.805 118.275 304.868C118.291 305.234 118.367 305.596 118.499 305.938C118.574 306.154 118.632 306.445 118.441 306.569C118.25 306.694 118.035 306.569 117.877 306.411C117.27 305.797 116.715 305.133 116.217 304.428C115.932 304.063 115.606 303.731 115.246 303.44C114.882 303.238 114.533 303.01 114.2 302.759C113.851 302.394 113.943 301.929 113.926 301.44Z" fill="#37474F"/>
<path d="M125.787 322.77C124.724 321.884 123.616 321.053 122.467 320.28C122.467 320.28 129.671 324.654 132.576 322.671C134.452 321.393 133.564 319.841 133.514 319.351C133.465 318.861 138.096 316.72 139.914 316.504C140.42 316.786 140.843 317.01 141.109 317.135C147.234 319.973 148.263 321.343 146.919 323.717C145.856 325.626 142.487 327.12 137.158 327.12C133.631 327.103 128.302 324.845 125.787 322.77Z" fill="#455A64"/>
<path d="M132.991 317.89C136.792 319.417 135.166 320.123 134.103 320.28C133.041 320.438 126.633 316.687 122.724 313.599C118.649 310.37 116.084 306.843 114.565 305.664C114.001 305.216 113.395 304.676 112.855 304.17C112.955 303.34 113.038 302.568 113.113 302.17C113.139 301.969 113.238 301.785 113.391 301.652C113.544 301.519 113.74 301.446 113.943 301.448C113.943 301.937 113.868 302.402 114.241 302.767C114.574 303.018 114.923 303.246 115.287 303.448C115.647 303.739 115.973 304.071 116.258 304.436C116.756 305.141 117.312 305.805 117.918 306.419C121.18 310.628 129.181 316.363 132.991 317.89Z" fill="#263238"/>
<path d="M133.829 319.708C133.744 319.709 133.661 319.68 133.596 319.625C133.557 319.594 133.525 319.556 133.5 319.512C133.476 319.469 133.461 319.421 133.456 319.371C133.45 319.322 133.455 319.272 133.469 319.224C133.483 319.177 133.507 319.132 133.538 319.094C134.438 318.166 135.525 317.441 136.728 316.967C137.93 316.493 139.22 316.282 140.51 316.346C140.61 316.357 140.702 316.406 140.766 316.484C140.829 316.562 140.86 316.661 140.851 316.761C140.846 316.81 140.831 316.858 140.807 316.902C140.783 316.945 140.751 316.983 140.713 317.014C140.674 317.045 140.63 317.068 140.582 317.081C140.535 317.095 140.485 317.099 140.436 317.093C139.269 317.047 138.105 317.244 137.019 317.673C135.933 318.101 134.948 318.752 134.128 319.583C134.09 319.625 134.044 319.657 133.992 319.679C133.94 319.7 133.885 319.71 133.829 319.708Z" fill="#F0F0F0"/>
<path d="M130.509 317.666C130.424 317.668 130.342 317.638 130.277 317.583C130.2 317.52 130.15 317.429 130.139 317.329C130.129 317.23 130.157 317.13 130.219 317.052C131.118 316.123 132.205 315.397 133.407 314.923C134.61 314.449 135.9 314.238 137.191 314.304C137.24 314.309 137.287 314.324 137.331 314.347C137.374 314.37 137.413 314.402 137.444 314.44C137.475 314.478 137.499 314.522 137.513 314.569C137.527 314.617 137.532 314.666 137.527 314.715C137.522 314.764 137.508 314.812 137.484 314.855C137.461 314.899 137.429 314.937 137.391 314.968C137.353 315 137.309 315.023 137.262 315.037C137.215 315.051 137.165 315.056 137.116 315.051C135.949 315.005 134.786 315.202 133.699 315.631C132.613 316.06 131.628 316.71 130.808 317.541C130.77 317.583 130.724 317.615 130.673 317.637C130.621 317.658 130.565 317.668 130.509 317.666Z" fill="#F0F0F0"/>
<path d="M127.189 315.732C127.105 315.729 127.024 315.7 126.957 315.649C126.918 315.618 126.885 315.58 126.861 315.536C126.837 315.493 126.822 315.445 126.816 315.395C126.811 315.346 126.815 315.296 126.83 315.248C126.844 315.2 126.867 315.156 126.899 315.118C127.796 314.187 128.883 313.46 130.086 312.986C131.289 312.512 132.58 312.302 133.871 312.37C133.92 312.375 133.968 312.39 134.011 312.413C134.055 312.436 134.093 312.468 134.124 312.506C134.155 312.544 134.179 312.588 134.193 312.635C134.207 312.683 134.212 312.732 134.207 312.781C134.202 312.83 134.188 312.878 134.164 312.921C134.141 312.965 134.109 313.003 134.071 313.034C134.033 313.066 133.989 313.089 133.942 313.103C133.895 313.117 133.845 313.122 133.796 313.117C132.628 313.071 131.463 313.268 130.376 313.697C129.288 314.126 128.302 314.776 127.48 315.607C127.444 315.648 127.399 315.681 127.349 315.703C127.299 315.724 127.244 315.734 127.189 315.732Z" fill="#F0F0F0"/>
<path d="M124.118 313.516C124.03 313.519 123.944 313.489 123.877 313.433C123.8 313.37 123.751 313.278 123.74 313.179C123.729 313.08 123.757 312.98 123.819 312.902C124.722 311.976 125.811 311.252 127.014 310.778C128.217 310.305 129.508 310.092 130.799 310.154C130.848 310.16 130.896 310.175 130.94 310.198C130.983 310.222 131.021 310.254 131.052 310.293C131.083 310.331 131.106 310.376 131.119 310.423C131.133 310.471 131.137 310.52 131.131 310.569C131.126 310.619 131.111 310.666 131.088 310.71C131.064 310.753 131.032 310.791 130.993 310.822C130.955 310.853 130.91 310.876 130.863 310.89C130.815 310.903 130.765 310.907 130.716 310.901C129.55 310.855 128.386 311.052 127.3 311.481C126.213 311.91 125.229 312.56 124.408 313.391C124.372 313.433 124.328 313.465 124.277 313.487C124.227 313.508 124.173 313.518 124.118 313.516Z" fill="#F0F0F0"/>
<path d="M121.097 311.308C121.012 311.307 120.931 311.278 120.864 311.225C120.788 311.163 120.739 311.073 120.728 310.975C120.717 310.878 120.745 310.779 120.806 310.702C122.284 308.835 125.62 307.606 128.418 307.913C128.467 307.918 128.514 307.933 128.558 307.956C128.601 307.979 128.639 308.011 128.671 308.049C128.702 308.087 128.725 308.131 128.74 308.178C128.754 308.225 128.759 308.275 128.754 308.324C128.749 308.373 128.734 308.421 128.711 308.464C128.688 308.508 128.656 308.546 128.618 308.577C128.58 308.608 128.536 308.632 128.489 308.646C128.441 308.66 128.392 308.665 128.343 308.66C125.853 308.386 122.707 309.49 121.396 311.15C121.361 311.198 121.317 311.237 121.265 311.264C121.213 311.291 121.155 311.306 121.097 311.308Z" fill="#F0F0F0"/>
<path d="M84.2284 271.518L69.0559 265.094C66.1011 276.041 64.076 291.04 61.3702 301.332C60.8556 303.274 57.4858 316.272 57.0459 320.422C56.3902 326.688 63.6859 327.958 65.0969 324.513C66.5079 321.069 70.6413 306.063 71.1227 304.502C72.9902 297.97 83.9877 272.057 84.2284 271.518Z" fill="#FFA8A7"/>
<path d="M67.0308 327.776C66.151 331.303 65.1467 333.586 63.4867 335.428C61.8267 337.271 59.3367 337.495 56.9961 336.424C54.6555 335.353 51.8916 333.104 51.7837 329.917C51.6758 326.73 52.207 324.613 53.3773 321.401L67.0308 327.776Z" fill="#263238"/>
<path d="M61.694 300.079C60.6814 299.962 59.4862 304.71 58.0088 309.408C56.4152 314.438 55.0457 316.28 53.6928 320.397C52.1573 325.111 52.0327 327.311 53.1449 330.548C54.2571 333.785 59.7601 337.81 63.4702 334.15C66.5163 331.195 67.3297 327.435 68.0103 322.572C68.6676 318.395 69.5542 314.258 70.6663 310.18C71.4963 306.602 72.3263 303.672 71.571 303.108C71.405 303.623 71.2141 304.287 71.0398 304.768C70.8655 305.249 70.4422 307.092 69.8861 307.009C69.9252 306.549 70.0057 306.093 70.1268 305.648C70.2658 305.25 70.248 304.813 70.077 304.428C69.8138 304.109 69.4563 303.883 69.0561 303.78C68.1099 303.407 66.674 302.61 65.7361 302.336C65.2471 302.195 64.7512 302.078 64.2504 301.987C63.6345 301.902 63.0112 301.882 62.3912 301.929C62.2646 301.947 62.143 301.99 62.0344 302.058C61.9257 302.125 61.8324 302.214 61.7604 302.319C61.6754 302.488 61.622 302.671 61.6027 302.859C61.5248 303.179 61.4077 303.489 61.2541 303.78C61.1877 303.913 61.0549 304.071 60.9221 304.004C60.8729 303.97 60.836 303.921 60.8166 303.864C60.7972 303.808 60.7963 303.746 60.8142 303.689C60.9221 303.1 61.0715 302.693 61.2292 302.029C61.2956 301.722 61.4284 301.299 61.4948 300.992C61.5612 300.684 61.6193 300.377 61.694 300.079Z" fill="#37474F"/>
<path d="M54.1826 319.069C53.9502 319.749 52.5226 324.248 53.5933 325.31C54.664 326.373 56.2078 322.986 56.2078 322.986C56.2078 322.986 59.5776 322.604 63.8355 325.476C63.4537 326.182 63.711 328.796 65.0805 328.497C66.45 328.199 67.9357 323.028 67.9523 322.961C67.28 327.618 66.4251 331.261 63.4703 334.117C59.7602 337.81 54.2905 333.785 53.1202 330.548C51.9499 327.311 52.1325 325.111 53.668 320.397C53.8506 319.932 54.0166 319.492 54.1826 319.069Z" fill="#455A64"/>
<path d="M56.5148 323.36C56.1662 325.103 54.556 324.19 54.9461 321.7C55.3362 319.21 57.2203 313.632 58.0088 309.391C59.4862 304.693 60.6814 299.945 61.694 300.062C61.6901 300.12 61.6901 300.178 61.694 300.236L61.0964 302.651C61.0051 303 60.9138 303.307 60.8474 303.689C60.1502 307.241 58.9218 314.022 58.0005 317.209C57.3938 319.231 56.8978 321.284 56.5148 323.36Z" fill="#263238"/>
<path d="M63.3038 325.36C64.1153 323.419 64.8191 321.435 65.412 319.417C66.3582 316.263 68.981 310.105 70.3173 306.718C70.6298 306.106 70.872 305.46 71.0394 304.793C71.1971 304.319 71.3797 303.714 71.5374 303.216V303.116C72.1101 303.531 71.7864 305.465 71.2303 307.864C70.8402 309.233 70.0019 310.694 69.2964 312.727C67.6364 316.711 66.4993 322.571 65.4867 324.862C64.4741 327.153 62.6564 327.02 63.3038 325.36Z" fill="#263238"/>
<path d="M63.9102 325.667C63.8609 325.657 63.8152 325.634 63.7774 325.601C61.589 324.027 58.9338 323.237 56.241 323.36C56.141 323.367 56.0424 323.334 55.9663 323.269C55.8902 323.204 55.8428 323.111 55.8343 323.011C55.8298 322.962 55.8353 322.912 55.8506 322.865C55.8658 322.818 55.8905 322.774 55.9231 322.737C55.9557 322.7 55.9956 322.67 56.0402 322.648C56.0849 322.627 56.1334 322.615 56.1829 322.613C59.0673 322.466 61.9149 323.313 64.2505 325.011C64.3278 325.075 64.3771 325.166 64.388 325.265C64.3988 325.365 64.3704 325.464 64.3086 325.543C64.2622 325.601 64.1994 325.644 64.1284 325.666C64.0575 325.688 63.9815 325.688 63.9102 325.667Z" fill="#F0F0F0"/>
<path d="M65.4541 322.04C65.4117 322.029 65.372 322.01 65.3379 321.982C62.8416 320.316 59.8978 319.448 56.8968 319.492C56.7961 319.495 56.6984 319.458 56.6241 319.39C56.5498 319.322 56.5048 319.228 56.4984 319.127C56.4961 319.027 56.5331 318.93 56.6014 318.857C56.6696 318.785 56.7638 318.741 56.8636 318.737C60.0404 318.681 63.1568 319.609 65.7861 321.393C65.8517 321.448 65.8967 321.524 65.9141 321.608C65.9314 321.692 65.92 321.779 65.8816 321.856C65.8433 321.932 65.7803 321.994 65.7027 322.03C65.6252 322.067 65.5376 322.076 65.4541 322.057V322.04Z" fill="#F0F0F0"/>
<path d="M57.8092 315.923C57.7411 315.901 57.6802 315.861 57.6333 315.807C57.5865 315.752 57.5555 315.686 57.5436 315.616C57.5367 315.567 57.5395 315.517 57.5521 315.469C57.5646 315.421 57.5866 315.376 57.6167 315.336C57.6469 315.297 57.6845 315.264 57.7276 315.239C57.7706 315.214 57.8181 315.199 57.8673 315.192C62.6232 314.512 66.6239 317.624 66.7899 317.757C66.829 317.788 66.8617 317.826 66.8859 317.87C66.9101 317.913 66.9253 317.961 66.9307 318.01C66.9362 318.06 66.9316 318.11 66.9174 318.158C66.9032 318.205 66.8796 318.25 66.848 318.288C66.7849 318.363 66.6954 318.411 66.5981 318.422C66.5008 318.433 66.403 318.406 66.3251 318.346C66.3251 318.346 62.3991 315.3 57.9752 315.939C57.9194 315.947 57.8626 315.941 57.8092 315.923Z" fill="#F0F0F0"/>
<path d="M58.142 312.578C58.0735 312.559 58.0118 312.521 57.9647 312.468C57.9175 312.415 57.8868 312.35 57.8764 312.279C57.8681 312.23 57.8698 312.18 57.8812 312.131C57.8927 312.083 57.9138 312.037 57.9432 311.997C57.9725 311.957 58.0097 311.923 58.0524 311.897C58.0951 311.872 58.1425 311.855 58.1918 311.848C63.4457 311.018 67.7119 314.28 67.8696 314.421C67.9312 314.491 67.965 314.581 67.9645 314.675C67.964 314.768 67.9293 314.858 67.8669 314.928C67.8045 314.997 67.7188 315.041 67.626 315.052C67.5332 315.063 67.4397 315.039 67.3633 314.985C67.3633 314.985 63.2133 311.814 58.308 312.595C58.2521 312.601 58.1954 312.596 58.142 312.578Z" fill="#F0F0F0"/>
<path d="M59.1624 308.826C59.095 308.808 59.0342 308.771 58.9871 308.72C58.9401 308.668 58.9087 308.605 58.8968 308.536C58.8799 308.437 58.9026 308.335 58.9601 308.253C59.0176 308.171 59.1052 308.114 59.2039 308.096C64.1839 307.266 68.7572 310.636 68.9232 310.785C68.9594 310.819 68.9882 310.86 69.0079 310.906C69.0276 310.952 69.0378 311.001 69.0378 311.051C69.0378 311.101 69.0276 311.15 69.0079 311.195C68.9882 311.241 68.9594 311.282 68.9232 311.316C68.8913 311.354 68.8522 311.386 68.8081 311.408C68.764 311.431 68.7158 311.445 68.6663 311.449C68.6169 311.452 68.5672 311.446 68.5201 311.431C68.473 311.415 68.4294 311.39 68.392 311.358C68.392 311.358 63.8768 308.038 59.262 308.868C59.2267 308.86 59.193 308.846 59.1624 308.826Z" fill="#EBEBEB"/>
<path d="M86.5941 158.779C83.2741 166.183 80.228 169.909 78.6095 186.103C75.7211 214.97 73.8702 236.409 73.8702 236.409C73.2062 239.414 71.3802 246.485 68.4669 258.545C65.7528 269.65 62.7482 291.969 62.7482 291.969C62.7482 291.969 70.2182 294.235 77.2981 291.455C81.5228 280.831 91.9227 254.603 95.4419 241.754C98.903 229.122 104.779 209.89 104.779 209.89L108.929 239.098C108.929 239.098 107.967 250.768 108.282 257.657C108.647 265.666 112.141 292.949 112.141 292.949C112.141 292.949 119.802 296.767 125.886 292.359C125.886 292.359 129.381 246.991 129.547 237.347C129.879 218.439 131.281 178.608 128.21 158.779H86.5941Z" fill="#37474F"/>
<path d="M63.4867 286.781C65.9767 289.089 73.206 292.143 77.3062 291.454L75.7043 296.028C75.7043 296.028 74.3846 297.049 69.1722 295.729C63.9598 294.409 62.7563 291.969 62.7563 291.969L63.4867 286.781Z" fill="#455A64"/>
<path d="M111.718 289.728C114.772 291.172 122.375 291.637 126.077 289.728L125.985 294.393C125.985 294.393 124.716 296.136 119.345 296.177C113.975 296.219 112.033 294.517 112.033 294.517L111.718 289.728Z" fill="#455A64"/>
<path d="M104.787 209.89L108.265 188.891C108.265 188.891 120.831 187.538 125.446 183.206C125.446 183.206 119.636 191.265 111.071 192.494L107.302 209.924L108.879 238.882L104.787 209.89Z" fill="#263238"/>
<path d="M122.01 105.228C127.712 105.111 128.65 106.19 131.14 107.784C133.19 109.095 158.53 130.916 158.53 130.916L152.122 140.046C146.13 138.386 141.88 135.805 136.311 131.746C130.741 127.687 124.691 123.504 124.691 123.504L122.01 105.228Z" fill="#F28F8F"/>
<path d="M106.581 100.173C106.344 99.7635 106.066 99.3797 105.751 99.0273C103.451 96.5373 99.4758 96.8361 96.4463 97.5416C93.7073 98.1807 91.0762 99.2763 88.2708 99.6C85.6437 99.8785 83.013 99.1089 80.9502 97.4586C80.2364 96.9025 79.4313 96.2136 78.5598 96.446C78.2222 96.5757 77.9212 96.7855 77.6826 97.0573C77.4441 97.3292 77.2751 97.6549 77.1903 98.0064C76.693 99.4686 76.6611 101.049 77.099 102.53C75.2188 101.898 73.6378 100.595 72.6585 98.8696C72.4461 98.346 72.0819 97.8979 71.6127 97.5831C71.3189 97.4683 70.9971 97.4457 70.6902 97.5184C70.3832 97.591 70.1057 97.7555 69.8946 97.9898C69.4754 98.4596 69.1889 99.0326 69.0646 99.6498C68.4536 101.943 68.5902 104.372 69.4545 106.583C70.3187 108.794 71.8656 110.671 73.8703 111.942C72.7472 112.049 71.6144 111.91 70.5503 111.535C70.2549 111.465 69.9463 111.474 69.6552 111.56C69.364 111.646 69.1004 111.806 68.8903 112.025C68.6628 112.347 68.5188 112.72 68.471 113.111C68.4232 113.502 68.4731 113.899 68.6164 114.266C69.3017 116.498 70.7771 118.405 72.7664 119.628C81.3403 125.181 95.4503 123.604 102.92 116.748C106.514 113.428 108.639 108.448 107.801 103.601C107.611 102.392 107.197 101.229 106.581 100.173Z" fill="#37474F"/>
<path d="M128.434 137.631C127.986 142.611 128.194 158.779 128.194 158.779C112.531 168.349 86.594 158.779 86.594 158.779C88.0797 155.111 90.412 151.425 90.2709 147.931L86.9509 128.841C91.1033 121.798 93.0706 113.681 92.6032 105.518L103.775 104.356L114.449 104.655L122.018 105.194C125.861 108.795 129.088 113.001 131.572 117.644C135.448 125.056 134.136 131.663 128.434 137.631Z" fill="#00A4FF"/>
<path d="M116.009 97.1685C117.354 94.5457 118.997 93.0185 122.276 89.4412C127.355 83.8968 127.007 72.2602 122.334 69.0315C119.254 64.9562 114.274 62.3085 109.386 61.1133C105.053 60.0509 100.339 61.9433 96.6452 64.1926C93.5423 66.1278 90.7754 68.5555 88.4531 71.3804C87.1893 72.7359 86.225 74.3421 85.6228 76.0948C85.3653 76.7768 85.3653 77.5293 85.6228 78.2113C85.8283 78.569 86.1194 78.87 86.47 79.0873C86.8206 79.3046 87.2197 79.4314 87.6314 79.4563C88.4558 79.4934 89.2805 79.3924 90.0716 79.1575C89.5238 79.2903 91.1589 81.9546 91.5324 82.1621C92.6394 82.6653 93.8559 82.8795 95.0682 82.7846C95.8982 82.7846 96.6784 82.6186 97.4835 82.5605C98.106 82.5605 99.0854 82.353 99.6083 82.7431C100.111 83.1825 100.583 83.6568 101.019 84.1624L102.679 85.7643L109.112 91.9644C111.428 94.1307 113.71 94.969 116.009 97.1685Z" fill="#37474F"/>
<path d="M123.911 81.8879C120.914 79.7548 118.607 81.4729 117.346 83.4898C117.107 84.0021 116.752 84.4512 116.308 84.8012C116.131 84.9077 115.931 84.9714 115.725 84.9873C115.519 85.0031 115.312 84.9707 115.121 84.8925C114.042 84.4609 113.743 82.9752 113.528 81.9875C113.216 80.5568 113.143 79.0844 113.312 77.63C112.719 78.1811 111.946 78.4969 111.137 78.5181C110.738 78.5219 110.343 78.4324 109.984 78.2566C109.625 78.0808 109.312 77.8236 109.07 77.5055C108.586 76.5915 108.378 75.556 108.473 74.5258C108.431 73.3306 108.39 71.5959 107.801 70.5252C107.352 69.6952 106.074 69.1308 105.31 68.7324C103.758 67.9522 101.99 66.9728 100.239 67.0724C99.2349 67.0724 98.2223 66.9728 97.2097 67.0143C96.3797 67.0558 94.9355 66.9645 94.1719 67.3546C91.6819 68.6328 89.1338 71.156 89.665 83.8467C90.0883 93.8067 92.7858 98.5294 94.4873 99.4009C96.1888 100.272 98.2721 100.472 101.584 100.131V105.775C101.526 106.116 107.178 114.382 115.295 116.341C117.785 113.577 118.748 109.842 115.951 104.995L116.134 90.661C117.042 91.4032 118.182 91.8044 119.355 91.7953C120.528 91.7863 121.661 91.3674 122.558 90.6112C125.33 88.3868 126.359 83.6309 123.911 81.8879Z" fill="#FFA8A7"/>
<path d="M122.55 83.3737C122.323 83.1774 122.059 83.0279 121.774 82.9339C121.489 82.8399 121.189 82.8032 120.89 82.8259C120.338 82.8364 119.806 83.0295 119.377 83.375C118.947 83.7205 118.644 84.1988 118.516 84.7349C118.499 84.8511 118.527 84.9696 118.595 85.0654C118.663 85.1613 118.766 85.2272 118.881 85.2495C119.163 85.3159 119.445 85.3159 119.711 85.374C119.977 85.4321 120.026 85.5981 120.06 85.8554C120.078 86.0104 120.057 86.1675 119.999 86.3125C119.941 86.4574 119.848 86.5856 119.728 86.6854C119.608 86.7852 119.468 86.8577 119.318 86.8978C119.167 86.9379 119.01 86.9447 118.856 86.9178C118.701 86.8726 118.536 86.8799 118.386 86.9384C118.236 86.997 118.109 87.1035 118.026 87.2415C117.928 87.442 117.856 87.6539 117.81 87.8723C117.782 88.0231 117.782 88.1779 117.81 88.3288C117.826 88.6503 117.945 88.9581 118.15 89.2063C118.355 89.4546 118.635 89.63 118.947 89.7066C119.282 89.8129 119.637 89.8413 119.985 89.7896C120.16 89.7776 120.331 89.7294 120.487 89.6479C120.643 89.5665 120.78 89.4536 120.89 89.3165C120.651 89.4174 120.394 89.4693 120.134 89.4693C119.875 89.4693 119.618 89.4174 119.379 89.3165C119.059 89.2119 118.782 89.0048 118.591 88.7272C118.477 88.5466 118.433 88.3308 118.466 88.1201C118.5 87.9094 118.609 87.7181 118.773 87.5818C118.872 87.5665 118.973 87.5665 119.072 87.5818C119.231 87.6065 119.394 87.6065 119.553 87.5818C119.887 87.5046 120.192 87.3349 120.433 87.0921C120.654 86.8402 120.791 86.5254 120.824 86.1918C120.856 85.8583 120.784 85.5229 120.616 85.2329C120.479 85.0358 120.297 84.8747 120.084 84.7634C119.872 84.6521 119.636 84.5939 119.396 84.5938C119.556 84.257 119.809 83.9728 120.125 83.7744C120.441 83.576 120.807 83.4716 121.18 83.4733C121.611 83.4495 122.039 83.5565 122.409 83.7804C122.589 83.8973 122.749 84.0431 122.882 84.212C123 84.3628 123.095 84.5307 123.164 84.71C123.167 84.4555 123.114 84.2036 123.008 83.9724C122.902 83.7412 122.745 83.5367 122.55 83.3737Z" fill="#F28F8F"/>
<path d="M85.4155 68.3673C85.6313 67.8776 85.872 67.4045 86.1376 66.9314C90.2876 59.6606 99.3097 56.9714 107.211 57.6603C117.063 58.4903 123.429 63.7359 122.409 70.5336L117.354 70.8407C116.308 70.9071 115.254 70.7328 114.233 70.8988C112.58 71.2263 111.012 71.8902 109.627 72.8493C107.904 74.1138 106.087 75.2432 104.19 76.2274C103.294 76.6175 102.082 76.8333 101.468 76.0697C100.853 75.3061 101.302 74.1773 101.775 73.3141C100.092 74.7401 98.0665 75.704 95.8984 76.1112C94.9273 76.2855 93.757 76.2855 93.1511 75.5053C92.5452 74.7251 92.8523 73.4801 93.3005 72.5256C91.6205 73.56 89.6411 73.9986 87.6814 73.7706C87.1263 73.7545 86.5834 73.6042 86.0992 73.3324C85.6149 73.0606 85.2038 72.6756 84.9009 72.2102C84.7223 71.7308 84.6435 71.22 84.6692 70.7091C84.6949 70.1981 84.8245 69.6978 85.0503 69.2388C85.1582 68.9566 85.2827 68.6661 85.4155 68.3673Z" fill="#37474F"/>
<path d="M103.883 82.3114C103.885 82.7015 104.037 83.076 104.307 83.3573C104.577 83.6385 104.946 83.8049 105.335 83.822C105.526 83.832 105.717 83.8036 105.896 83.7383C106.075 83.6731 106.239 83.5724 106.379 83.4422C106.518 83.3121 106.63 83.1551 106.707 82.9808C106.785 82.8065 106.826 82.6183 106.829 82.4276C106.83 82.0423 106.684 81.6712 106.42 81.3904C106.156 81.1096 105.795 80.9402 105.41 80.917C105.217 80.9022 105.023 80.9272 104.84 80.9903C104.656 81.0534 104.488 81.1534 104.345 81.284C104.202 81.4146 104.087 81.5732 104.008 81.7499C103.928 81.9266 103.886 82.1176 103.883 82.3114Z" fill="#263238"/>
<path d="M90.8437 80.0785L93.3337 77.5885C93.1836 77.4164 92.9995 77.2772 92.7931 77.1795C92.5867 77.0818 92.3623 77.0278 92.134 77.0208C91.9058 77.0138 91.6785 77.0539 91.4665 77.1388C91.2545 77.2236 91.0622 77.3512 90.9018 77.5137C90.5588 77.8488 90.3607 78.3049 90.3498 78.7843C90.339 79.2636 90.5162 79.7282 90.8437 80.0785Z" fill="#263238"/>
<path d="M92.1305 82.5021C92.1323 82.8923 92.2841 83.2668 92.5545 83.548C92.8249 83.8293 93.1932 83.9956 93.583 84.0127C93.7735 84.0228 93.9641 83.9943 94.1433 83.9291C94.3226 83.8638 94.4868 83.7631 94.6263 83.633C94.7658 83.5028 94.8776 83.3459 94.955 83.1715C95.0324 82.9972 95.0739 82.809 95.077 82.6183C95.0773 82.2275 94.9261 81.8518 94.6553 81.5702C94.3844 81.2885 94.015 81.1227 93.6245 81.1077C93.434 81.0976 93.2434 81.1261 93.0642 81.1913C92.8849 81.2566 92.7207 81.3573 92.5812 81.4874C92.4417 81.6176 92.33 81.7745 92.2525 81.9489C92.1751 82.1232 92.1336 82.3114 92.1305 82.5021Z" fill="#263238"/>
<path d="M105.037 77.3482L107.9 79.3319C108.041 79.1515 108.144 78.9439 108.201 78.7221C108.258 78.5003 108.268 78.2691 108.232 78.043C108.195 77.8169 108.112 77.6009 107.988 77.4085C107.864 77.216 107.701 77.0514 107.51 76.9249C107.121 76.668 106.649 76.5688 106.19 76.6474C105.73 76.726 105.318 76.9766 105.037 77.3482Z" fill="#263238"/>
<path d="M99.8987 79.1824L99.6995 89.1756L94.7278 88.1132L99.8987 79.1824Z" fill="#F28F8F"/>
<path d="M101.543 100.106C105.037 99.5833 112.449 97.7158 113.727 94.9768C113.196 96.5428 112.204 97.9114 110.88 98.9027C108.639 100.563 101.543 102.098 101.543 102.098V100.106Z" fill="#F28F8F"/>
<path d="M105.228 92.2962C105.228 92.6606 105.12 93.0169 104.917 93.3199C104.715 93.6229 104.427 93.8591 104.09 93.9986C103.754 94.138 103.383 94.1745 103.026 94.1034C102.668 94.0323 102.34 93.8568 102.082 93.5991C101.825 93.3414 101.649 93.0131 101.578 92.6557C101.507 92.2983 101.544 91.9278 101.683 91.5911C101.822 91.2544 102.059 90.9666 102.362 90.7641C102.665 90.5617 103.021 90.4536 103.385 90.4536C103.874 90.4536 104.343 90.6477 104.688 90.9933C105.034 91.3389 105.228 91.8075 105.228 92.2962Z" fill="#B16668"/>
<path d="M103.144 93.9149C103.14 93.9812 103.14 94.0477 103.144 94.1141C103.216 94.1186 103.288 94.1186 103.36 94.1141C103.849 94.1141 104.318 93.9199 104.663 93.5744C105.009 93.2288 105.203 92.7602 105.203 92.2715C105.207 92.2024 105.207 92.1331 105.203 92.064H104.987C104.744 92.0629 104.503 92.1101 104.279 92.2028C104.054 92.2955 103.85 92.4319 103.679 92.6041C103.507 92.7763 103.372 92.9809 103.28 93.2059C103.188 93.4309 103.142 93.6719 103.144 93.9149Z" fill="#F28F8F"/>
<path d="M132.925 82.7349C132.186 81.7555 131.149 80.5022 130.858 80.0706C130.277 79.2406 129.057 80.4524 129.331 81.7306C129.826 83.2367 130.506 84.6754 131.356 86.0134C131.979 87.0675 132.444 90.8606 132.12 93.1099C131.954 94.2636 131.215 95.2679 130.344 94.7699C129.472 94.2719 128.352 91.9811 127.264 91.4499C126.177 90.9187 124.974 91.1843 124.725 91.8068C124.476 92.4293 125.604 93.4668 126.086 94.745C126.567 96.0232 126.916 99.5424 127.746 101.111C128.785 102.591 129.988 103.95 131.331 105.161C133.399 104.043 135.152 102.422 136.428 100.447C138.528 97.1105 137.922 87.4493 132.925 82.7349Z" fill="#FFA8A7"/>
<path d="M136.95 94.8026C137.083 94.3627 137.282 93.7817 137.465 93.0679C137.075 89.3744 135.664 85.3157 132.933 82.7344C132.443 82.0787 131.812 81.2985 131.364 80.7258C131.455 81.7509 131.778 82.7416 132.31 83.6225C133.003 84.7632 133.547 85.9877 133.929 87.2662C134.17 88.0962 134.46 89.7562 134.817 91.2087C135.114 93.0109 135.306 94.8289 135.39 96.6535C135.39 96.6535 136.402 96.7033 136.95 94.8026Z" fill="#F28F8F"/>
<path d="M135.291 80.5102C133.581 78.3771 133.158 77.8708 132.801 77.9289C131.506 78.1198 131.78 81.6058 132.709 83.1745C133.526 84.5035 134.115 85.9594 134.452 87.4822C134.669 88.7211 134.78 89.9762 134.784 91.2338C134.784 91.2338 133.622 96.5707 133.257 98.1892C133.257 98.1892 136.984 96.1972 137.523 94.2965C138.063 92.3958 140.08 88.113 135.291 80.5102Z" fill="#FFA8A7"/>
<path d="M137.78 93.3915C138.461 91.192 139.44 87.1167 135.29 80.485L134.56 79.572C134.222 80.1197 134.109 80.7771 134.245 81.4063C134.46 82.9418 135.747 85.2492 136.013 86.3863C136.304 87.6627 136.507 88.9579 136.618 90.2624L137.78 93.3915Z" fill="#F28F8F"/>
<path d="M137.921 81.656C136.85 79.9379 136.668 78.9419 136.261 78.6182C135.854 78.2945 134.601 79.6806 134.825 81.2161C135.247 83.0223 135.802 84.795 136.485 86.5198C136.859 88.0885 136.784 92.114 136.211 93.4337C136.211 93.4337 138.593 93.8902 139.531 92.2551C140.469 90.62 140.27 86.1961 137.921 81.656Z" fill="#FFA8A7"/>
<path d="M137.921 81.6554L137.456 80.8254C136.768 81.5641 136.626 82.1202 137.091 83.9213C137.656 86.0544 138.56 88.0713 138.452 89.7977C138.9 89.3923 139.425 89.0817 139.996 88.8847C139.831 86.3541 139.123 83.8886 137.921 81.6554Z" fill="#F28F8F"/>
<path d="M131.364 105.112C129.173 102.497 131.182 100.132 132.194 98.5545C133.564 96.3301 136.867 92.869 137.523 91.79C138.044 91.1089 138.399 90.3162 138.561 89.4743C138.776 88.3289 138.212 86.644 137.83 85.1085C137 81.7387 137.548 81.1162 138.229 80.9585C138.909 80.8008 139.689 83.1331 140.237 84.2785C140.785 85.4239 142.387 89.0842 142.337 90.4288C142.15 93.1933 141.7 95.9336 140.993 98.6126C140.345 100.92 145.035 106.821 145.035 106.821L135.581 113.353C134.371 110.51 132.962 107.756 131.364 105.112Z" fill="#FFA8A7"/>
<path d="M137.207 91.8813C136.183 93.3615 134.969 94.701 133.597 95.8653C132.219 97.2099 131.041 99.5422 131.041 100.937C131.587 99.1086 132.658 97.481 134.12 96.2554C135.553 95.1287 136.626 93.6086 137.207 91.8813Z" fill="#F28F8F"/>
<path d="M133.779 109.502C136.02 114.681 140.959 128.683 142.785 132.153C145.582 137.481 152.745 141.598 155.55 140.046C158.356 138.494 159.526 132.12 157.733 126.417C155.633 119.719 144.86 107.327 142.494 103.177L133.779 109.502Z" fill="#FFA8A7"/>
<path d="M92.5701 105.551C82.2781 105.551 79.5059 110.133 76.3934 117.702C73.2809 125.272 66.4002 145.416 66.4002 145.416C64.3031 149.037 62.5257 152.833 61.0882 156.762C59.4282 161.46 54.2324 180.21 52.2072 181.156C50.182 182.102 41.2678 181.986 37.8897 182.874C34.5116 183.762 30.1043 186.783 27.7886 188.684C27.4234 189.829 29.017 190.137 30.1458 189.979C32.2291 189.68 35.4661 187.979 37.7486 187.896C40.6867 187.791 43.6277 188 46.5217 188.518C47.4679 188.784 47.1857 189.547 44.0898 191.216C40.9939 192.884 40.4378 194.735 40.7117 195.681C40.9856 196.627 42.1974 195.681 44.3637 194.735C46.53 193.789 50.3065 192.71 53.6929 191.216C57.0793 189.722 59.0962 189.597 60.9886 187.431C62.881 185.264 63.4288 183.023 65.7196 178.558C68.0104 174.093 72.8244 166.506 74.7749 162.68C77.4724 157.41 78.651 153.119 81.4896 147.367C84.8594 140.552 92.014 125.604 92.014 125.604C92.014 125.604 96.4462 112.324 92.5701 105.551Z" fill="#FFA8A7"/>
<path d="M142.155 78.3605C142.049 78.3599 141.948 78.3182 141.872 78.2443C141.835 78.208 141.806 78.1648 141.786 78.117C141.766 78.0693 141.756 78.0181 141.756 77.9663C141.756 77.9145 141.766 77.8633 141.786 77.8156C141.806 77.7678 141.835 77.7245 141.872 77.6882L147.55 72.3513C147.586 72.3145 147.629 72.2852 147.677 72.2652C147.725 72.2452 147.776 72.2349 147.828 72.2349C147.879 72.2349 147.931 72.2452 147.978 72.2652C148.026 72.2852 148.069 72.3145 148.106 72.3513C148.142 72.3869 148.171 72.4295 148.191 72.4766C148.211 72.5236 148.221 72.5742 148.221 72.6252C148.221 72.6763 148.211 72.7269 148.191 72.7739C148.171 72.821 148.142 72.8636 148.106 72.8992L142.428 78.2443C142.354 78.3143 142.257 78.3555 142.155 78.3605Z" fill="#E0E0E0"/>
<path d="M143.507 81.2408C143.423 81.2419 143.34 81.2147 143.272 81.1636C143.205 81.1125 143.156 81.0404 143.134 80.9586C143.106 80.8595 143.118 80.7533 143.168 80.6631C143.217 80.5729 143.301 80.5061 143.4 80.4772L150.87 78.3192C150.969 78.2909 151.075 78.303 151.165 78.3527C151.255 78.4025 151.322 78.4859 151.351 78.5848C151.379 78.6849 151.368 78.7922 151.318 78.8838C151.268 78.9753 151.185 79.0437 151.085 79.0745L143.615 81.2242L143.507 81.2408Z" fill="#E0E0E0"/>
<path d="M151.965 85.623H151.89L144.18 84.6602C144.128 84.6541 144.078 84.6378 144.033 84.6122C143.988 84.5867 143.949 84.5525 143.917 84.5115C143.886 84.4706 143.862 84.4238 143.849 84.3737C143.836 84.3237 143.832 84.2716 143.839 84.2203C143.856 84.1183 143.91 84.0264 143.992 83.9632C144.074 83.9 144.176 83.8702 144.279 83.88L152.015 84.8511C152.118 84.8656 152.211 84.9197 152.274 85.0018C152.338 85.084 152.367 85.1878 152.355 85.291C152.341 85.3841 152.294 85.469 152.222 85.53C152.15 85.591 152.059 85.624 151.965 85.623Z" fill="#E0E0E0"/>
</svg>
